<svg width="40" height="40" viewBox="0 0 40 40" fill="none" xmlns="http://www.w3.org/2000/svg">
<g clip-path="url(#clip0_62_2648)">
<path d="M20 0C9 0 0 9 0 20C0 31 9 40 20 40C31 40 40 31 40 20C40 9 31 0 20 0Z" fill="#3775BC"/>
<path d="M26.3002 13.9L11.8002 19.5C11.8002 19.5 11.1002 19.7 11.2002 20.2C11.3002 20.6 11.8002 20.8 11.8002 20.8L15.4002 22L24.2002 16.5C24.2002 16.5 24.7002 16.2 24.7002 16.5C24.7002 16.5 24.8002 16.6 24.5002 16.8C24.2002 17.1 17.6002 22.9 17.6002 22.9V23L23.6002 27.5C24.6002 27.9 25.0002 27 25.0002 27L27.6002 14.1C27.4002 13.4 26.3002 13.9 26.3002 13.9Z" fill="white"/>
</g>
<defs>
<clipPath id="clip0_62_2648">
<rect width="40" height="40" fill="white"/>
</clipPath>
</defs>
</svg>
