<svg width="200" height="41" viewBox="0 0 200 41" fill="none" xmlns="http://www.w3.org/2000/svg">
<g clip-path="url(#clip0_62_2639)">
<path d="M64.0801 31.44H69.3301V20.66L74.4901 31.44H78.2401L83.4001 20.66V31.44H88.7401V14.56H81.7101L76.5501 25.06L71.4901 14.56H64.0801V31.43V31.44Z" fill="black"/>
<path d="M105.79 14.56H98.57L90.79 31.43H96.23L97.54 28.52H106.54L107.85 31.43H113.66L105.79 14.56ZM99.32 24.78L102.13 18.5L105.04 24.78H99.32Z" fill="black"/>
<path d="M135.88 29.75V27.59C135.88 25.06 134.29 23.84 132.04 23.37C134.1 22.9 135.79 21.59 135.79 19.34V19.15C135.79 17.09 134.95 14.56 128.57 14.56H115.92V31.43H121.36V25.9H127.08C129.52 25.9 130.27 26.65 130.27 28.9V30.31C130.27 31.06 130.36 31.34 130.36 31.43H135.98V31.34C135.98 31.15 135.89 30.78 135.89 29.75H135.88ZM130.07 20.19C130.07 21.03 129.6 21.78 127.82 21.78H121.35V18.59H127.82C129.6 18.59 130.07 19.34 130.07 20.18V20.19Z" fill="black"/>
<path d="M152.85 31.44H159.88L150.69 22.25L159.41 14.56H152.75L145.25 21.31V14.56H139.72V31.43H145.25V23.74L152.84 31.43L152.85 31.44Z" fill="black"/>
<path d="M162.04 14.56V31.43H178.54V27.59H167.48V24.97H178.07V20.94H167.48V18.5H178.45V14.56H162.05H162.04Z" fill="black"/>
<path d="M181.06 18.88H187.81V31.44H193.25V18.88H200V14.57H181.06V18.88Z" fill="black"/>
<path d="M0 14.56H13.22C18.05 14.56 19.39 16.53 19.39 18.53V18.73C19.39 20.93 17.46 21.93 16.19 22.11C18.03 22.41 20.27 23.45 20.27 26.28V26.51C20.27 29.05 18.73 31.43 13.26 31.43H0V14.56ZM5.42 18.3V21.02H12C13.36 21.02 13.77 20.43 13.77 19.68V19.63C13.77 18.84 13.36 18.29 12 18.29H5.42V18.3ZM5.42 24.51V27.5H12.43C14.06 27.5 14.43 26.71 14.43 25.98V25.89C14.43 25.14 14.07 24.51 12.43 24.51H5.42Z" fill="black"/>
<path d="M59.6398 26.01C59.5198 26.64 59.4398 27.28 59.2698 27.9C58.0498 32.2 55.5298 35.59 51.7898 38.07C50.0598 39.22 48.1698 40 46.1398 40.49C43.8298 41.04 41.5098 41.16 39.1798 40.79C35.5898 40.23 32.4198 38.76 29.7098 36.35C27.1998 34.11 25.4698 31.36 24.4798 28.18C23.6298 25.42 23.4698 22.61 24.0098 19.76C24.5698 16.79 25.7898 14.11 27.6898 11.75C29.4198 9.61 31.5298 7.93 34.0298 6.76C37.1698 5.29 40.4598 4.7 43.9098 5.16C50.5098 6.03 55.2398 9.49 58.2098 15.35C58.9098 16.73 59.3398 18.2 59.6498 19.7C59.7698 20.27 59.5998 20.63 59.0598 20.94C56.9598 22.14 54.8598 23.33 52.7598 24.53C50.4098 25.87 48.0698 27.22 45.7298 28.58C44.2498 29.44 42.6998 29.92 40.9698 29.71C39.6898 29.55 38.5698 29.01 37.4598 28.24C37.6298 28.11 37.7498 27.99 37.8898 27.91C42.5498 25.23 47.2198 22.55 51.8898 19.87C52.7198 19.4 52.6398 19.49 52.2998 18.67C50.8998 15.33 48.3898 13.22 44.9098 12.18C42.9998 11.61 41.0698 11.49 39.1398 11.99C37.0098 12.55 35.1698 13.64 33.6798 15.24C30.7898 18.35 29.8398 22.01 30.9698 26.05C32.1398 30.27 34.9898 32.97 39.3198 33.96C42.5498 34.7 45.5598 33.99 48.3898 32.31C51.9598 30.2 55.5798 28.17 59.1798 26.1C59.2998 26.03 59.4198 25.98 59.5498 25.93C59.5898 25.95 59.6298 25.97 59.6698 25.99L59.6398 26.01Z" fill="#FFC800"/>
<path d="M46.0797 17.95C42.4397 20.03 38.8397 22.1 35.2197 24.17C34.7297 21.82 35.6997 18.58 38.6397 17.05C41.4397 15.6 44.7397 16.44 46.0797 17.95Z" fill="#FFC800"/>
</g>
<defs>
<clipPath id="clip0_62_2639">
<rect width="200" height="36" fill="white" transform="translate(0 5)"/>
</clipPath>
</defs>
</svg>
