<svg width="24" height="24" viewBox="0 0 24 24" fill="none" xmlns="http://www.w3.org/2000/svg">
<path fill-rule="evenodd" clip-rule="evenodd" d="M18.9795 18C18.9795 18.552 18.5315 19 17.9795 19C17.4275 19 16.9795 18.552 16.9795 18C16.9795 17.448 17.4275 17 17.9795 17C18.5315 17 18.9795 17.448 18.9795 18ZM6.97949 18C6.97949 18.552 6.53149 19 5.97949 19C5.42749 19 4.97949 18.552 4.97949 18C4.97949 17.448 5.42749 17 5.97949 17C6.53149 17 6.97949 17.448 6.97949 18ZM19.9795 12.48V15H16.9795V10.081L19.9795 12.48ZM21.6045 11.219L16.9795 7.519V5C16.9795 3.897 16.1665 3 15.1665 3H3.79149C2.79249 3 1.97949 3.897 1.97949 5V15C1.97949 15.873 2.49249 16.609 3.20049 16.882C3.06049 17.228 2.97949 17.604 2.97949 18C2.97949 19.654 4.32549 21 5.97949 21C7.63349 21 8.97949 19.654 8.97949 18C8.97949 17.647 8.90749 17.314 8.79449 17H11.9795H15.1645C15.0515 17.314 14.9795 17.647 14.9795 18C14.9795 19.654 16.3255 21 17.9795 21C19.6335 21 20.9795 19.654 20.9795 18C20.9795 17.647 20.9075 17.314 20.7945 17H20.9795C21.5325 17 21.9795 16.553 21.9795 16V12C21.9795 11.696 21.8415 11.409 21.6045 11.219Z" fill="white"/>
<mask id="mask0_58_247" style="mask-type:luminance" maskUnits="userSpaceOnUse" x="1" y="3" width="21" height="18">
<path fill-rule="evenodd" clip-rule="evenodd" d="M18.9795 18C18.9795 18.552 18.5315 19 17.9795 19C17.4275 19 16.9795 18.552 16.9795 18C16.9795 17.448 17.4275 17 17.9795 17C18.5315 17 18.9795 17.448 18.9795 18ZM6.97949 18C6.97949 18.552 6.53149 19 5.97949 19C5.42749 19 4.97949 18.552 4.97949 18C4.97949 17.448 5.42749 17 5.97949 17C6.53149 17 6.97949 17.448 6.97949 18ZM19.9795 12.48V15H16.9795V10.081L19.9795 12.48ZM21.6045 11.219L16.9795 7.519V5C16.9795 3.897 16.1665 3 15.1665 3H3.79149C2.79249 3 1.97949 3.897 1.97949 5V15C1.97949 15.873 2.49249 16.609 3.20049 16.882C3.06049 17.228 2.97949 17.604 2.97949 18C2.97949 19.654 4.32549 21 5.97949 21C7.63349 21 8.97949 19.654 8.97949 18C8.97949 17.647 8.90749 17.314 8.79449 17H11.9795H15.1645C15.0515 17.314 14.9795 17.647 14.9795 18C14.9795 19.654 16.3255 21 17.9795 21C19.6335 21 20.9795 19.654 20.9795 18C20.9795 17.647 20.9075 17.314 20.7945 17H20.9795C21.5325 17 21.9795 16.553 21.9795 16V12C21.9795 11.696 21.8415 11.409 21.6045 11.219Z" fill="white"/>
</mask>
<g mask="url(#mask0_58_247)">
<rect width="24" height="24" fill="white"/>
</g>
</svg>
