<svg xmlns="http://www.w3.org/2000/svg" width="200" height="36" viewBox="0 0 200 36" fill="none"
     data-darkreader-inline-invert="">
    <g clip-path="url(#clip0_8214_505)">
        <path d="M64.08 26.4401H69.33V15.6601L74.49 26.4401H78.24L83.4 15.6601V26.4401H88.74V9.56006H81.71L76.55 20.0601L71.49 9.56006H64.08V26.4301V26.4401Z"
              fill="black"></path>
        <path d="M105.79 9.56006H98.57L90.79 26.4301H96.23L97.54 23.5201H106.54L107.85 26.4301H113.66L105.79 9.56006ZM99.32 19.7801L102.13 13.5001L105.04 19.7801H99.32Z"
              fill="black"></path>
        <path d="M135.88 24.7501V22.5901C135.88 20.0601 134.29 18.8401 132.04 18.3701C134.1 17.9001 135.79 16.5901 135.79 14.3401V14.1501C135.79 12.0901 134.95 9.56006 128.57 9.56006H115.92V26.4301H121.36V20.9001H127.08C129.52 20.9001 130.27 21.6501 130.27 23.9001V25.3101C130.27 26.0601 130.36 26.3401 130.36 26.4301H135.98V26.3401C135.98 26.1501 135.89 25.7801 135.89 24.7501H135.88ZM130.07 15.1901C130.07 16.0301 129.6 16.7801 127.82 16.7801H121.35V13.5901H127.82C129.6 13.5901 130.07 14.3401 130.07 15.1801V15.1901Z"
              fill="black"></path>
        <path d="M152.85 26.4401H159.88L150.69 17.2501L159.41 9.56006H152.75L145.25 16.3101V9.56006H139.72V26.4301H145.25V18.7401L152.84 26.4301L152.85 26.4401Z"
              fill="black"></path>
        <path d="M162.04 9.56006V26.4301H178.54V22.5901H167.48V19.9701H178.07V15.9401H167.48V13.5001H178.45V9.56006H162.05H162.04Z"
              fill="black"></path>
        <path d="M181.06 13.8798H187.81V26.4398H193.25V13.8798H200V9.56982H181.06V13.8798Z" fill="black"></path>
        <path d="M0 9.56006H13.22C18.05 9.56006 19.39 11.5301 19.39 13.5301V13.7301C19.39 15.9301 17.46 16.9301 16.19 17.1101C18.03 17.4101 20.27 18.4501 20.27 21.2801V21.5101C20.27 24.0501 18.73 26.4301 13.26 26.4301H0V9.56006ZM5.42 13.3001V16.0201H12C13.36 16.0201 13.77 15.4301 13.77 14.6801V14.6301C13.77 13.8401 13.36 13.2901 12 13.2901H5.42V13.3001ZM5.42 19.5101V22.5001H12.43C14.06 22.5001 14.43 21.7101 14.43 20.9801V20.8901C14.43 20.1401 14.07 19.5101 12.43 19.5101H5.42Z"
              fill="black"></path>
        <path d="M59.64 21.0098C59.52 21.6398 59.44 22.2798 59.27 22.8998C58.05 27.1998 55.53 30.5898 51.79 33.0698C50.06 34.2198 48.17 34.9998 46.14 35.4898C43.83 36.0398 41.51 36.1598 39.18 35.7898C35.59 35.2298 32.42 33.7598 29.71 31.3498C27.2 29.1098 25.47 26.3598 24.48 23.1798C23.63 20.4198 23.47 17.6098 24.01 14.7598C24.57 11.7898 25.79 9.10981 27.69 6.74981C29.42 4.60981 31.53 2.92981 34.03 1.75981C37.17 0.289815 40.46 -0.300185 43.91 0.159815C50.51 1.02981 55.24 4.48982 58.21 10.3498C58.91 11.7298 59.34 13.1998 59.65 14.6998C59.77 15.2698 59.6 15.6298 59.06 15.9398C56.96 17.1398 54.86 18.3298 52.76 19.5298C50.41 20.8698 48.07 22.2198 45.73 23.5798C44.25 24.4398 42.7 24.9198 40.97 24.7098C39.69 24.5498 38.57 24.0098 37.46 23.2398C37.63 23.1098 37.75 22.9898 37.89 22.9098C42.55 20.2298 47.22 17.5498 51.89 14.8698C52.72 14.3998 52.64 14.4898 52.3 13.6698C50.9 10.3298 48.39 8.21981 44.91 7.17981C43 6.60981 41.07 6.48981 39.14 6.98981C37.01 7.54981 35.17 8.63981 33.68 10.2398C30.79 13.3498 29.84 17.0098 30.97 21.0498C32.14 25.2698 34.99 27.9698 39.32 28.9598C42.55 29.6998 45.56 28.9898 48.39 27.3098C51.96 25.1998 55.58 23.1698 59.18 21.0998C59.3 21.0298 59.42 20.9798 59.55 20.9298C59.59 20.9498 59.63 20.9698 59.67 20.9898L59.64 21.0098Z"
              fill="#FFC800"></path>
        <path d="M46.08 12.9496C42.44 15.0296 38.84 17.0996 35.22 19.1696C34.73 16.8196 35.7 13.5796 38.64 12.0496C41.44 10.5996 44.74 11.4396 46.08 12.9496Z"
              fill="#FFC800"></path>
    </g>
    <defs>
        <clipPath id="clip0_8214_505">
            <rect width="200" height="36" fill="white"></rect>
        </clipPath>
    </defs>
</svg>