<svg width="24" height="25" viewBox="0 0 24 25" fill="none" xmlns="http://www.w3.org/2000/svg">
<path d="M12 2.27848C15.1899 2.27848 15.6456 2.27848 16.8608 2.27848C18.076 2.27848 18.6835 2.58228 19.1392 2.73418C19.7468 2.88608 20.0506 3.18987 20.5063 3.64557C20.962 4.10127 21.2658 4.40506 21.4177 5.01266C21.5696 5.46836 21.7215 6.07595 21.8734 7.29114C21.8734 8.50633 21.8734 8.96203 21.8734 12.1519C21.8734 15.3418 21.8734 15.7975 21.8734 17.0127C21.8734 18.2278 21.5696 18.8354 21.4177 19.2911C21.2658 19.8987 20.962 20.2025 20.5063 20.6582C20.0506 21.1139 19.7468 21.4177 19.1392 21.5696C18.8354 21.8734 18.0759 22.0253 17.0127 22.0253C15.7975 22.0253 15.3418 22.0253 12.1519 22.0253C8.96203 22.0253 8.50633 22.0253 7.29114 22.0253C6.07595 22.0253 5.46835 21.7215 5.01266 21.5696C4.40506 21.4177 4.10127 21.1139 3.64557 20.6582C3.18987 20.2025 2.88608 19.8987 2.73418 19.2911C2.58228 18.8354 2.43038 18.2278 2.27848 17.0127C2.27848 15.7975 2.27848 15.3418 2.27848 12.1519C2.27848 8.96203 2.27848 8.50633 2.27848 7.29114C2.27848 6.07595 2.58228 5.46836 2.73418 5.01266C2.88608 4.40506 3.18987 4.10127 3.64557 3.64557C4.10127 3.18987 4.40506 2.88608 5.01266 2.73418C5.46835 2.58228 6.07595 2.43038 7.29114 2.27848C8.35443 2.27848 8.81013 2.27848 12 2.27848ZM12 0C8.65823 0 8.35443 0 6.98734 0C5.62025 0 4.86076 0.303798 4.10127 0.607595C3.34177 0.911393 2.58228 1.36709 1.97468 1.97468C1.21519 2.73418 0.911392 3.49367 0.607594 4.25317C0.303797 5.01266 0.151899 5.92405 0 7.13924C0 8.50633 0 8.81013 0 12.1519C0 15.4937 0 15.7975 0 17.1646C0 18.5316 0.303797 19.2911 0.607594 20.0506C0.911392 20.8101 1.36709 21.5696 1.97468 22.1772C2.58228 22.7848 3.34177 23.2405 4.10127 23.5443C4.86076 23.8481 5.77215 24 6.98734 24.1519C8.35443 24.1519 8.65823 24.1519 12 24.1519C15.3418 24.1519 15.6456 24.1519 17.0127 24.1519C18.3797 24.1519 19.1392 23.8481 19.8987 23.5443C20.6582 23.2405 21.4177 22.7848 22.0253 22.1772C22.6329 21.5696 23.0886 20.8101 23.3924 20.0506C23.6962 19.2911 23.8481 18.3797 24 17.1646C24 15.7975 24 15.4937 24 12.1519C24 8.81013 24 8.50633 24 7.13924C24 5.77215 23.6962 5.01266 23.3924 4.25317C23.0886 3.49367 22.6329 2.73418 22.0253 2.12658C21.4177 1.51899 20.6582 1.06329 19.8987 0.759494C19.1392 0.455696 18.2278 0.303797 17.0127 0.151899C15.7975 -1.47125e-07 15.3418 0 12 0ZM12 5.92405C8.50633 5.92405 5.77215 8.65823 5.77215 12.1519C5.77215 15.6456 8.50633 18.3797 12 18.3797C15.4937 18.3797 18.2278 15.6456 18.2278 12.1519C18.2278 8.81013 15.4937 5.92405 12 5.92405ZM12 16.2532C9.72152 16.2532 7.89873 14.4304 7.89873 12.1519C7.89873 9.87342 9.72152 8.05063 12 8.05063C14.2785 8.05063 16.1013 9.87342 16.1013 12.1519C16.1013 14.4304 14.2785 16.2532 12 16.2532ZM18.6835 4.40506C17.9241 4.40506 17.1646 5.01266 17.1646 5.92405C17.1646 6.68354 17.7722 7.44304 18.6835 7.44304C19.443 7.44304 20.2025 6.83544 20.2025 5.92405C20.2025 5.01266 19.443 4.40506 18.6835 4.40506Z" fill="white"/>
</svg>
