<svg width="33" height="17" viewBox="0 0 33 17" fill="none" xmlns="http://www.w3.org/2000/svg">
<path d="M0 0.491333C-3.04104e-07 2.61711 0.418693 4.72201 1.23217 6.68594C2.04566 8.64987 3.23799 10.4343 4.74111 11.9375C6.24422 13.4405 8.02868 14.6329 9.99259 15.4464C11.9565 16.2599 14.0614 16.6785 16.1872 16.6785C18.3128 16.6785 20.4177 16.2599 22.3817 15.4464C24.3456 14.6329 26.1301 13.4405 27.6332 11.9375C29.1363 10.4343 30.3286 8.64987 31.1421 6.68594C31.9556 4.72201 32.3743 2.61711 32.3743 0.491333H27.3158C25.6395 0.491333 24.3322 1.89606 23.7183 3.45575C23.7008 3.5002 23.6829 3.54445 23.6646 3.58869C23.2579 4.5706 22.6617 5.46288 21.9101 6.21439C21.1586 6.96591 20.2663 7.56215 19.2844 7.9689C18.3025 8.37565 17.2501 8.58497 16.1872 8.58497C15.1243 8.58497 14.0718 8.37565 13.0899 7.9689C12.1079 7.56215 11.2157 6.96591 10.4641 6.21439C9.71256 5.46288 9.1164 4.5706 8.70966 3.58869C8.30291 2.60667 8.09357 1.55422 8.09357 0.491333H0Z" fill="#FB923C"/>
</svg>
