<svg width="33" height="17" viewBox="0 0 33 17" fill="none" xmlns="http://www.w3.org/2000/svg">
<path d="M32.4671 16.4915C32.4671 12.1984 30.7616 8.0811 27.7259 5.04543C24.6902 2.00975 20.573 0.304322 16.2799 0.304321C11.9868 0.304321 7.86959 2.00975 4.8339 5.04543C1.7982 8.0811 0.0927734 12.1984 0.0927734 16.4915H5.15133C6.82757 16.4915 8.13484 15.0868 8.74882 13.527C9.15192 12.5029 9.7636 11.5618 10.5569 10.7684C12.0747 9.2506 14.1334 8.39789 16.2799 8.39789C18.4265 8.39789 20.4851 9.2506 22.003 10.7684C23.5208 12.2863 24.3734 14.3449 24.3734 16.4915H32.4671Z" fill="#0D9488"/>
</svg>
