<svg width="30" height="25" viewBox="0 0 30 25" fill="none" xmlns="http://www.w3.org/2000/svg">
<path d="M1.29745 10.8362C2.0673 7.74198 3.85025 4.99419 6.36239 3.03051C8.87457 1.06679 11.9715 0 15.1601 0C18.3486 0 21.4456 1.06679 23.9577 3.03051C26.4699 4.99419 28.2528 7.74198 29.0227 10.8362H27.7705C25.6582 10.8051 23.5892 11.4364 21.854 12.6414C21.7538 12.7139 21.6492 12.7802 21.5409 12.8397H21.3948C21.2865 12.7802 21.182 12.7139 21.0818 12.6414C19.3313 11.4643 17.2696 10.8356 15.1601 10.8356C13.0506 10.8356 10.9889 11.4643 9.23833 12.6414C9.13815 12.7139 9.03359 12.7802 8.92528 12.8397H8.77919C8.67088 12.7802 8.56632 12.7139 8.46615 12.6414C6.73095 11.4364 4.66194 10.8051 2.54963 10.8362H1.29745ZM25.5166 17.3788C26.1594 16.8783 26.9561 16.6163 27.7705 16.6379H29.4505V13.2884H27.7705C26.3359 13.2711 24.9342 13.7176 23.774 14.5614C23.1211 15.0428 22.3313 15.3025 21.5201 15.3025C20.7089 15.3025 19.9191 15.0428 19.2661 14.5614C18.0765 13.7333 16.6617 13.2893 15.2122 13.2893C13.7627 13.2893 12.348 13.7333 11.1583 14.5614C10.5054 15.0428 9.71561 15.3025 8.90441 15.3025C8.09321 15.3025 7.3034 15.0428 6.6505 14.5614C5.47596 13.7067 4.05412 13.2597 2.6018 13.2884H0.869629V16.6379H2.54963C3.36407 16.6163 4.16076 16.8783 4.80354 17.3788C5.99102 18.2075 7.4042 18.6519 8.85224 18.6519C10.3003 18.6519 11.7135 18.2075 12.9009 17.3788C13.5446 16.8798 14.3406 16.6181 15.1548 16.6379C15.9696 16.6146 16.7668 16.8767 17.4088 17.3788C18.5984 18.207 20.0132 18.6509 21.4627 18.6509C22.9122 18.6509 24.3269 18.207 25.5166 17.3788ZM25.5166 23.3684C26.1594 22.8678 26.9561 22.6059 27.7705 22.6275H29.4505V19.2779H27.7705C26.3359 19.2606 24.9342 19.7071 23.774 20.551C23.1211 21.0323 22.3313 21.2921 21.5201 21.2921C20.7089 21.2921 19.9191 21.0323 19.2661 20.551C18.0765 19.7229 16.6617 19.279 15.2122 19.279C13.7627 19.279 12.348 19.7229 11.1583 20.551C10.5054 21.0323 9.71561 21.2921 8.90441 21.2921C8.09321 21.2921 7.3034 21.0323 6.6505 20.551C5.47596 19.6964 4.05412 19.2493 2.6018 19.2779H0.869629V22.6275H2.54963C3.36407 22.6059 4.16076 22.8678 4.80354 23.3684C5.99102 24.1971 7.4042 24.6414 8.85224 24.6414C10.3003 24.6414 11.7135 24.1971 12.9009 23.3684C13.5446 22.8694 14.3406 22.6077 15.1548 22.6275C15.9696 22.6041 16.7668 22.8663 17.4088 23.3684C18.5984 24.1966 20.0132 24.6405 21.4627 24.6405C22.9122 24.6405 24.3269 24.1966 25.5166 23.3684Z" fill="#0EA5E9"/>
</svg>
