<svg width="23" height="24" viewBox="0 0 23 24" fill="none" xmlns="http://www.w3.org/2000/svg">
<path fill-rule="evenodd" clip-rule="evenodd" d="M22.6953 0.479614C18.9297 0.479614 15.3586 2.15222 12.9479 5.04505L4.37151 15.3368L9.32386 7.90816L1.10334 11.4313C0.0593366 11.8787 -0.202578 13.2389 0.600483 14.042L3.24591 16.6874L1.89523 18.3082L4.86674 21.2796L6.48748 19.9289L9.1329 22.5743C9.93596 23.3774 11.2962 23.1155 11.7436 22.0716L15.2667 13.8511L7.83815 18.8034L18.1299 10.227C21.0227 7.81633 22.6953 4.24524 22.6953 0.479614ZM14.5239 8.65122C15.3444 9.47171 16.6747 9.47171 17.4953 8.65122C18.3158 7.83063 18.3158 6.5003 17.4953 5.67981C16.6747 4.85923 15.3444 4.85923 14.5239 5.67981C13.7033 6.5003 13.7033 7.83063 14.5239 8.65122Z" fill="#A78BFA"/>
</svg>
