<svg width="45" height="44" viewBox="0 0 45 44" fill="none" xmlns="http://www.w3.org/2000/svg">
<path fill-rule="evenodd" clip-rule="evenodd" d="M25.196 1.88603C23.6372 0.327986 21.1107 0.328497 19.5526 1.88719L6.54951 14.8957L6.53842 14.8924L6.49733 14.8968C6.51426 14.9049 6.53087 14.913 6.54715 14.9211C4.26613 15.1601 3.29832 15.8455 3.28736 16.7258C3.29123 17.0533 3.42557 17.4069 3.67235 17.774L3.66048 17.7859C5.73416 20.9135 16.0071 25.0393 23.2749 22.2439C17.828 24.9674 5.00015 25.5072 1.23241 20.2193C0.414178 21.1045 0.0718342 22.2677 0.200756 23.3856C1.19609 28.8716 12.3239 30.3683 23.4519 22.4198L25.8599 24.8278C22.8635 27.9063 18.4374 45.7878 25.0141 43.0577C25.1701 42.9518 25.3025 42.857 25.4826 42.7207L25.7757 42.444C25.7588 42.4482 25.742 42.4522 25.7253 42.4561L43.3393 25.8276C44.9747 24.2835 45.0117 21.6937 43.421 20.1036L25.196 1.88603ZM23.2779 7.30512L23.8798 4.8971L24.4818 7.30512L26.2879 7.90713L24.4818 8.50916L23.8798 10.9172L23.2779 8.50916L21.4718 7.90713L23.2779 7.30512ZM15.8265 15.166L16.2278 13.5606L16.6291 15.166L17.8332 15.5673L16.6291 15.9687L16.2278 17.5741L15.8265 15.9687L14.6225 15.5673L15.8265 15.166ZM29.8045 28.7071L29.4032 30.3124L28.1992 30.7139L29.4032 31.1152L29.8045 32.7205L30.2058 31.1152L31.4099 30.7139L30.2058 30.3124L29.8045 28.7071Z" fill="#6D5FF4"/>
</svg>
