<svg xmlns="http://www.w3.org/2000/svg" width="48" height="48" viewBox="0 0 48 48" fill="none" >
<g clip-path="url(#clip0_3901_16782)">
<path d="M47.4313 29.3618C50.396 16.4323 42.318 3.54753 29.3885 0.582791C16.4591 -2.38195 3.57428 5.69605 0.609536 18.6255C-2.35521 31.555 5.7228 44.4398 18.6523 47.4045C31.5817 50.3693 44.4665 42.2913 47.4313 29.3618Z" fill="#EDEDED"/>
<path d="M24.0186 33.8782C29.1772 33.8782 33.3591 28.0866 33.3591 20.9423C33.3591 13.798 29.1772 8.00635 24.0186 8.00635C18.8599 8.00635 14.678 13.798 14.678 20.9423C14.678 28.0866 18.8599 33.8782 24.0186 33.8782Z" fill="white"/>
<path d="M23.8703 33.0256C16.0494 33.0256 9.0811 34.916 4.41083 37.8442C8.74751 43.9971 15.9012 48.0002 24.0186 48.0002C32.0618 48.0002 39.1784 44.0341 43.5151 37.9924C38.8819 34.953 31.8023 33.0256 23.8703 33.0256Z" fill="white"/>
<path d="M25.4271 39.2525H22.573C20.6085 39.2525 19.0147 37.6587 19.0147 35.6942V27.5769C19.0147 25.6124 20.6085 24.0186 22.573 24.0186H25.4271C27.3915 24.0186 28.9854 25.6124 28.9854 27.5769V35.6942C28.9854 37.6587 27.3915 39.2525 25.4271 39.2525Z" fill="white"/>
<path d="M16.1236 21.6834C16.4201 23.7591 15.9383 25.5382 15.0858 25.6865C14.2333 25.8347 13.3066 24.278 13.0472 22.2023C12.7877 20.1266 13.2695 18.3104 14.085 18.1622C14.9375 18.0139 15.8641 19.6077 16.1236 21.6834Z" fill="white"/>
<path d="M31.8765 21.6834C31.5799 23.7591 32.0618 25.5382 32.9143 25.6865C33.7668 25.8347 34.6935 24.278 34.9529 22.2023C35.2494 20.1266 34.7676 18.3475 33.9151 18.1992C33.0626 18.051 32.1359 19.6077 31.8765 21.6834Z" fill="white"/>
<path d="M15.0116 20.4232C14.7151 18.3476 14.3815 16.2719 14.0849 14.1962C13.9737 13.4549 13.8626 12.6394 14.122 11.9352C14.3815 11.231 15.1969 10.675 15.9012 10.9344C15.6046 9.48887 17.1985 8.41396 18.607 7.96917C20.9421 7.15373 23.4255 6.74601 25.8718 7.0796C28.3182 7.41319 30.6904 8.48809 32.3583 10.3043C32.8772 10.8974 33.322 11.5275 33.5815 12.2688C34.0633 13.6773 33.7668 15.234 33.4332 16.7167C33.1737 17.8657 32.9514 19.0518 32.6919 20.2008C32.6178 20.4603 32.5807 20.7568 32.3954 20.9421C32.0988 21.2757 31.617 21.2757 31.1722 21.2757C26.539 21.2757 21.9058 21.3128 17.2726 21.3128C16.4201 21.3128 15.271 21.0904 15.1598 20.2379" fill="white"/>
</g>
<defs>
<clipPath id="clip0_3901_16782">
<rect width="48" height="48" fill="white"/>
</clipPath>
</defs>
</svg>
