<svg xmlns="http://www.w3.org/2000/svg" width="250" height="250" viewBox="0 0 250 250" fill="none">
<rect width="250" height="250" fill="white"/>
<path d="M68.0232 30.0093C68.0232 30.0093 63.9236 30.4306 61.7963 33.5208C59.669 36.6111 59.8681 39.6366 59.8681 39.6366V50.7477H58.3542C58.3542 50.7477 57.0834 50.8148 57.0834 51.9444V59.0023C57.0834 59.0023 57.0834 60.1366 58.2176 60.1366H59.9422V63.6088H58.419C58.419 63.6088 57 63.5972 57 65.0278V71.9282C57 71.9282 56.9769 73.1134 58.1852 73.1134H59.8982V80.3241H58.2547C58.2547 80.3241 57.1528 80.3565 57.1528 81.4259V88.5116C57.1528 88.5116 57.1528 89.7593 58.4005 89.7593C58.882 89.7593 59.4098 89.8079 59.8982 89.8518V201.139C59.8982 201.139 59.6667 206.725 62.9445 209.134C66.2223 211.544 70.3102 211.065 70.3102 211.065H148.343C148.343 211.065 151.148 211.153 154.218 208.917C157.287 206.681 157.023 201.683 157.023 201.683V38.8472C157.023 38.8472 157.282 37.1273 155.315 33.7176C153.347 30.3079 148.431 30.2454 148.431 30.2454L104.488 30L68.0232 30.0093Z" fill="white"/>
<path d="M84 185V189.824C83.9991 190.137 84.0601 190.448 84.1796 190.738C84.2991 191.027 84.4747 191.29 84.6963 191.512C84.9179 191.734 85.1811 191.909 85.4708 192.029C85.7605 192.148 86.0709 192.209 86.3843 192.208H134.227C134.54 192.209 134.851 192.148 135.14 192.029C135.43 191.909 135.693 191.734 135.915 191.512C136.136 191.29 136.312 191.027 136.431 190.738C136.551 190.448 136.612 190.137 136.611 189.824V185C136.612 185.313 136.551 185.624 136.432 185.914C136.312 186.204 136.137 186.467 135.915 186.689C135.693 186.911 135.43 187.086 135.141 187.206C134.851 187.326 134.54 187.387 134.227 187.387H86.3843C86.0708 187.387 85.7603 187.326 85.4706 187.206C85.1809 187.086 84.9177 186.911 84.6962 186.689C84.4746 186.467 84.2991 186.204 84.1796 185.914C84.0601 185.624 83.9991 185.313 84 185Z" fill="#FEFACC"/>
<path d="M68.1412 30C66.9212 29.9994 65.7131 30.2393 64.586 30.7059C63.4588 31.1726 62.4346 31.8568 61.5721 32.7196C60.7096 33.5823 60.0256 34.6066 59.5592 35.7339C59.0928 36.8612 58.8533 38.0694 58.8542 39.2894V50.5509H57.9282C57.4172 50.5534 56.9278 50.7576 56.5666 51.1192C56.2055 51.4808 56.0018 51.9704 56 52.4815V59.3287C56.0018 59.8398 56.2055 60.3294 56.5666 60.691C56.9278 61.0526 57.4172 61.2568 57.9282 61.2593H58.8542V63.4769H57.9282C57.4176 63.4793 56.9285 63.6832 56.5675 64.0443C56.2064 64.4054 56.0024 64.8944 56 65.4051V72.2569C56.0024 72.7676 56.2064 73.2566 56.5675 73.6177C56.9285 73.9788 57.4176 74.1828 57.9282 74.1852H58.8542V79.9815H57.9282C57.4174 79.9845 56.9283 80.189 56.5673 80.5504C56.2063 80.9119 56.0024 81.4012 56 81.912V88.7616C56.0018 89.2726 56.2055 89.7623 56.5666 90.1238C56.9278 90.4854 57.4172 90.6897 57.9282 90.6921H58.8542V202.868C58.8529 204.088 59.0923 205.296 59.5586 206.424C60.0248 207.551 60.7088 208.576 61.5714 209.439C62.434 210.301 63.4583 210.986 64.5856 211.452C65.7129 211.919 66.9212 212.158 68.1412 212.157H147.924C149.144 212.158 150.352 211.919 151.479 211.452C152.607 210.986 153.631 210.301 154.493 209.439C155.356 208.576 156.04 207.551 156.506 206.424C156.972 205.296 157.212 204.088 157.211 202.868V39.2894C157.212 38.0693 156.972 36.861 156.506 35.7336C156.04 34.6061 155.356 33.5817 154.493 32.7189C153.631 31.8561 152.607 31.1718 151.479 30.7053C150.352 30.2388 149.144 29.9991 147.924 30H68.1412ZM68.1412 31.2176H147.924C148.985 31.2133 150.037 31.4192 151.018 31.8232C151.999 32.2273 152.891 32.8217 153.642 33.5721C154.392 34.3224 154.987 35.2139 155.391 36.1952C155.796 37.1764 156.002 38.228 155.998 39.2894V202.868C156.002 203.93 155.796 204.981 155.392 205.963C154.988 206.944 154.393 207.836 153.642 208.587C152.892 209.337 152 209.932 151.018 210.336C150.037 210.741 148.985 210.946 147.924 210.942H68.1412C67.0799 210.946 66.0283 210.74 65.047 210.336C64.0658 209.931 63.1743 209.337 62.4239 208.586C61.6736 207.835 61.0792 206.944 60.6751 205.962C60.271 204.981 60.0652 203.929 60.0694 202.868V39.2894C60.0655 38.2282 60.2715 37.1768 60.6758 36.1957C61.08 35.2146 61.6744 34.3232 62.4247 33.5729C63.1751 32.8226 64.0665 32.2282 65.0476 31.8239C66.0287 31.4197 67.0801 31.2136 68.1412 31.2176ZM72.5995 36.1782C71.4567 36.1761 70.3247 36.3995 69.2684 36.8355C68.212 37.2716 67.2521 37.9118 66.4436 38.7195C65.6351 39.5271 64.9939 40.4864 64.5567 41.5422C64.1195 42.5981 63.8949 43.7299 63.8958 44.8727V197.287C63.8952 198.429 64.1197 199.56 64.5564 200.615C64.9931 201.67 65.6335 202.629 66.441 203.436C67.2485 204.244 68.2072 204.884 69.2623 205.321C70.3175 205.758 71.4483 205.982 72.5903 205.981H143.458C144.601 205.982 145.732 205.758 146.787 205.322C147.843 204.885 148.802 204.245 149.61 203.437C150.418 202.63 151.059 201.671 151.496 200.616C151.933 199.56 152.158 198.429 152.157 197.287V44.8727C152.158 43.7304 151.933 42.5991 151.496 41.5437C151.059 40.4882 150.419 39.5293 149.611 38.7218C148.803 37.9143 147.843 37.2739 146.788 36.8375C145.732 36.401 144.601 36.177 143.458 36.1782H128.31C128.178 36.1778 128.049 36.2208 127.943 36.3007C127.837 36.3805 127.76 36.4928 127.725 36.6204L127.479 37.4977C127.265 38.3626 126.865 39.1707 126.308 39.8657C126.071 40.1592 125.769 40.3943 125.427 40.5528C125.085 40.7113 124.711 40.7891 124.333 40.7801H91.7269C91.3497 40.7893 90.9754 40.7116 90.633 40.553C90.2906 40.3945 89.9893 40.1593 89.7523 39.8657C89.1949 39.1691 88.796 38.3595 88.5833 37.4931L88.3356 36.625C88.2994 36.4976 88.2226 36.3856 88.1169 36.3058C88.0112 36.226 87.8824 36.1828 87.75 36.1829L72.5995 36.1782ZM72.5995 37.3935H87.2894L87.412 37.8264C87.671 38.8708 88.1597 39.8443 88.8426 40.6759C89.1993 41.0917 89.6419 41.4253 90.1397 41.6538C90.6376 41.8824 91.179 42.0005 91.7269 42H124.333C124.881 42.0003 125.423 41.8822 125.921 41.6537C126.42 41.4251 126.863 41.0916 127.22 40.6759C127.901 39.8436 128.389 38.8703 128.648 37.8264L128.771 37.3935H143.458C144.441 37.3902 145.415 37.5813 146.324 37.9561C147.232 38.3308 148.058 38.8817 148.753 39.5769C149.448 40.2721 149.998 41.098 150.372 42.0069C150.746 42.9158 150.937 43.8898 150.933 44.8727V197.287C150.937 198.27 150.746 199.245 150.371 200.154C149.996 201.063 149.445 201.889 148.75 202.585C148.054 203.28 147.228 203.831 146.319 204.205C145.409 204.579 144.435 204.77 143.451 204.766H72.5995C71.6163 204.77 70.6421 204.579 69.733 204.204C68.824 203.83 67.998 203.279 67.3028 202.584C66.6075 201.889 66.0568 201.063 65.6822 200.154C65.3076 199.244 65.1167 198.27 65.1204 197.287V44.8727C65.1164 43.8894 65.3071 42.915 65.6816 42.0058C66.056 41.0966 66.6068 40.2705 67.3021 39.5752C67.9974 38.8799 68.8235 38.3292 69.7327 37.9547C70.6419 37.5803 71.6162 37.3895 72.5995 37.3935ZM143.062 40.8843C142.902 40.8843 142.747 40.9482 142.634 41.0619C142.52 41.1756 142.456 41.3299 142.456 41.4907V47C142.451 47.083 142.463 47.1661 142.491 47.2442C142.519 47.3224 142.563 47.394 142.62 47.4545C142.677 47.5151 142.746 47.5633 142.822 47.5963C142.898 47.6293 142.981 47.6463 143.064 47.6463C143.147 47.6463 143.229 47.6293 143.305 47.5963C143.382 47.5633 143.45 47.5151 143.507 47.4545C143.564 47.394 143.608 47.3224 143.636 47.2442C143.665 47.1661 143.676 47.083 143.671 47V41.4861C143.67 41.3257 143.605 41.1722 143.491 41.0594C143.377 40.9466 143.223 40.8836 143.062 40.8843ZM140.715 42.4653C140.554 42.4653 140.4 42.5292 140.286 42.6429C140.173 42.7567 140.109 42.9109 140.109 43.0718V47.0069C140.109 47.168 140.173 47.3225 140.286 47.4366C140.4 47.5507 140.554 47.6151 140.715 47.6157C140.877 47.6157 141.032 47.5516 141.146 47.4374C141.26 47.3233 141.324 47.1684 141.324 47.0069V43.0718C141.324 42.9117 141.261 42.7581 141.148 42.6445C141.035 42.5309 140.882 42.4665 140.722 42.4653H140.715ZM138.37 43.8912C138.21 43.8912 138.055 43.9551 137.942 44.0688C137.828 44.1826 137.764 44.3368 137.764 44.4977V47.0023C137.759 47.0853 137.771 47.1684 137.799 47.2466C137.827 47.3247 137.871 47.3963 137.928 47.4568C137.985 47.5174 138.054 47.5657 138.13 47.5986C138.206 47.6316 138.288 47.6486 138.372 47.6486C138.455 47.6486 138.537 47.6316 138.613 47.5986C138.689 47.5657 138.758 47.5174 138.815 47.4568C138.872 47.3963 138.916 47.3247 138.944 47.2466C138.972 47.1684 138.984 47.0853 138.979 47.0023V44.4954C138.979 44.3357 138.915 44.1828 138.802 44.0696C138.69 43.9565 138.537 43.8924 138.377 43.8912H138.37ZM69.5023 44.8449C69.3409 44.8449 69.186 44.909 69.0718 45.0232C68.9577 45.1374 68.8935 45.2922 68.8935 45.4537C68.8935 45.5335 68.9093 45.6126 68.9399 45.6863C68.9705 45.7601 69.0154 45.827 69.072 45.8834C69.1285 45.9397 69.1957 45.9843 69.2695 46.0147C69.3434 46.045 69.4225 46.0605 69.5023 46.0602H75.331C75.4857 46.0506 75.6309 45.9825 75.737 45.8696C75.8432 45.7566 75.9023 45.6075 75.9023 45.4525C75.9023 45.2976 75.8432 45.1484 75.737 45.0355C75.6309 44.9226 75.4857 44.8545 75.331 44.8449H69.5093H69.5023ZM77.8727 44.8449C77.7928 44.8449 77.7138 44.8607 77.6401 44.8913C77.5663 44.9219 77.4994 44.9668 77.443 45.0234C77.3867 45.0799 77.342 45.1471 77.3117 45.2209C77.2814 45.2948 77.2659 45.3739 77.2662 45.4537C77.2662 45.6146 77.3301 45.7688 77.4438 45.8826C77.5576 45.9963 77.7118 46.0602 77.8727 46.0602H79.794C79.8769 46.0653 79.9601 46.0534 80.0382 46.0252C80.1164 45.997 80.188 45.953 80.2485 45.8961C80.3091 45.8392 80.3573 45.7705 80.3903 45.6942C80.4233 45.6179 80.4403 45.5357 80.4403 45.4525C80.4403 45.3694 80.4233 45.2872 80.3903 45.2109C80.3573 45.1346 80.3091 45.0659 80.2485 45.009C80.188 44.9521 80.1164 44.9081 80.0382 44.8799C79.9601 44.8517 79.8769 44.8398 79.794 44.8449H77.8704H77.8727ZM136.025 45.4884C135.946 45.4881 135.867 45.5036 135.793 45.5339C135.719 45.5643 135.652 45.6089 135.595 45.6652C135.539 45.7216 135.494 45.7886 135.463 45.8623C135.432 45.936 135.417 46.0151 135.417 46.0949V47.0023C135.417 47.1638 135.481 47.3186 135.595 47.4328C135.709 47.547 135.864 47.6111 136.025 47.6111C136.187 47.6111 136.342 47.547 136.456 47.4328C136.57 47.3186 136.634 47.1638 136.634 47.0023V46.0949C136.634 45.935 136.57 45.7818 136.458 45.6684C136.345 45.5549 136.192 45.4902 136.032 45.4884H136.025ZM57.919 51.7662H58.8449V60.044H57.919C57.8245 60.0466 57.7304 60.0298 57.6426 59.9947C57.5548 59.9596 57.4751 59.907 57.4083 59.84C57.3415 59.7731 57.2892 59.6932 57.2544 59.6052C57.2196 59.5173 57.2031 59.4232 57.206 59.3287V52.4815C57.2031 52.387 57.2196 52.2929 57.2544 52.2049C57.2892 52.117 57.3415 52.0371 57.4083 51.9701C57.4751 51.9032 57.5548 51.8505 57.6426 51.8155C57.7304 51.7804 57.8245 51.7636 57.919 51.7662ZM57.919 64.6829H58.8449V72.9676H57.919C57.8247 72.9701 57.7308 72.9534 57.6432 72.9185C57.5555 72.8836 57.4759 72.8312 57.4092 72.7645C57.3424 72.6977 57.29 72.6181 57.2551 72.5305C57.2202 72.4428 57.2035 72.349 57.206 72.2546V65.3981C57.2031 65.3036 57.2196 65.2095 57.2544 65.1216C57.2892 65.0337 57.3415 64.9538 57.4083 64.8868C57.4751 64.8198 57.5548 64.7672 57.6426 64.7321C57.7304 64.6971 57.8245 64.6803 57.919 64.6829ZM57.919 81.1968H58.8449V89.4769H57.919C57.8245 89.4794 57.7304 89.4627 57.6426 89.4276C57.5548 89.3925 57.4751 89.3399 57.4083 89.2729C57.3415 89.2059 57.2892 89.1261 57.2544 89.0381C57.2196 88.9502 57.2031 88.8561 57.206 88.7616V81.912C57.2031 81.8175 57.2196 81.7234 57.2544 81.6355C57.2892 81.5476 57.3415 81.4677 57.4083 81.4007C57.4751 81.3337 57.5548 81.2811 57.6426 81.246C57.7304 81.211 57.8245 81.1942 57.919 81.1968ZM88.4745 149.632C88.3199 149.642 88.1747 149.71 88.0685 149.823C87.9624 149.935 87.9033 150.085 87.9033 150.24C87.9033 150.395 87.9624 150.544 88.0685 150.657C88.1747 150.769 88.3199 150.838 88.4745 150.847H131.025C131.108 150.852 131.192 150.84 131.27 150.812C131.348 150.784 131.419 150.74 131.48 150.683C131.541 150.626 131.589 150.557 131.622 150.481C131.655 150.405 131.672 150.323 131.672 150.24C131.672 150.156 131.655 150.074 131.622 149.998C131.589 149.922 131.541 149.853 131.48 149.796C131.419 149.739 131.348 149.695 131.27 149.667C131.192 149.639 131.108 149.627 131.025 149.632H88.4745ZM97.2708 157.072C97.1879 157.067 97.1048 157.079 97.0266 157.107C96.9484 157.135 96.8769 157.179 96.8163 157.236C96.7558 157.293 96.7075 157.361 96.6745 157.438C96.6415 157.514 96.6245 157.596 96.6245 157.679C96.6245 157.763 96.6415 157.845 96.6745 157.921C96.7075 157.997 96.7558 158.066 96.8163 158.123C96.8769 158.18 96.9484 158.224 97.0266 158.252C97.1048 158.28 97.1879 158.292 97.2708 158.287H119.725C119.807 158.292 119.891 158.28 119.969 158.252C120.047 158.224 120.119 158.18 120.179 158.123C120.24 158.066 120.288 157.997 120.321 157.921C120.354 157.845 120.371 157.763 120.371 157.679C120.371 157.596 120.354 157.514 120.321 157.438C120.288 157.361 120.24 157.293 120.179 157.236C120.119 157.179 120.047 157.135 119.969 157.107C119.891 157.079 119.807 157.067 119.725 157.072H97.2708ZM86.125 166.771C85.3325 166.775 84.5737 167.092 84.0133 167.652C83.4529 168.213 83.1362 168.971 83.1319 169.764V185.426C83.1368 186.218 83.4538 186.976 84.0141 187.536C84.5744 188.096 85.3329 188.412 86.125 188.417H133.72C134.512 188.412 135.27 188.096 135.831 187.536C136.391 186.976 136.708 186.218 136.713 185.426V169.764C136.709 168.971 136.392 168.213 135.832 167.652C135.271 167.092 134.512 166.775 133.72 166.771H86.125ZM86.125 167.986H133.72C133.954 167.984 134.186 168.028 134.403 168.117C134.619 168.206 134.816 168.336 134.982 168.502C135.147 168.668 135.278 168.864 135.367 169.081C135.455 169.298 135.5 169.53 135.498 169.764V185.426C135.5 185.66 135.455 185.892 135.367 186.109C135.278 186.325 135.147 186.522 134.982 186.688C134.816 186.853 134.619 186.984 134.403 187.073C134.186 187.161 133.954 187.206 133.72 187.204H86.1412C85.9071 187.206 85.675 187.161 85.4583 187.073C85.2417 186.984 85.0448 186.853 84.8793 186.688C84.7138 186.522 84.5829 186.325 84.4943 186.109C84.4058 185.892 84.3613 185.66 84.3634 185.426V169.764C84.3613 169.53 84.4058 169.298 84.4943 169.081C84.5829 168.864 84.7138 168.668 84.8793 168.502C85.0448 168.336 85.2417 168.206 85.4583 168.117C85.675 168.028 85.9071 167.984 86.1412 167.986H86.125ZM93.4259 177.782C93.3461 177.782 93.267 177.798 93.1931 177.828C93.1193 177.858 93.0521 177.903 92.9956 177.959C92.939 178.016 92.8941 178.083 92.8635 178.156C92.8329 178.23 92.8171 178.309 92.8171 178.389C92.8177 178.55 92.8822 178.704 92.9963 178.818C93.1104 178.932 93.2649 178.995 93.4259 178.995H127.174C127.334 178.995 127.489 178.931 127.602 178.818C127.716 178.704 127.78 178.55 127.78 178.389C127.78 178.228 127.716 178.074 127.602 177.96C127.489 177.846 127.334 177.782 127.174 177.782H93.4259Z" fill="#FFC800"/>
<path d="M98.7119 61.0707C98.7119 61.0707 97.3855 59.1749 95.8184 59.0313C94.2513 58.8878 93.2212 60.9735 94.7559 63.0221C96.2906 65.0707 98.6471 66.0915 98.6471 66.0915C98.6471 66.0915 101.136 65.4226 102.538 63.3508C103.941 61.279 103.897 59.7767 102.506 59.1517C101.115 58.5267 99.2003 59.9642 98.7119 61.0707Z" fill="white"/>
<path d="M95.4903 58.0001C95.1569 57.9976 94.8265 58.0635 94.5195 58.1937C94.2126 58.3239 93.9356 58.5156 93.7056 58.757C92.8514 59.6135 92.7635 60.9954 93.4926 62.338C94.2218 63.6806 95.6385 65.0417 97.944 66.4445C98.2411 66.5642 98.5729 66.5642 98.8699 66.4445C101.185 65.0417 102.608 63.6505 103.321 62.338C104.034 61.0255 103.963 59.6135 103.108 58.757C102.851 58.4823 102.531 58.2725 102.177 58.145C101.822 58.0174 101.443 57.9757 101.069 58.0232C100.438 58.1447 99.8554 58.4434 99.3885 58.8843C99.0275 59.2032 98.6987 59.5567 98.407 59.9399C98.1137 59.5573 97.7842 59.2038 97.4232 58.8843C96.9562 58.4434 96.3733 58.1447 95.7426 58.0232C95.6591 58.0097 95.5748 58.002 95.4903 58.0001ZM95.3236 59.2084C95.4011 59.2053 95.4786 59.2099 95.5551 59.2223C95.9564 59.3175 96.3254 59.5171 96.6246 59.801C97.1038 60.234 97.5192 60.7328 97.8584 61.2825C97.918 61.3732 97.9992 61.4477 98.0948 61.4993C98.1904 61.5508 98.2972 61.5778 98.4058 61.5778C98.5144 61.5778 98.6213 61.5508 98.7168 61.4993C98.8124 61.4477 98.8936 61.3732 98.9533 61.2825C99.2918 60.7358 99.7056 60.2394 100.182 59.8079C100.481 59.5237 100.85 59.324 101.252 59.2292C101.574 59.1806 101.851 59.2292 102.247 59.6228C102.71 60.0857 102.819 60.7177 102.247 61.764C101.706 62.757 100.486 64.014 98.4 65.3126C96.3167 64.014 95.0922 62.7663 94.5528 61.764C93.9834 60.7177 94.0898 60.0834 94.5528 59.6228C94.7425 59.3921 95.0151 59.245 95.3121 59.213L95.3236 59.2084Z" fill="#E10054"/>
<path d="M114.712 70.0694C114.712 70.0694 113.386 68.1735 111.818 68.0323C110.251 67.8911 109.221 69.9721 110.756 72.0208C112.291 74.0694 114.647 75.0902 114.647 75.0902C114.647 75.0902 117.136 74.4212 118.538 72.3495C119.941 70.2777 119.897 68.7777 118.506 68.1527C117.115 67.5277 115.203 68.9513 114.712 70.0694Z" fill="white"/>
<path d="M111.483 67C111.151 66.9983 110.822 67.0644 110.517 67.1941C110.211 67.3239 109.935 67.5146 109.706 67.7547C108.851 68.6088 108.763 69.9908 109.493 71.3357C110.206 72.6459 111.636 74.0371 113.944 75.4422C114.241 75.5607 114.573 75.5607 114.87 75.4422C117.185 74.0371 118.608 72.6459 119.321 71.3357C120.053 69.9908 119.963 68.6088 119.108 67.7547C118.851 67.4798 118.531 67.2699 118.177 67.1419C117.823 67.014 117.443 66.9717 117.069 67.0186C116.438 67.1401 115.855 67.4388 115.388 67.8797C115.027 68.1993 114.697 68.5536 114.405 68.9375C114.114 68.5531 113.785 68.1987 113.423 67.8797C112.956 67.4388 112.373 67.1401 111.743 67.0186C111.657 67.0063 111.57 67.0001 111.483 67ZM111.326 68.2176C111.403 68.2153 111.481 68.2208 111.557 68.2338C111.959 68.3273 112.328 68.5263 112.627 68.8102C113.106 69.2433 113.522 69.742 113.861 70.2917C113.92 70.3824 114.002 70.4569 114.097 70.5085C114.193 70.56 114.3 70.587 114.408 70.587C114.517 70.587 114.624 70.56 114.719 70.5085C114.815 70.4569 114.896 70.3824 114.956 70.2917C115.294 69.745 115.708 69.2486 116.185 68.8172C116.484 68.5338 116.853 68.3342 117.254 68.2385C117.576 68.1898 117.854 68.2385 118.25 68.6343C118.713 69.0973 118.821 69.7292 118.25 70.7732C117.708 71.7686 116.488 73.0232 114.402 74.3218C112.319 73.0232 111.094 71.7755 110.555 70.7732C109.986 69.7292 110.092 69.0926 110.555 68.6343C110.65 68.5175 110.767 68.4205 110.899 68.349C111.031 68.2775 111.176 68.2329 111.326 68.2176Z" fill="#E10054"/>
<path d="M127.712 61.0707C127.712 61.0707 126.386 59.1749 124.818 59.0313C123.251 58.8878 122.221 60.9712 123.756 63.0221C125.291 65.073 127.647 66.0892 127.647 66.0892C127.647 66.0892 130.145 65.4225 131.534 63.3508C132.923 61.279 132.892 59.7767 131.501 59.1517C130.11 58.5267 128.193 59.9642 127.712 61.0707Z" fill="white"/>
<path d="M124.491 58C124.158 57.9981 123.827 58.0645 123.52 58.1951C123.213 58.3257 122.936 58.5177 122.707 58.7593C121.852 59.6135 121.762 60.9954 122.494 62.3403C123.225 63.6852 124.637 65.0417 126.945 66.4468C127.242 66.5665 127.574 66.5665 127.871 66.4468C130.186 65.0417 131.607 63.6528 132.322 62.3403C133.038 61.0278 132.963 59.6135 132.109 58.7593C131.851 58.4849 131.532 58.2753 131.178 58.1474C130.823 58.0195 130.444 57.9769 130.07 58.0232C129.44 58.1466 128.858 58.4451 128.389 58.8843C128.028 59.2039 127.698 59.5583 127.406 59.9422C127.115 59.5577 126.786 59.2033 126.424 58.8843C125.956 58.4451 125.374 58.1466 124.744 58.0232C124.656 58.0116 124.577 58.0047 124.491 58ZM124.325 59.2107C124.402 59.2076 124.48 59.2122 124.556 59.2246C124.957 59.3208 125.326 59.5203 125.626 59.8033C126.104 60.237 126.519 60.7357 126.859 61.2848C126.919 61.3755 127 61.45 127.096 61.5015C127.191 61.5531 127.298 61.5801 127.407 61.5801C127.515 61.5801 127.622 61.5531 127.718 61.5015C127.813 61.45 127.895 61.3755 127.954 61.2848C128.293 60.7385 128.707 60.2422 129.183 59.8102C129.482 59.5263 129.851 59.3273 130.253 59.2338C130.575 59.1829 130.852 59.2338 131.248 59.6274C131.711 60.0903 131.82 60.7223 131.248 61.7686C130.709 62.7616 129.489 64.0186 127.401 65.3149C125.318 64.0186 124.095 62.7686 123.554 61.7686C122.987 60.7223 123.091 60.088 123.554 59.6274C123.743 59.3967 124.016 59.2496 124.313 59.2176L124.325 59.2107Z" fill="#E10054"/>
<path d="M122.714 121.071C122.714 121.071 121.387 119.175 119.82 119.031C118.253 118.888 117.221 120.971 118.755 123.022C120.29 125.073 122.646 126.089 122.646 126.089C122.646 126.089 125.135 125.423 126.538 123.351C127.94 121.279 127.896 119.777 126.505 119.152C125.114 118.527 123.195 119.964 122.714 121.071Z" fill="white"/>
<path d="M119.49 118C119.157 117.998 118.826 118.063 118.519 118.194C118.212 118.324 117.935 118.516 117.705 118.757C116.851 119.611 116.763 120.993 117.495 122.338C118.226 123.683 119.638 125.039 121.944 126.445C122.241 126.564 122.573 126.564 122.87 126.445C125.184 125.039 126.608 123.651 127.321 122.338C128.034 121.026 127.962 119.611 127.108 118.757C126.85 118.482 126.531 118.273 126.176 118.145C125.822 118.017 125.443 117.974 125.069 118.021C124.439 118.144 123.856 118.443 123.388 118.882C123.026 119.201 122.698 119.555 122.407 119.94C122.114 119.556 121.785 119.202 121.423 118.882C120.955 118.443 120.372 118.144 119.742 118.021C119.659 118.009 119.574 118.002 119.49 118ZM119.326 119.208C119.403 119.205 119.481 119.21 119.557 119.222C119.957 119.318 120.326 119.518 120.624 119.801C121.103 120.234 121.519 120.733 121.858 121.282C121.918 121.373 121.999 121.447 122.095 121.498C122.19 121.549 122.297 121.576 122.405 121.576C122.514 121.576 122.62 121.549 122.716 121.498C122.812 121.447 122.893 121.373 122.953 121.282C123.292 120.736 123.706 120.24 124.182 119.808C124.482 119.525 124.851 119.326 125.252 119.232C125.573 119.181 125.851 119.232 126.247 119.625C126.71 120.088 126.821 120.72 126.247 121.766C125.705 122.759 124.485 124.014 122.4 125.313C120.316 124.014 119.092 122.766 118.552 121.766C117.983 120.72 118.089 120.086 118.552 119.625C118.744 119.395 119.017 119.248 119.314 119.215L119.326 119.208Z" fill="#E10054"/>
<path d="M41.9445 77H104.519C105.431 76.9979 106.335 77.176 107.179 77.5243C108.022 77.8725 108.788 78.384 109.434 79.0292C110.079 79.6745 110.59 80.4409 110.939 81.2844C111.287 82.1279 111.465 83.0319 111.463 83.9445V137.049C111.465 137.961 111.286 138.865 110.938 139.708C110.59 140.552 110.078 141.318 109.433 141.963C108.788 142.608 108.022 143.12 107.178 143.468C106.335 143.817 105.431 143.995 104.519 143.993H41.9445C41.032 143.995 40.1281 143.817 39.2848 143.468C38.4414 143.12 37.6751 142.608 37.0299 141.963C36.3847 141.318 35.8732 140.552 35.5249 139.708C35.1766 138.865 34.9982 137.961 35 137.049V83.9445C34.9979 83.0319 35.176 82.1279 35.5243 81.2844C35.8725 80.4409 36.384 79.6745 37.0292 79.0292C37.6745 78.384 38.4409 77.8725 39.2844 77.5243C40.1279 77.176 41.0319 76.9979 41.9445 77Z" fill="white"/>
<path d="M41.5764 76C40.5844 75.9997 39.6021 76.1949 38.6855 76.5743C37.769 76.9538 36.9362 77.5102 36.2348 78.2116C35.5333 78.9131 34.977 79.7458 34.5975 80.6624C34.218 81.5789 34.0228 82.5613 34.0231 83.5532V85.1296C34.0087 85.184 34.0009 85.24 34 85.2963C34.0007 85.3518 34.0085 85.4071 34.0231 85.4606V136.655C34.0228 137.647 34.218 138.629 34.5975 139.546C34.977 140.463 35.5333 141.295 36.2348 141.997C36.9362 142.698 37.769 143.255 38.6855 143.634C39.6021 144.013 40.5844 144.209 41.5764 144.208H104.15C105.142 144.209 106.125 144.013 107.041 143.634C107.958 143.255 108.791 142.698 109.492 141.997C110.194 141.295 110.75 140.463 111.129 139.546C111.509 138.629 111.704 137.647 111.704 136.655V83.5532C111.704 82.5613 111.509 81.5789 111.129 80.6624C110.75 79.7458 110.194 78.9131 109.492 78.2116C108.791 77.5102 107.958 76.9538 107.041 76.5743C106.125 76.1949 105.142 75.9997 104.15 76H41.5764ZM41.5764 77.2153H104.15C104.984 77.2119 105.809 77.3735 106.58 77.6909C107.35 78.0082 108.05 78.4749 108.64 79.0641C109.229 79.6533 109.696 80.3533 110.013 81.1238C110.33 81.8943 110.492 82.72 110.488 83.5532V84.6875H35.2407V83.5532C35.2358 82.7193 35.3963 81.8927 35.7128 81.1212C36.0293 80.3496 36.4956 79.6485 37.0848 79.0583C37.6739 78.468 38.3742 78.0004 39.1452 77.6825C39.9161 77.3646 40.7425 77.2026 41.5764 77.206V77.2153ZM95.713 80.2731C95.5202 80.275 95.3322 80.3338 95.1728 80.4423C95.0134 80.5507 94.8896 80.7039 94.8171 80.8825C94.7446 81.0612 94.7266 81.2573 94.7653 81.4462C94.804 81.6351 94.8978 81.8083 95.0347 81.9439C95.1717 82.0796 95.3458 82.1718 95.535 82.2087C95.7243 82.2457 95.9202 82.2258 96.0982 82.1516C96.2761 82.0774 96.4281 81.9522 96.5351 81.7917C96.642 81.6313 96.6991 81.4428 96.6991 81.25C96.6988 81.121 96.673 80.9934 96.6232 80.8744C96.5734 80.7554 96.5006 80.6474 96.409 80.5567C96.3174 80.4659 96.2087 80.3941 96.0893 80.3455C95.9698 80.2968 95.8419 80.2722 95.713 80.2731ZM100.271 80.2731C100.078 80.275 99.8901 80.3338 99.7307 80.4423C99.5713 80.5507 99.4475 80.7039 99.375 80.8825C99.3025 81.0612 99.2844 81.2573 99.3232 81.4462C99.3619 81.6351 99.4556 81.8083 99.5926 81.9439C99.7296 82.0796 99.9037 82.1718 100.093 82.2087C100.282 82.2457 100.478 82.2258 100.656 82.1516C100.834 82.0774 100.986 81.9522 101.093 81.7917C101.2 81.6313 101.257 81.4428 101.257 81.25C101.257 81.121 101.231 80.9934 101.181 80.8744C101.131 80.7554 101.059 80.6474 100.967 80.5567C100.875 80.4659 100.767 80.3941 100.647 80.3455C100.528 80.2968 100.4 80.2722 100.271 80.2731ZM104.669 80.2731C104.409 80.2747 104.159 80.3794 103.976 80.5643C103.793 80.7493 103.69 80.9994 103.691 81.2598C103.692 81.5202 103.796 81.7697 103.98 81.9536C104.165 82.1375 104.414 82.2407 104.675 82.2407C104.935 82.2407 105.185 82.1375 105.369 81.9536C105.554 81.7697 105.658 81.5202 105.659 81.2598C105.659 80.9994 105.557 80.7493 105.373 80.5643C105.19 80.3794 104.941 80.2747 104.681 80.2731H104.669ZM35.2407 85.9028H110.488V136.655C110.492 137.488 110.33 138.314 110.013 139.084C109.695 139.854 109.229 140.554 108.639 141.143C108.05 141.732 107.35 142.199 106.58 142.516C105.809 142.833 104.984 142.994 104.15 142.991H41.5764C40.7434 142.994 39.9178 142.833 39.1475 142.516C38.3772 142.199 37.6773 141.732 37.0882 141.143C36.4992 140.554 36.0326 139.854 35.7155 139.084C35.3984 138.314 35.2371 137.488 35.2407 136.655V85.9028Z" fill="#FFC800"/>
<path d="M68.2339 218.893H58.6761C58.6761 218.893 55.5395 215.624 54.5094 213.279C53.4793 210.934 56.1761 210.733 57.6228 211.92C59.0696 213.108 55.6483 204.687 54.9909 201.705C54.3335 198.724 52.7108 193.814 55.9562 195.261C59.2015 196.708 64.0418 204.414 64.0418 204.414C64.0418 204.414 66.0557 201.562 66.4284 201.189C66.8011 200.816 68.7432 198.495 68.7432 198.495C69.326 199.499 69.6065 200.65 69.5511 201.809L69.4261 203.661C69.4261 203.661 73.2108 200.221 74.8636 199.453C76.5164 198.684 77.4284 198.136 77.1576 201.684C76.8867 205.233 73.2525 211.296 73.2525 211.296C73.2525 211.296 76.5071 209.777 77.933 209.497C79.3589 209.217 78.8265 211.015 78.5048 212.147C78.183 213.279 73.8404 218.74 73.8404 218.74L68.2339 218.893Z" fill="white"/>
<path d="M54.5659 194.005C54.3129 194.002 54.0626 194.057 53.8344 194.167C53.5354 194.321 53.3008 194.576 53.1724 194.887C53.0568 195.181 52.9986 195.496 53.0011 195.813C52.9733 197.123 53.4918 198.889 53.9525 200.949C54.7187 204.37 56.177 208.863 56.8113 210.785L56.5937 210.653C56.1725 210.381 55.6996 210.2 55.2048 210.12C54.736 210.037 54.2531 210.142 53.8622 210.414C53.6649 210.574 53.5061 210.775 53.3979 211.005C53.2897 211.234 53.2347 211.485 53.2372 211.738C53.2474 212.382 53.4016 213.014 53.6886 213.59C54.9316 216.387 57.5427 218.854 57.5427 218.854C57.6567 218.962 57.8073 219.022 57.964 219.023H67.265L73.7812 218.975C73.8639 218.974 73.9457 218.957 74.0213 218.923C74.097 218.89 74.165 218.841 74.221 218.78C74.221 218.78 75.2187 217.701 76.3506 216.192C77.4826 214.683 78.7488 212.736 79.3251 210.896C79.4987 210.456 79.511 209.969 79.3599 209.521C79.2717 209.326 79.139 209.154 78.9726 209.019C78.8063 208.885 78.6107 208.791 78.4015 208.745C78.0113 208.665 77.6089 208.665 77.2187 208.745C76.794 208.826 76.3762 208.939 75.9687 209.083C75.2588 209.328 74.5632 209.612 73.8853 209.935C74.089 209.56 74.2951 209.174 74.5034 208.778C75.3136 207.245 76.1238 205.613 76.7279 204.148C77.3321 202.683 77.7603 201.458 77.7187 200.468C77.6839 199.606 77.4224 198.873 76.7927 198.5C76.4842 198.325 76.1307 198.244 75.7765 198.269C75.3859 198.296 75.0023 198.386 74.64 198.535C73.3159 199.046 71.677 200.229 69.6932 201.993C69.7071 201.53 69.7187 201.046 69.7094 200.539C69.7165 199.882 69.649 199.226 69.508 198.583C69.4569 198.287 69.3106 198.014 69.0913 197.808C68.9325 197.67 68.7297 197.594 68.5196 197.593C68.3248 197.596 68.1361 197.661 67.9802 197.778C67.5497 198.081 67.1376 198.581 66.6284 199.227C66.1191 199.873 65.5543 200.644 65.0312 201.387C64.508 202.13 64.015 202.854 63.6585 203.389C62.9802 202.296 62.17 200.998 61.2719 199.701C59.67 197.387 57.9062 195.127 56.0011 194.359C55.6228 194.193 55.2243 194.078 54.8159 194.016C54.7284 194.005 54.6402 194 54.552 194L54.5659 194.005ZM54.5798 195.238C54.9178 195.268 55.2486 195.354 55.5589 195.491C56.8784 196.023 58.721 198.139 60.2858 200.398C61.3251 201.903 63.7858 205.861 63.9687 206.125C64.4376 206.739 64.6686 207.502 64.6191 208.273C63.5557 210.24 62.7808 212.35 62.3182 214.537C62.299 214.618 62.2964 214.701 62.3107 214.783C62.325 214.865 62.3558 214.943 62.4013 215.012C62.4468 215.081 62.5059 215.141 62.5751 215.186C62.6443 215.232 62.7221 215.263 62.8038 215.278C62.8854 215.292 62.9691 215.29 63.0498 215.271C63.1305 215.252 63.2065 215.217 63.2731 215.167C63.3397 215.118 63.3955 215.055 63.4371 214.984C63.4787 214.912 63.5052 214.832 63.515 214.75C63.515 214.75 64.2626 211.278 65.7071 208.826C66.6707 206.993 67.9254 205.329 69.4224 203.898L69.4525 203.87C71.8876 201.597 73.8738 200.144 75.0913 199.674C75.7001 199.442 76.0404 199.475 76.1793 199.558C76.3182 199.641 76.4826 199.875 76.508 200.53C76.5288 201.06 76.1886 202.299 75.6076 203.697C75.0265 205.095 74.2325 206.706 73.4316 208.213C71.8298 211.238 70.2094 213.894 70.2094 213.894C70.1679 213.962 70.1402 214.037 70.128 214.116C70.1157 214.195 70.119 214.275 70.1379 214.353C70.1567 214.43 70.1905 214.503 70.2376 214.568C70.2846 214.632 70.3439 214.687 70.412 214.728C70.48 214.77 70.5556 214.797 70.6344 214.809C70.7132 214.822 70.7937 214.818 70.8711 214.8C70.9486 214.781 71.0217 214.747 71.0861 214.7C71.1504 214.653 71.2049 214.594 71.2464 214.525C71.2464 214.525 71.9409 213.396 72.8668 211.773C72.9399 211.763 73.0104 211.739 73.0751 211.704C74.132 211.132 75.2299 210.64 76.3599 210.231C77.1307 209.975 77.8761 209.87 78.1307 209.931C78.258 209.958 78.2256 209.951 78.2372 209.977C78.2653 210.165 78.2421 210.358 78.17 210.535C77.677 212.118 76.464 214.007 75.3738 215.463C74.7858 216.26 74.1577 217.026 73.4918 217.759L67.2951 217.806H58.214C57.9617 217.558 55.8113 215.41 54.7812 213.095C54.5748 212.683 54.4573 212.233 54.4363 211.773C54.4363 211.505 54.5057 211.438 54.5705 211.389C54.712 211.312 54.8767 211.29 55.0335 211.326C55.3633 211.384 55.6782 211.508 55.9594 211.69L57.5798 212.683C57.6862 212.748 57.81 212.779 57.9346 212.771C58.0591 212.764 58.1783 212.718 58.2761 212.641C58.3738 212.563 58.4454 212.457 58.4811 212.338C58.5167 212.218 58.5148 212.091 58.4756 211.972C58.4756 211.972 56.0566 204.766 55.1446 200.685C54.6816 198.59 54.2001 196.75 54.2187 195.838C54.2162 195.676 54.2412 195.515 54.2927 195.361C54.3275 195.278 54.339 195.275 54.3714 195.259C54.4398 195.24 54.5113 195.233 54.5821 195.241L54.5798 195.238ZM68.3691 199.132C68.454 199.606 68.4997 200.086 68.5057 200.567C68.5265 201.611 68.4617 202.713 68.4316 203.167C67.3505 204.21 66.3935 205.376 65.5798 206.639C65.4352 206.205 65.2277 205.795 64.964 205.421C64.8043 205.19 64.6052 204.882 64.3761 204.521C64.6631 204.086 65.2418 203.213 66.0358 202.086C66.5543 201.352 67.1052 200.595 67.5937 199.979C67.8317 199.679 68.0908 199.396 68.3691 199.132Z" fill="#FFC800"/>
<path d="M47.7399 218.001C47.54 218.012 47.3519 218.099 47.2143 218.244C47.0767 218.39 47 218.582 47 218.782C47 218.983 47.0767 219.175 47.2143 219.32C47.3519 219.466 47.54 219.553 47.7399 219.564H207.286C207.392 219.569 207.499 219.554 207.598 219.517C207.698 219.48 207.79 219.424 207.867 219.351C207.944 219.277 208.005 219.189 208.047 219.092C208.089 218.994 208.111 218.889 208.111 218.782C208.111 218.676 208.089 218.571 208.047 218.473C208.005 218.376 207.944 218.287 207.867 218.214C207.79 218.141 207.698 218.085 207.598 218.048C207.499 218.011 207.392 217.995 207.286 218.001H47.7399Z" fill="#272727"/>
<path opacity="0.2" d="M242.409 219.424C242.409 222.162 219.724 224.685 183.196 226.009C146.668 227.333 102.039 227.252 66.6892 225.796C31.3397 224.34 10.8466 221.736 13.18 219L127.705 219.421L242.409 219.424Z" fill="#FCE500"/>
<path d="M200.975 138.074C200.975 138.074 195.757 136.888 193.125 136.34C190.493 135.791 188.544 135.682 187.273 137.766C186.002 139.849 180 152.606 180 152.606C180 152.606 183.419 156.793 183.704 158.592C183.988 160.391 183.727 162.56 183.727 162.56C183.727 162.56 183.727 163.173 185.262 163.414C186.796 163.655 189.294 163.962 189.294 163.962C189.294 163.962 189.47 166.972 189.843 167.951C190.215 168.93 192.319 170.266 193.722 170.386C195.125 170.506 196.924 169.99 197.866 170.472C198.808 170.953 203.016 171.548 206.611 171.108C210.206 170.668 214.898 170.143 215.535 166.921C216.171 163.699 213.889 154.421 213.889 154.421C213.889 154.421 211.15 142.999 210.273 140.874C209.396 138.749 208.718 137.365 206.262 137.236C203.806 137.106 200.979 138.069 200.979 138.069L200.975 138.074Z" fill="white"/>
<path d="M154.621 115.009L154.211 115.433C154.211 115.433 151.35 114.6 148.452 118.454C145.554 122.308 145.211 128.984 147.498 134.363C149.785 139.743 159.554 148.556 161.729 150.845C163.905 153.134 163.771 153.449 163.771 153.449C162.021 154.086 165.896 158.123 160.049 160.421C153.199 163.118 151.885 164.887 151.885 164.887C151.885 164.887 151.885 169.398 153.542 170.1C155.199 170.801 162.697 169.081 162.697 169.081C162.697 169.081 162.234 171.609 161.338 177.384C160.442 183.16 160.375 183.535 162.741 184.183C165.107 184.831 166.058 183.78 167.111 181.891C168.165 180.002 173.262 167.053 173.262 167.053C173.262 167.053 182.174 164.914 183.468 163.134C184.762 161.354 183.658 158.225 181.554 155.148C179.449 152.072 176.271 146.352 176.271 146.352C176.271 146.352 175.942 143.218 176.75 140.565C177.558 137.912 179.125 128.859 179.125 128.859C179.125 128.859 181.336 124.488 182.174 123.6C183.012 122.711 181.688 121.037 181.688 121.037C181.688 121.037 178.711 122.657 169.297 121.234C159.882 119.81 154.621 115 154.621 115V115.009Z" fill="#4074C1"/>
<path d="M155.896 39.0011C154.028 38.971 152.193 39.5682 150.47 40.9941C147.563 43.3946 147.332 44.2673 147.332 44.2673C147.225 44.1863 145.982 39.2233 145.017 41.839C144.051 44.4548 147.04 51.4964 147.068 51.714C147.095 51.9316 148.605 59.4826 147.762 63.8529C146.92 68.2233 139.075 74.9941 139.075 74.9941C139.075 74.9941 131.204 80.3367 129.389 81.6052C127.575 82.8738 127.744 84.1145 127.744 84.1145C127.744 84.1145 136.322 81.39 137.563 80.9571C138.804 80.5242 143.984 77.5312 143.984 77.5312C143.984 77.5312 143.598 74.1284 144.554 73.6099C145.51 73.0914 148.466 72.64 149.977 72.9617C151.489 73.2835 151.38 73.3668 152.945 72.5312C154.51 71.6955 159.137 67.8367 159.137 67.8367C159.137 67.8367 154.795 65.0034 152.635 60.9849C150.475 56.9664 149.163 53.9964 149.128 51.6238C149.093 49.2511 149.748 47.7117 151.609 49.383C153.47 51.0543 157.114 52.7557 158.651 53.0636C160.188 53.3715 160.734 55.0867 161.538 56.1122C162.341 57.1377 162.695 59.5381 162.806 60.8066C162.917 62.0752 162.94 64.0983 164.695 65.934C166.45 67.7696 171.357 71.5705 173.785 73.4594C176.214 75.3483 181.718 78.8552 182.987 81.2025C184.255 83.5497 187.22 90.7789 187.22 90.7789C187.22 90.7789 189.003 88.434 189.947 86.7326C190.892 85.0312 192.51 79.0937 192.031 75.4015C191.551 71.7094 190.734 66.096 185.609 61.8599C180.484 57.6238 173.311 56.1099 169.345 52.7927C168.209 51.8414 166.94 51.309 166.535 50.9409C165.533 50.015 167.082 50.0752 167.693 48.883C168.554 47.2094 169.741 44.809 167.961 44.1886C166.181 43.5682 164.966 44.971 163.32 43.5404C161.674 42.1099 162.998 41.2488 159.788 39.8992C158.56 39.3533 157.239 39.0484 155.896 39.0011ZM144.808 87.7997C143.188 87.8298 141.406 88.5289 141.406 88.5289C141.406 88.5289 139.57 89.3113 139.322 89.4733C139.075 89.6353 128.975 93.9779 126.035 94.9779C123.095 95.9779 124.389 95.4617 123.85 97.6747C123.311 99.8877 121.612 105.545 125.387 111.54C129.163 117.536 141.359 116.235 143.626 115.858C145.892 115.48 155.225 113.249 157.033 109.626C158.841 106.003 156.223 96.8113 156.223 96.8113L153.582 90.1747C153.582 90.1747 147.998 88.7997 146.297 88.0427C145.827 87.8576 145.322 87.7747 144.818 87.7997H144.808Z" fill="#9A702D"/>
<path d="M150.324 47.0162C149.739 47.9086 149.368 48.9237 149.239 49.9827C149.11 51.0417 149.227 52.1161 149.58 53.1227C150.756 56.6898 154.324 63.1065 154.442 63.169C154.56 63.2315 156.578 64.4028 157.106 65.1713C157.634 65.9398 158.837 67.6481 158.837 67.6481C158.837 67.6481 153.405 71.9005 152.928 72.1204C152.451 72.3403 151.77 72.9097 151.393 72.5833C151.016 72.2569 148.127 72.1667 147.273 72.3866C146.418 72.6065 143.634 72.7361 143.787 74.0069C143.939 75.2778 144.249 76.8333 144.249 76.8333C144.249 76.8333 125.74 85.2083 125.613 85.2431C125.486 85.2778 116.78 87.9607 115.113 90.4815C113.446 93.0023 113.136 94.9653 117.87 95.5556C122.604 96.1458 130.011 93.1134 130.011 93.1134C130.011 93.1134 140.576 88.4838 141.365 88.0208C142.155 87.5579 149.236 88.8773 151.275 90.081C153.314 91.2847 155.442 92.7778 156.136 95.8264C156.83 98.875 158.504 103.389 157.583 106.546C156.662 109.704 156.425 110.097 155.37 110.907C154.314 111.718 153.287 113.275 153.9 114.438C154.513 115.6 163.655 120.456 168.171 121.431C172.687 122.405 176.041 121.991 178.914 121.563C181.787 121.134 184.766 119.062 185.05 116.979C185.335 114.896 182.18 114.306 181.675 112.222C181.171 110.139 179.307 101.373 179.659 98.3912C180.011 95.4097 180.317 94.7292 181.412 96.8565C182.506 98.9838 187.418 106.308 188.261 109.65C189.104 112.993 191.615 121.269 192.974 123.942C194.333 126.616 194.342 127.769 194.895 128.551C195.449 129.333 195.101 131.396 195.034 131.56C194.967 131.725 194.729 133.095 195.21 133.62C195.692 134.146 195.231 134.762 195.905 134.63C196.578 134.498 197.131 135.419 197.703 134.738C198.275 134.058 199.499 136.053 200.18 135.433C200.861 134.813 200.442 130.743 200.509 130.479C200.576 130.215 201.078 130.523 201.435 128.968C201.791 127.412 201.634 127.433 200.56 127.169C199.486 126.905 197.863 125.35 197.863 125.13C197.863 124.91 195.21 116.796 194.486 114.06C193.761 111.324 191.527 104.611 191.395 102.836C191.263 101.06 188.59 93.0139 188.085 91.919C187.58 90.8241 186.594 85.8472 184.687 82.8912C182.78 79.9352 180.719 76.0069 176.138 73.6181C171.557 71.2292 168.662 69.5856 167.574 68.294C166.486 67.0023 163.999 62.6389 163.407 60.206C162.814 57.7731 161.432 55.4699 160.666 54.5926C159.9 53.7153 161.761 53.037 158.935 52.5556C156.108 52.0741 150.557 48.0532 150.328 47L150.324 47.0162Z" fill="white"/>
<path d="M151.634 165.005C151.634 165.005 144.852 168.808 142.669 169.917C140.486 171.025 132.88 175.275 131.752 175.704C130.625 176.132 129.942 176.887 129.329 177.949C128.715 179.012 125.516 185.44 125.19 189.609C124.863 193.778 124.539 195.919 128.058 194.213C131.576 192.507 134.289 180.463 135.095 178.789C135.9 177.116 145.838 173.769 147.914 172.771C149.991 171.773 153.37 171.005 153.37 171.005C153.37 171.005 150.954 168.949 151.634 165V165.005Z" fill="white"/>
<path d="M160.674 182.022C160.674 182.022 160.456 181.605 159.931 184.395C159.405 187.184 157.868 198.841 157.792 199.881C157.716 200.92 155.063 211.781 155 211.955C154.938 212.129 163.102 217.411 164.875 218.325C166.648 219.24 168.565 219.087 170.952 219.087C173.338 219.087 172.804 217.288 171.061 215.443C169.317 213.598 161.155 209.929 160.209 208.235C159.262 206.541 160.72 203.492 160.72 203.492L166.595 184.117C165.449 184.36 164.277 184.454 163.107 184.395C162.615 184.368 162.134 184.239 161.696 184.015C161.257 183.79 160.87 183.477 160.561 183.094L160.674 182.022Z" fill="white"/>
<path d="M156.267 38C155.786 38.0012 155.307 38.0399 154.832 38.1157C150.999 38.7153 148.647 41.4653 147.568 43.037C147.515 42.8796 147.522 42.8843 147.462 42.7106C147.172 41.8912 146.888 41.037 146.459 40.4884C146.324 40.323 146.147 40.1971 145.947 40.1237C145.747 40.0504 145.53 40.0325 145.32 40.0718C144.913 40.1767 144.563 40.4357 144.344 40.794C143.85 41.5185 143.621 42.6597 143.867 44.2431C144.348 47.3356 145.857 50.4931 146.624 53.1736C147.39 55.8542 147.908 59.9861 146.908 63.3819C145.908 66.7778 143.135 70.9514 139.332 73.6921C135.42 76.5046 131.496 78.9514 129.753 80.3171C128.01 81.6829 127.378 82.743 127.256 83.7292C127.247 83.8068 127.253 83.8853 127.274 83.9606C126.612 84.2106 125.982 84.4375 125.436 84.6134C122.531 85.5555 119.614 86.8079 117.334 88.1944C115.054 89.581 113.323 91.0602 113.029 92.8102C112.964 93.2332 113.009 93.6656 113.157 94.0669C113.306 94.4682 113.554 94.8251 113.878 95.1042C114.506 95.6759 115.369 96.0532 116.355 96.3079C118.557 96.8227 120.85 96.806 123.045 96.2593L123.214 96.2153C122.87 97.8417 122.647 99.4912 122.545 101.15C122.346 104.435 122.603 108.498 124.628 111.583C126.654 114.669 130.137 115.993 133.547 116.484C136.957 116.975 140.353 116.662 142.378 116.444C145.672 116.09 150.698 114.428 152.753 113.713C152.754 113.898 152.784 114.082 152.844 114.257C150.952 114.995 145.742 117.586 144.679 123.856C143.385 131.495 148.325 138.542 150.413 141.169C151.536 142.583 155.059 145.954 158.58 149.194C160.1 150.595 161.6 151.944 162.894 153.083L162.582 158.505C161.543 158.877 160.499 159.266 159.614 159.639C156.126 161.104 147.688 166.093 141.776 169.146C135.779 172.238 130.978 175.627 124.661 176.62C124.582 176.633 124.506 176.661 124.438 176.702C124.37 176.744 124.311 176.799 124.265 176.863C124.218 176.928 124.184 177.001 124.165 177.078C124.147 177.156 124.144 177.236 124.156 177.315C124.168 177.394 124.196 177.469 124.238 177.537C124.28 177.605 124.334 177.664 124.399 177.711C124.463 177.758 124.536 177.792 124.614 177.81C124.691 177.829 124.772 177.832 124.85 177.819C126.12 177.618 127.372 177.322 128.598 176.935C128.214 177.63 127.725 178.556 127.209 179.641C126.11 181.914 124.894 184.796 124.32 187.35C123.746 189.903 123.626 192.13 124.209 193.62C124.496 194.368 125.073 194.986 125.864 195.069C126.656 195.153 127.459 194.771 128.369 194.028C130.309 192.444 131.61 189.019 132.767 185.708C133.339 184.051 133.848 182.426 134.304 181.1C134.76 179.773 135.198 178.715 135.462 178.352C135.734 178.069 136.046 177.828 136.387 177.637C137.014 177.266 137.66 176.93 138.323 176.627C139.862 175.907 141.818 175.123 143.795 174.387C147.749 172.912 151.857 171.609 152.781 171.394C153.228 171.287 154.656 171.044 156.566 170.729C157.999 170.498 159.769 170.206 161.631 169.893C161.235 172.106 158.448 187.743 157.804 192.347C157.466 194.782 156.862 198.431 156.279 201.632C155.987 203.234 155.698 204.722 155.452 205.891C155.207 207.06 154.978 207.961 154.894 208.181C154.57 209.016 154.249 210.706 153.969 212.451C153.688 214.197 153.459 215.875 153.459 216.667C153.453 217.417 153.499 218.166 153.598 218.91C153.623 219.069 153.711 219.211 153.841 219.306C153.971 219.4 154.134 219.44 154.293 219.414C154.452 219.389 154.594 219.302 154.689 219.172C154.783 219.041 154.822 218.879 154.797 218.72C154.708 218.039 154.667 217.353 154.675 216.667C154.764 215.406 154.918 214.15 155.137 212.905C155.911 213.484 157.29 214.5 158.89 215.6C160.082 216.421 161.367 217.266 162.545 217.956C163.723 218.646 164.765 219.19 165.61 219.403C166.942 219.755 168.318 219.911 169.695 219.866C170.883 219.81 171.83 219.616 172.473 219.1C172.701 218.911 172.851 218.646 172.894 218.354C172.93 218.081 172.902 217.804 172.813 217.544C172.592 216.92 172.249 216.347 171.804 215.856C170.797 214.66 169.119 213.31 166.776 212.153C164.506 211.016 162.663 210.012 161.469 209.106C160.979 208.759 160.548 208.334 160.193 207.85C159.979 207.576 159.879 207.23 159.915 206.884C159.934 206.757 160.077 206.155 160.302 205.35C160.526 204.544 160.834 203.486 161.2 202.264C161.927 199.819 162.881 196.708 163.844 193.623C164.806 190.537 165.779 187.449 166.543 185.058C167.306 182.667 167.885 180.891 167.994 180.602C168.51 179.213 173.054 167.942 173.11 167.801C174.936 167.412 176.598 167.016 177.934 166.627C180.837 165.78 182.661 164.975 183.7 163.882C183.943 164.041 184.208 164.163 184.487 164.245C185.153 164.439 185.836 164.57 186.526 164.637C187.284 164.726 188.046 164.775 188.809 164.782C188.832 165.125 188.855 165.551 188.943 166.375C189.003 166.926 189.077 167.498 189.175 167.995C189.215 168.22 189.268 168.443 189.332 168.662C189.38 168.868 189.473 169.06 189.603 169.227C189.894 169.546 190.239 169.81 190.624 170.007C191.167 170.333 191.732 170.623 192.313 170.875C193.598 171.431 195.091 171.907 196.404 171.681C197.464 171.495 197.765 171.495 197.931 171.539C198.098 171.583 198.394 171.792 199.219 172.072C200.195 172.407 201.897 172.491 204.094 172.356C206.582 172.197 209.044 171.762 211.436 171.058C213.969 170.303 215.191 169.743 215.846 168.866C216.14 168.453 216.316 167.968 216.353 167.463C216.404 167 216.392 166.521 216.429 165.979C216.48 165.234 216.304 163.965 216.015 162.204C215.725 160.442 215.32 158.255 214.837 155.954C213.89 151.343 212.712 146.273 211.848 143.222C210.969 140.109 209.751 138.546 208.672 137.782C208.251 137.474 207.769 137.259 207.258 137.15H207.223C207.181 136.63 207.103 135.745 206.952 134.616C206.859 133.862 206.727 133.113 206.556 132.373C206.488 132.066 206.395 131.766 206.276 131.475C206.188 131.187 205.999 130.94 205.744 130.78C205.33 130.535 204.918 130.528 204.45 130.523C203.964 130.525 203.478 130.557 202.996 130.618C202.038 130.731 201.188 130.905 201.188 130.905C201.087 130.927 200.992 130.974 200.913 131.042V130.979C200.904 130.827 200.837 130.684 200.727 130.578C200.617 130.472 200.471 130.412 200.318 130.41H200.267C200.106 130.42 199.956 130.494 199.85 130.615C199.744 130.737 199.69 130.895 199.7 131.056C199.7 131.056 199.76 131.981 199.786 132.993C199.797 133.505 199.8 134.039 199.786 134.491C199.779 134.802 199.746 135.111 199.688 135.417C199.639 135.57 199.652 135.737 199.725 135.881C199.799 136.024 199.926 136.133 200.08 136.183C200.233 136.233 200.4 136.219 200.544 136.146C200.687 136.073 200.796 135.945 200.846 135.792C200.955 135.383 201.008 134.962 201.003 134.539C201.022 134.049 201.019 133.495 201.003 132.97C201.003 132.618 200.982 132.296 200.971 132C201.037 132.047 201.113 132.08 201.192 132.097C201.272 132.114 201.354 132.115 201.434 132.1C201.434 132.1 202.242 131.935 203.14 131.829C203.571 131.774 204.006 131.745 204.441 131.741C204.656 131.743 204.87 131.769 205.08 131.819C205.112 131.862 205.139 131.909 205.161 131.958C205.25 132.184 205.323 132.416 205.378 132.653C205.538 133.351 205.662 134.056 205.751 134.766C205.876 135.704 205.948 136.481 205.996 137.044C205.867 137.044 205.725 137.044 205.563 137.044C204.297 137.131 203.044 137.36 201.827 137.725C201.631 137.78 201.42 137.833 201.216 137.887C201.216 137.887 198.015 136.894 195.695 136.53C195.001 136.421 194.135 136.322 193.249 136.231C192.999 134.775 193.749 133.294 193.925 132.97L194.066 132.984L194.022 133.183C194.004 133.261 194.003 133.342 194.016 133.421C194.03 133.499 194.06 133.575 194.103 133.642C194.146 133.71 194.201 133.768 194.267 133.814C194.333 133.86 194.407 133.892 194.485 133.91C194.563 133.927 194.644 133.929 194.722 133.915C194.801 133.901 194.877 133.872 194.944 133.829C195.012 133.786 195.07 133.73 195.116 133.664C195.162 133.599 195.194 133.525 195.212 133.447L195.605 131.692C195.641 131.535 195.612 131.37 195.526 131.234C195.441 131.097 195.304 131.001 195.147 130.965C194.99 130.93 194.825 130.958 194.688 131.044C194.552 131.13 194.456 131.266 194.42 131.424L194.339 131.787C194.08 131.757 193.728 131.718 193.297 131.685C192.529 131.63 191.665 131.581 190.982 131.759C190.406 131.91 190.137 132.329 189.855 132.778C189.564 133.254 189.312 133.753 189.103 134.271C188.705 135.208 188.448 136.023 188.408 136.178C186.847 138.193 185.508 140.371 184.415 142.674C182.795 146.062 180.712 150.544 180.214 151.634C179.131 149.981 177.915 148.19 176.67 146.387C176.725 146.007 177.133 143.204 177.712 139.769C178.323 136.097 179.089 131.933 179.617 130.185C180.7 126.604 182.323 124.806 183.043 123.745C183.531 123.021 183.35 122.197 183.117 121.644C183.019 121.415 182.902 121.195 182.767 120.986C184.406 120 185.313 118.75 185.469 117.495C185.64 116.051 184.753 114.961 183.925 114.294C183.508 113.948 183.039 113.67 182.536 113.47C182.431 113.141 180.323 106.424 180.262 101.757C180.257 100.175 180.339 98.5938 180.508 97.0208C181.635 98.963 185.418 105.479 186.626 107.611C187.251 108.715 187.992 111.083 188.668 113.463C189.344 115.843 189.966 118.211 190.54 119.583C191.084 120.884 192.121 123.171 193.033 125.169C193.496 126.167 193.915 127.09 194.232 127.778C194.55 128.465 194.779 128.958 194.776 128.956C194.847 129.094 194.969 129.2 195.115 129.252C195.262 129.303 195.423 129.297 195.565 129.234C195.707 129.171 195.819 129.056 195.879 128.913C195.939 128.769 195.942 128.608 195.887 128.463C195.841 128.361 195.656 127.956 195.337 127.271C195.121 126.808 194.816 126.139 194.526 125.512L196.841 124.975C196.879 125.337 196.897 125.701 196.897 126.065C196.89 126.147 196.9 126.23 196.927 126.309C196.953 126.387 196.995 126.46 197.051 126.521C197.106 126.583 197.174 126.633 197.249 126.667C197.324 126.702 197.406 126.721 197.488 126.723C197.571 126.725 197.654 126.71 197.731 126.679C197.807 126.648 197.877 126.602 197.936 126.543C197.994 126.484 198.04 126.414 198.07 126.337C198.1 126.26 198.115 126.178 198.112 126.095C198.107 125.288 198.039 124.483 197.908 123.687C197.661 122.083 196.394 118.132 194.878 113.759C193.39 109.468 191.945 102.671 191.096 99.6528C190.612 97.9352 189.327 94.3056 187.982 90.713C189.761 88.5293 191.045 85.9864 191.746 83.2593C193.038 78.3981 192.698 70.5741 188.969 64.706C185.239 58.838 179.996 57.9514 175.612 55.7731C171.927 53.9444 168.121 51.1204 166.962 50.2361C167.763 49.4992 168.442 48.6397 168.973 47.6898C169.36 46.933 169.494 46.0722 169.355 45.2338C169.269 44.7375 169.005 44.2897 168.612 43.9745C168.116 43.6282 167.513 43.4699 166.911 43.5278C165.737 43.581 164.922 43.5718 164.418 43.4398C163.913 43.3079 163.702 43.1389 163.452 42.6204C162.865 41.4185 162.011 40.3669 160.955 39.5463C159.733 38.6123 158.253 38.0766 156.716 38.0116C156.57 38.0116 156.42 38 156.267 38ZM156.267 39.2106C157.683 39.1811 159.067 39.6369 160.188 40.5023C161.09 41.2102 161.82 42.1111 162.327 43.1389C162.493 43.4978 162.736 43.8156 163.039 44.0694C163.342 44.3231 163.697 44.5066 164.08 44.6065C164.848 44.8079 165.742 44.787 166.936 44.7315C167.252 44.6866 167.573 44.7564 167.841 44.9282C168.003 45.0625 168.108 45.2526 168.135 45.4606C168.195 46.0376 168.097 46.6198 167.853 47.1458C167.26 48.1262 166.519 49.0086 165.656 49.7616C164.455 50.8264 162.878 51.8194 161.098 52.0995C157.436 52.6829 154.355 51.3472 152.288 49.0093C151.105 47.6713 149.864 47.1852 148.92 47.0787C148.368 47.0124 147.809 47.0709 147.283 47.25C147.134 47.3115 147.016 47.4297 146.954 47.5785C146.892 47.7274 146.891 47.8948 146.952 48.044C146.983 48.1178 147.027 48.1849 147.084 48.2414C147.14 48.2979 147.207 48.3427 147.281 48.3732C147.355 48.4038 147.434 48.4194 147.514 48.4193C147.594 48.4192 147.673 48.4034 147.746 48.3727C148.08 48.262 148.436 48.2327 148.783 48.287L148.913 48.3079C148.764 48.6699 148.655 49.0471 148.589 49.4329C148.413 50.419 148.397 51.8518 148.973 53.6736C150.089 57.1968 151.982 61.3588 153.237 63.1921C153.869 64.1058 154.733 64.8352 155.739 65.3056C155.755 65.3199 155.771 65.3331 155.788 65.3449C156.691 66.0652 157.461 66.9389 158.061 67.9259C157.266 68.6967 156.415 69.407 155.515 70.0509C154.154 71.0417 152.374 72.0972 151.603 72.544C151.406 72.2925 151.151 72.0924 150.86 71.9606C150.559 71.8368 150.229 71.8046 149.911 71.868H149.938C149.938 71.868 148.765 72.0139 147.475 72.1898C146.186 72.3657 144.832 72.5532 144.265 72.6852C144.082 72.7307 143.911 72.8121 143.76 72.9245C143.61 73.037 143.483 73.1783 143.387 73.3403C143.244 73.6005 143.16 73.8889 143.14 74.1852C143.111 74.5114 143.127 74.84 143.186 75.162L143.522 76.831C142.783 77.1852 134.494 81.1319 128.556 83.4815C128.749 82.956 129.251 82.2801 130.501 81.287C132.089 80.0324 136.091 77.5255 140.038 74.6805C144.082 71.7662 146.971 67.4606 148.068 63.7292C149.165 59.9977 148.598 55.6944 147.786 52.8495C146.973 50.0046 145.501 46.8958 145.061 44.0671C144.848 42.6921 145.1 41.8403 145.341 41.4861C145.436 41.3449 145.489 41.3287 145.522 41.3125C145.833 41.8932 146.095 42.4987 146.306 43.1227C146.584 43.9144 146.795 44.6204 146.795 44.6181C146.841 44.7726 146.946 44.9028 147.087 44.9801C147.229 45.0573 147.395 45.0753 147.55 45.0301C147.629 45.006 147.703 44.9661 147.766 44.9128C147.83 44.8595 147.882 44.7939 147.92 44.7199C147.92 44.7199 150.327 40.0394 155.017 39.3148C155.432 39.2489 155.852 39.2141 156.272 39.2106H156.267ZM150.05 48.7014C150.55 48.9934 150.997 49.3675 151.374 49.8079C152.302 50.8666 153.43 51.731 154.694 52.3512C155.958 52.9714 157.332 53.3351 158.737 53.4213C159.495 54.8683 160.464 56.1945 161.612 57.3565C161.638 58.2417 161.808 59.1167 162.117 59.9468V59.963C162.102 59.9969 162.09 60.0317 162.08 60.0671C162.08 60.0671 162.08 60.0833 162.08 60.0926C161.903 60.8745 161.656 61.6391 161.344 62.3773C161.109 62.9431 160.798 63.4736 160.418 63.9537C160.157 64.3179 159.773 64.574 159.337 64.6736C158.37 64.8077 157.386 64.6763 156.489 64.2934C155.592 63.9104 154.816 63.2905 154.244 62.5C153.165 60.912 151.212 56.6991 150.135 53.2963C149.614 51.6551 149.644 50.4352 149.786 49.6366C149.837 49.3143 149.927 48.9995 150.054 48.6991L150.05 48.7014ZM166.008 51.0417C166.969 51.7847 171.038 54.8588 175.036 56.8495C179.64 59.1366 184.434 59.8588 187.906 65.3403C191.378 70.8218 191.719 78.4398 190.529 82.9329C189.924 85.2593 188.876 87.4474 187.443 89.3773C186.552 87.037 185.675 84.8148 185.019 83.2755C183.151 78.8773 177.918 75.037 175.721 73.581C175.281 73.2893 174.677 72.9051 174.015 72.4792C173.98 72.451 173.942 72.4269 173.901 72.4074C172.936 71.787 171.818 71.0671 170.7 70.2824C168.744 68.9167 166.8 67.375 165.839 66.1343C165.003 64.9879 164.347 63.7211 163.892 62.3773C164.576 62.8674 165.382 63.1575 166.221 63.2153C166.3 63.2219 166.38 63.2128 166.456 63.1885C166.532 63.1642 166.603 63.1251 166.664 63.0735C166.725 63.0218 166.775 62.9587 166.811 62.8877C166.847 62.8167 166.87 62.7393 166.876 62.6597C166.889 62.4995 166.837 62.3408 166.733 62.2184C166.629 62.096 166.481 62.0199 166.32 62.0069C164.536 61.8611 163.744 60.7824 163.286 59.6343C163.149 59.2815 163.043 58.9174 162.969 58.5463C163.727 59.1152 164.572 59.5584 165.471 59.8588C169.658 61.2083 173.973 60.493 173.973 60.493C174.052 60.4804 174.127 60.4524 174.195 60.4107C174.263 60.3689 174.322 60.3141 174.369 60.2495C174.416 60.1849 174.449 60.1118 174.468 60.0342C174.486 59.9566 174.489 59.8762 174.477 59.7975C174.464 59.7187 174.436 59.6432 174.394 59.5753C174.352 59.5074 174.298 59.4484 174.233 59.4016C174.169 59.3549 174.095 59.3213 174.018 59.3029C173.94 59.2844 173.86 59.2814 173.781 59.294C173.781 59.294 169.679 59.9468 165.853 58.6991C163.075 57.8009 160.992 54.8032 160.151 53.4282C160.526 53.4051 160.904 53.3634 161.288 53.3009C163.149 53.0023 164.753 52.0764 166.012 51.0486L166.008 51.0417ZM154.837 56.7755C154.714 56.7673 154.59 56.7783 154.471 56.8079C154.3 57.8148 153.776 58.8241 154.191 59.1643C154.605 59.5046 155.369 59.1181 155.508 57.8009C155.596 56.9768 155.168 56.794 154.837 56.7755ZM162.624 62.4282C163.135 64.0296 163.903 65.5369 164.899 66.8912C165.681 67.9097 166.876 68.9583 168.198 69.9699C168.198 69.9699 169.29 71.7778 170.406 74.1366C170.406 74.1366 168.753 76.0208 165.513 76.5764C162.429 77.1042 160.969 75.456 160.883 75.3565C160.047 73.4077 158.999 71.557 157.758 69.838C158.107 69.5417 158.394 69.2847 158.612 69.0787C158.709 69.3365 158.786 69.6011 158.844 69.8704C158.859 69.9487 158.89 70.0233 158.934 70.0897C158.979 70.1561 159.036 70.2131 159.102 70.2574C159.169 70.3017 159.243 70.3325 159.321 70.3479C159.4 70.3633 159.481 70.3631 159.559 70.3472C159.717 70.3154 159.856 70.2222 159.945 70.0881C160.034 69.9541 160.067 69.79 160.036 69.6319C159.732 68.2595 159.087 66.9858 158.161 65.9282C158.613 65.9579 159.067 65.94 159.515 65.875C160.247 65.7362 160.902 65.3303 161.353 64.7361C161.807 64.1662 162.178 63.5349 162.455 62.8611C162.503 62.7245 162.568 62.5741 162.624 62.4282ZM156.811 70.5949C158.292 72.6629 159.488 74.9208 160.367 77.3079C161.207 79.5255 161.756 81.5069 162.39 83.1505C163.024 84.794 163.73 86.1412 164.978 86.9375C166.225 87.7338 168.1 87.9699 169.853 87.4514C170.831 87.171 171.716 86.6335 172.416 85.895C173.115 85.1565 173.604 84.244 173.832 83.2523C174.443 80.787 173.209 77.412 171.929 74.5393C171.45 73.4653 170.952 72.4699 170.519 71.6412C171.466 72.2893 172.371 72.8819 173.186 73.4005C173.385 73.7778 174.728 76.3356 176.179 79.4491C177.744 82.8125 179.36 86.7755 179.584 88.6944C180.063 92.8287 178.957 96.7222 179.022 101.778C179.084 106.919 181.406 114.046 181.406 114.046C181.433 114.132 181.479 114.21 181.54 114.276C181.602 114.342 181.677 114.393 181.76 114.426C182.252 114.638 182.715 114.913 183.135 115.245C183.8 115.78 184.339 116.47 184.232 117.354C184.126 118.238 183.306 119.41 181.401 120.331C179.496 121.252 176.524 121.9 172.334 121.748C168.216 121.6 163.705 119.924 160.175 118.106C158.649 117.33 157.179 116.447 155.776 115.465C155.32 115.144 154.881 114.797 154.464 114.426C154.29 114.263 154.128 114.087 153.98 113.9C153.944 113.816 153.929 113.724 153.939 113.632C153.948 113.54 153.981 113.453 154.033 113.377C154.217 113.057 154.452 112.768 154.728 112.523C155.374 111.9 156.29 111.259 156.957 110.609C157.42 110.16 157.651 109.514 157.846 108.729C158.049 107.835 158.169 106.923 158.205 106.007C158.318 103.944 158.129 101.876 157.642 99.868C157.272 98.4792 156.677 96.6134 156.087 94.8611C156.57 94.8338 157.041 94.6943 157.462 94.4537C159.33 93.463 161.181 90.2616 159.978 83.7616C158.927 78.0972 156.214 72.7824 155.54 71.5208C155.772 71.3588 156.003 71.1968 156.235 71.0324C156.466 70.8681 156.626 70.7407 156.809 70.6018L156.811 70.5949ZM154.524 72.1875C155.232 73.5301 157.795 78.6366 158.786 83.9768C159.943 90.1875 158.068 92.7523 156.899 93.3727C156.237 93.7245 155.973 93.6551 155.878 93.618L155.811 93.5926C155.763 93.4825 155.682 93.3897 155.58 93.3264C154.885 91.2755 154.286 89.6667 154.286 89.6667C154.23 89.5155 154.117 89.3924 153.97 89.3243C153.824 89.2563 153.657 89.2487 153.506 89.3032C153.354 89.3591 153.231 89.4724 153.163 89.6185C153.095 89.7646 153.088 89.9317 153.142 90.0833C153.142 90.0833 155.559 96.7523 156.471 100.181C156.919 102.064 157.094 104.002 156.989 105.935C156.957 106.775 156.849 107.61 156.665 108.431C156.575 108.898 156.385 109.34 156.107 109.727C155.563 110.255 154.635 110.912 153.885 111.637C153.697 111.815 153.52 112.005 153.355 112.206L153.286 112.227C153.286 112.227 146.087 114.817 142.237 115.236C140.232 115.451 136.931 115.745 133.707 115.282C130.482 114.819 127.394 113.616 125.635 110.921C123.876 108.227 123.566 104.38 123.756 101.225C123.861 99.4157 124.124 97.6195 124.543 95.8565C129.559 94.3472 139.003 90.6042 143.031 87.6875C143.161 87.5929 143.249 87.4505 143.274 87.2914C143.3 87.1323 143.261 86.9696 143.166 86.8391C143.072 86.7087 142.929 86.6211 142.77 86.5957C142.611 86.5703 142.449 86.6092 142.318 86.7037C141.481 87.2877 140.608 87.8189 139.705 88.294L138.779 85.9583L139.594 85.5301L142.177 84.1667C144.121 83.1458 146.3 82.0208 147.179 81.6458C148.017 81.319 148.927 81.2199 149.816 81.3588C150.661 81.4815 151.378 81.8218 151.596 82.0532C151.652 82.11 151.719 82.1551 151.793 82.1858C151.866 82.2166 151.945 82.2324 152.025 82.2324C152.105 82.2324 152.184 82.2166 152.258 82.1858C152.332 82.1551 152.398 82.11 152.455 82.0532C152.511 81.9971 152.556 81.9302 152.587 81.8565C152.618 81.7828 152.634 81.7037 152.634 81.6238C152.634 81.544 152.618 81.4649 152.587 81.3912C152.556 81.3175 152.511 81.2506 152.455 81.1944C151.894 80.6366 151.017 80.3171 149.987 80.169C149.451 80.0892 148.907 80.0744 148.367 80.125C147.795 80.1784 147.235 80.3181 146.705 80.5393C146.42 80.6597 146.036 80.8426 145.605 81.0532L144.376 74.9329C144.342 74.7264 144.332 74.5166 144.348 74.3079C144.356 74.187 144.386 74.0686 144.436 73.9583C144.473 73.8958 144.469 73.8935 144.538 73.8773C144.901 73.794 146.355 73.5787 147.638 73.4028C148.92 73.2269 150.087 73.0833 150.087 73.0833C150.13 73.0782 150.173 73.0681 150.214 73.0532C150.214 73.0532 150.214 73.0278 150.376 73.0926C150.538 73.1574 150.839 73.3611 151.107 74.2153C151.397 75.1157 151.955 77.3704 152.443 79.5718C152.931 81.7731 153.353 83.9977 153.406 84.7083C153.469 85.5694 153.533 86.2893 153.385 86.6968C153.318 86.9045 153.176 87.0801 152.987 87.1898C152.628 87.3969 152.228 87.5255 151.816 87.5671C151.737 87.5785 151.661 87.6054 151.592 87.6461C151.524 87.6868 151.464 87.7406 151.416 87.8044C151.369 87.8683 151.334 87.9409 151.314 88.0181C151.295 88.0954 151.29 88.1757 151.302 88.2546C151.313 88.3335 151.34 88.4094 151.381 88.4779C151.422 88.5464 151.475 88.6062 151.539 88.654C151.603 88.7017 151.676 88.7364 151.753 88.756C151.83 88.7757 151.91 88.7799 151.989 88.7685C152.579 88.7055 153.148 88.5135 153.656 88.206C154.057 87.9445 154.363 87.5605 154.529 87.1111C154.83 86.2778 154.677 85.4305 154.617 84.618C154.547 83.6551 154.119 81.5278 153.628 79.3102C153.137 77.0926 152.596 74.8657 152.265 73.8426C152.239 73.7662 152.212 73.6968 152.186 73.625C152.675 73.3333 153.554 72.8148 154.524 72.1944V72.1875ZM175.235 74.7176C177.425 76.1968 182.318 80.0046 183.915 83.7616C185.651 87.8426 189.091 97.1181 189.897 99.9653C190.714 102.868 192.163 109.706 193.7 114.139C195.17 118.382 196.418 122.391 196.656 123.745L193.985 124.375C193.107 122.451 192.133 120.312 191.635 119.109C191.137 117.905 190.478 115.512 189.811 113.127C189.144 110.743 188.436 108.382 187.658 107.009C186.246 104.516 180.749 95.0556 180.749 95.0556C180.73 95.0237 180.71 94.9935 180.686 94.9653C180.894 92.831 181.047 90.7523 180.793 88.5463C180.517 86.1875 178.864 82.3218 177.283 78.9259C176.533 77.3055 175.802 75.838 175.237 74.7176H175.235ZM170.941 75.3032C172.128 78.0393 173.08 81.2292 172.651 82.9421C172.177 84.8634 170.925 85.8495 169.508 86.2685C168.091 86.6875 166.499 86.4491 165.633 85.8935C164.767 85.338 164.119 84.2546 163.524 82.6968C162.966 81.2431 162.434 79.3912 161.658 77.2917C162.931 77.8617 164.348 78.0289 165.719 77.7708C167.655 77.4504 169.464 76.5958 170.941 75.3032ZM143.776 78.0556L143.878 78.5579C143.848 78.5959 143.821 78.637 143.8 78.6805L141.716 83.0393L141.628 83.0856L139.045 84.4514C138.7 84.6319 138.413 84.7847 138.207 84.8889L137.975 85.0116L137.943 85.0255L137.827 85.0463L137.364 85.1296L135.744 85.4028C134.418 85.6343 132.668 85.9213 130.927 86.2106L123.982 87.368C123.9 87.3768 123.82 87.4023 123.748 87.4431C123.676 87.4838 123.612 87.5388 123.562 87.6049C123.512 87.6709 123.476 87.7465 123.456 87.827C123.436 87.9076 123.432 87.9913 123.446 88.0732C123.46 88.155 123.49 88.2332 123.535 88.303C123.58 88.3727 123.638 88.4326 123.707 88.4788C123.776 88.5251 123.854 88.5568 123.935 88.572C124.017 88.5871 124.101 88.5855 124.181 88.5671L131.126 87.4097L135.945 86.6018L137.566 86.3264H137.638L138.635 88.8727C133.492 91.4838 125.927 94.3171 122.76 95.1088C120.758 95.6088 118.392 95.6042 116.668 95.1597C115.951 95.0054 115.279 94.6886 114.705 94.2338C114.297 93.8657 114.154 93.5393 114.242 93.0417C114.413 92.0347 115.816 90.581 117.982 89.2639C120.149 87.9468 122.999 86.7176 125.83 85.7917C131.253 84.0208 142.198 78.8102 143.776 78.0556ZM144.269 80.5116L144.489 81.5995C144.177 81.7569 143.841 81.9305 143.508 82.1042L144.269 80.5116ZM148.043 83.1412C147.894 83.1383 147.75 83.1897 147.638 83.2858C147.525 83.3818 147.451 83.5158 147.43 83.6625C147.41 83.8091 147.443 83.9583 147.525 84.0819C147.606 84.2055 147.731 84.2949 147.874 84.3333C148.383 84.4836 148.882 84.6652 149.369 84.8773C150.149 85.2222 150.938 85.7801 151.084 86.0856C151.153 86.2314 151.278 86.3437 151.429 86.3979C151.581 86.4522 151.749 86.4439 151.894 86.375C151.967 86.3408 152.031 86.2926 152.085 86.2334C152.138 86.1741 152.18 86.1048 152.206 86.0295C152.233 85.9543 152.244 85.8744 152.24 85.7947C152.236 85.7149 152.216 85.6368 152.181 85.5648C151.737 84.6389 150.73 84.1505 149.867 83.7662C149.327 83.53 148.773 83.329 148.207 83.1643C148.156 83.1486 148.103 83.1408 148.05 83.1412H148.043ZM147.862 85.0926C147.738 85.0928 147.616 85.1316 147.515 85.2037C147.383 85.2969 147.294 85.4384 147.267 85.5972C147.239 85.756 147.276 85.9192 147.369 86.0509C147.369 86.0509 148.383 87.4931 148.783 88.1875C148.823 88.2574 148.875 88.3188 148.938 88.3683C149.001 88.4178 149.074 88.4543 149.151 88.4758C149.228 88.4973 149.309 88.5034 149.388 88.4936C149.468 88.4839 149.545 88.4585 149.614 88.419C149.683 88.3788 149.744 88.3254 149.792 88.2618C149.84 88.1983 149.875 88.1258 149.896 88.0486C149.916 87.9714 149.921 87.891 149.91 87.8119C149.899 87.7329 149.872 87.6568 149.832 87.588C149.369 86.7824 148.362 85.3727 148.362 85.3727C148.306 85.2927 148.231 85.2275 148.144 85.1828C148.057 85.138 147.96 85.115 147.862 85.1157V85.0926ZM147.457 87.6227C147.349 87.6233 147.243 87.6525 147.151 87.7074C147.058 87.7623 146.981 87.8408 146.929 87.935C146.876 88.0292 146.85 88.1356 146.852 88.2434C146.854 88.3512 146.885 88.4566 146.941 88.5486C146.954 88.5804 146.964 88.6139 146.969 88.6481C147.013 88.9856 147.002 89.3281 146.936 89.662C146.911 89.8213 146.951 89.9839 147.046 90.114C147.141 90.2442 147.284 90.3314 147.443 90.3565C147.522 90.369 147.603 90.3658 147.68 90.3471C147.758 90.3283 147.831 90.2944 147.896 90.2473C147.96 90.2002 148.015 90.1408 148.056 90.0726C148.098 90.0043 148.125 89.9285 148.138 89.8495C148.226 89.3791 148.235 88.8969 148.163 88.4236C148.14 88.2928 148.101 88.1653 148.047 88.044C148.012 87.9711 147.97 87.9014 147.922 87.8356C147.864 87.7689 147.793 87.7153 147.713 87.6785C147.632 87.6418 147.545 87.6227 147.457 87.6227ZM160.452 102.863H160.42C160.332 102.868 160.246 102.891 160.168 102.931C160.024 103.005 159.916 103.133 159.867 103.286C159.818 103.44 159.832 103.607 159.906 103.75C161.147 106.053 162.557 108.261 164.124 110.356C166.67 113.745 170.045 117.38 173.806 118.097C173.885 118.112 173.965 118.112 174.043 118.096C174.122 118.08 174.196 118.049 174.262 118.004C174.328 117.96 174.385 117.903 174.429 117.836C174.473 117.77 174.503 117.695 174.518 117.617C174.533 117.539 174.533 117.458 174.517 117.38C174.501 117.302 174.47 117.228 174.426 117.162C174.381 117.095 174.324 117.039 174.257 116.995C174.191 116.951 174.116 116.92 174.038 116.905C170.918 116.31 167.57 112.928 165.1 109.63C163.579 107.588 162.209 105.437 161.003 103.194C160.953 103.097 160.877 103.015 160.784 102.957C160.69 102.899 160.583 102.867 160.473 102.866L160.452 102.863ZM153.598 115.271L153.654 115.322C154.107 115.725 154.582 116.103 155.077 116.454C156.526 117.47 158.043 118.383 159.619 119.187C163.251 121.056 167.881 122.803 172.29 122.963C176.443 123.113 179.51 122.519 181.651 121.556C181.78 121.729 181.886 121.918 181.969 122.118C182.126 122.491 182.17 122.831 182.008 123.067C181.425 123.931 179.575 126.037 178.427 129.838C177.839 131.778 177.1 135.889 176.487 139.574C176.103 141.889 175.827 143.669 175.633 144.935C175.554 144.822 175.475 144.704 175.401 144.593C171.698 139.285 168.188 134.491 168.188 134.491L163.23 127.919C163.171 127.841 163.094 127.777 163.005 127.735C162.917 127.693 162.819 127.673 162.721 127.676C162.597 127.681 162.477 127.724 162.378 127.799C162.249 127.896 162.164 128.04 162.142 128.2C162.119 128.359 162.161 128.521 162.258 128.65L167.219 135.222C167.219 135.222 170.716 140.005 174.411 145.294L175.441 146.78C175.476 146.88 175.538 146.969 175.619 147.037C177.066 149.132 178.489 151.231 179.684 153.079C181.214 155.44 182.388 157.435 182.73 158.326C183.075 159.143 183.322 159.998 183.466 160.873C183.572 161.449 183.473 162.045 183.186 162.556C182.617 163.519 180.989 164.475 177.58 165.47C174.17 166.465 168.425 167.532 163.276 168.412C160.702 168.85 158.279 169.241 156.367 169.556C155.08 169.766 154.07 169.935 153.346 170.067C152.55 169.312 152.175 168.111 152.036 167.058C151.949 166.399 151.934 165.732 151.989 165.069C151.989 165.053 151.989 165.035 151.989 165.019C155.385 163.144 158.445 161.479 160.091 160.792C162.832 159.65 166.006 158.678 167.346 158.245C166.958 159.138 166.842 160.125 167.012 161.083C167.053 161.232 167.148 161.36 167.278 161.441C167.409 161.522 167.565 161.551 167.716 161.522C167.867 161.493 168.002 161.407 168.092 161.283C168.183 161.159 168.223 161.005 168.205 160.852C167.973 159.657 168.494 158.537 168.837 157.949C169.142 158.252 169.323 158.456 169.323 158.456C169.375 158.517 169.44 158.567 169.512 158.603C169.584 158.639 169.662 158.66 169.742 158.666C169.823 158.671 169.903 158.661 169.98 158.636C170.056 158.61 170.126 158.57 170.187 158.517C170.248 158.465 170.298 158.4 170.334 158.328C170.37 158.256 170.391 158.178 170.397 158.098C170.403 158.017 170.393 157.937 170.367 157.861C170.342 157.784 170.301 157.714 170.249 157.653C169.332 156.639 168.283 155.754 167.128 155.023C166.864 154.863 165.725 153.947 164.323 152.727C162.92 151.507 161.179 149.949 159.425 148.329C155.918 145.088 152.309 141.602 151.385 140.442C149.383 137.924 144.712 131.086 145.899 124.088C146.952 117.868 152.457 115.685 153.619 115.292L153.598 115.271ZM201.175 127.25C201.121 127.25 201.068 127.257 201.017 127.271C198.913 127.852 196.325 129.634 196.325 129.634C196.259 129.679 196.202 129.736 196.157 129.802C196.113 129.868 196.082 129.943 196.067 130.021C196.051 130.099 196.051 130.18 196.067 130.258C196.083 130.336 196.114 130.411 196.158 130.477C196.249 130.611 196.388 130.703 196.547 130.734C196.705 130.765 196.869 130.731 197.003 130.641C197.003 130.641 199.631 128.914 201.341 128.442C201.496 128.399 201.628 128.297 201.707 128.157C201.787 128.017 201.807 127.852 201.765 127.697C201.731 127.566 201.655 127.45 201.548 127.367C201.441 127.285 201.31 127.24 201.175 127.241V127.25ZM198.452 130.611H198.429C198.287 130.617 198.151 130.673 198.045 130.769C197.939 130.865 197.87 130.995 197.85 131.137L197.355 134.78C197.343 134.86 197.347 134.941 197.367 135.02C197.386 135.098 197.422 135.172 197.47 135.236C197.518 135.301 197.579 135.355 197.649 135.396C197.719 135.437 197.796 135.464 197.876 135.475C197.956 135.487 198.037 135.483 198.116 135.463C198.194 135.443 198.268 135.408 198.332 135.36C198.397 135.311 198.451 135.25 198.492 135.181C198.533 135.111 198.56 135.034 198.57 134.954L199.066 131.31C199.078 131.23 199.074 131.149 199.055 131.07C199.035 130.992 199 130.918 198.952 130.853C198.903 130.789 198.842 130.734 198.772 130.693C198.702 130.653 198.625 130.626 198.545 130.616C198.518 130.613 198.491 130.613 198.464 130.616L198.452 130.611ZM192.082 132.863C192.244 132.863 192.415 132.863 192.591 132.863C192.102 133.87 191.893 134.989 191.987 136.104C191.11 136.025 190.309 135.961 189.751 135.917C189.869 135.579 190.022 135.169 190.202 134.741C190.388 134.286 190.609 133.846 190.862 133.426C191.094 133.074 191.341 132.914 191.269 132.933C191.537 132.883 191.809 132.859 192.082 132.863ZM196.42 132.921C196.285 132.922 196.154 132.969 196.048 133.052C195.942 133.136 195.867 133.253 195.834 133.384L195.462 134.787C195.441 134.864 195.436 134.945 195.447 135.024C195.457 135.103 195.483 135.179 195.524 135.249C195.564 135.318 195.617 135.378 195.681 135.426C195.745 135.475 195.817 135.51 195.894 135.53C195.972 135.551 196.052 135.556 196.131 135.545C196.21 135.535 196.286 135.509 196.355 135.469C196.424 135.429 196.485 135.376 196.533 135.312C196.582 135.249 196.617 135.177 196.638 135.1L197.008 133.694C197.028 133.617 197.034 133.537 197.023 133.458C197.013 133.379 196.987 133.303 196.947 133.234C196.907 133.165 196.854 133.104 196.79 133.056C196.727 133.007 196.654 132.972 196.577 132.951C196.526 132.935 196.473 132.924 196.42 132.919V132.921ZM189.457 137.123C189.89 137.153 190.982 137.234 192.295 137.354C192.577 138.21 192.903 139.051 193.272 139.873C193.113 139.993 192.964 140.126 192.827 140.271C192.316 140.819 191.742 141.736 191.381 143.218C191.019 144.699 190.337 149.164 189.746 153.674C189.45 155.931 189.181 158.187 188.994 160.065C188.85 161.516 188.763 162.718 188.735 163.565C188.214 163.544 187.445 163.505 186.651 163.41C186.04 163.35 185.435 163.236 184.844 163.067C184.682 163.019 184.527 162.952 184.381 162.868C184.682 162.188 184.785 161.436 184.677 160.699C184.676 160.69 184.676 160.681 184.677 160.671C184.7 160.641 184.719 160.609 184.735 160.574C184.735 160.574 187.07 155.685 187.744 150.771C188.367 146.243 189.364 138.056 189.471 137.113L189.457 137.123ZM193.624 137.486C194.304 137.56 194.959 137.639 195.496 137.718C196.529 137.877 197.795 138.181 198.841 138.465C196.823 138.928 195.1 139.275 194.399 139.412C194.216 139.042 193.955 138.419 193.624 137.493V137.486ZM206.052 138.245C206.201 138.239 206.35 138.251 206.496 138.28C206.563 138.299 206.633 138.306 206.702 138.301H206.742C206.835 138.295 206.929 138.306 207.019 138.331C207.363 138.406 207.686 138.554 207.969 138.764C208.765 139.326 209.848 140.616 210.679 143.542C211.524 146.537 212.702 151.604 213.647 156.19C214.11 158.484 214.531 160.66 214.804 162.396C215.077 164.132 215.232 165.498 215.205 165.894C215.165 166.491 215.172 166.97 215.133 167.331C215.124 167.62 215.029 167.899 214.862 168.134C214.524 168.586 213.543 169.155 211.077 169.889C208.763 170.563 206.381 170.978 203.975 171.125C201.862 171.255 200.124 171.095 199.577 170.893C199.031 170.692 198.783 170.546 198.482 170.431C198.429 168.72 198.073 159.016 196.806 153.037C195.954 149.047 194.885 145.106 193.605 141.231C193.64 141.19 193.675 141.148 193.707 141.113C193.847 140.943 194.02 140.803 194.216 140.701C194.369 140.671 198.788 139.84 202.151 138.903C203.281 138.561 204.446 138.347 205.624 138.264C205.79 138.243 205.934 138.241 206.052 138.243V138.245ZM188.036 138.727C187.707 141.431 187.038 146.889 186.526 150.609C186.087 153.801 184.89 157.03 184.177 158.759C184.08 158.475 183.971 158.181 183.853 157.875C183.7 157.496 183.527 157.126 183.334 156.766C183.364 156.704 183.383 156.638 183.39 156.569C183.39 156.669 183.39 156.59 183.39 156.542L183.438 156.34L183.614 155.646C183.76 155.088 183.95 154.361 184.14 153.639C184.522 152.197 184.899 150.778 184.899 150.778C184.92 150.701 184.925 150.62 184.914 150.541C184.904 150.462 184.878 150.386 184.838 150.317C184.798 150.248 184.745 150.187 184.681 150.139C184.618 150.091 184.546 150.055 184.469 150.035C184.391 150.014 184.311 150.009 184.232 150.019C184.153 150.03 184.077 150.056 184.008 150.096C183.939 150.136 183.878 150.189 183.83 150.252C183.781 150.316 183.746 150.388 183.725 150.465C183.725 150.465 183.346 151.884 182.966 153.329C182.783 154.023 182.607 154.692 182.466 155.241C182.033 154.519 181.519 153.701 180.957 152.826C181.026 152.678 183.681 146.947 185.475 143.187C186.214 141.638 187.065 140.145 188.022 138.72L188.036 138.727ZM206.92 140.405H206.885C206.814 140.407 206.745 140.422 206.679 140.449L205.522 140.912C205.448 140.942 205.381 140.986 205.324 141.042C205.267 141.098 205.222 141.165 205.191 141.239C205.16 141.312 205.144 141.391 205.143 141.471C205.143 141.551 205.158 141.63 205.188 141.704C205.218 141.778 205.263 141.845 205.319 141.902C205.375 141.959 205.442 142.004 205.515 142.035C205.589 142.066 205.668 142.082 205.747 142.082C205.827 142.083 205.906 142.067 205.98 142.037L207.138 141.56C207.211 141.53 207.279 141.486 207.336 141.43C207.392 141.374 207.438 141.307 207.468 141.234C207.499 141.16 207.516 141.081 207.516 141.001C207.516 140.921 207.501 140.842 207.471 140.769C207.425 140.659 207.349 140.564 207.251 140.497C207.152 140.43 207.037 140.393 206.918 140.391L206.92 140.405ZM197.841 142.079C197.789 142.08 197.736 142.089 197.686 142.104L196.973 142.319C196.819 142.366 196.689 142.473 196.613 142.615C196.537 142.758 196.521 142.924 196.568 143.079C196.591 143.155 196.629 143.226 196.679 143.288C196.73 143.349 196.792 143.401 196.863 143.438C196.933 143.476 197.01 143.499 197.089 143.507C197.169 143.515 197.249 143.507 197.325 143.484L198.036 143.266C198.177 143.224 198.298 143.132 198.376 143.007C198.455 142.883 198.485 142.733 198.461 142.588C198.438 142.443 198.362 142.311 198.249 142.217C198.135 142.123 197.991 142.074 197.844 142.079H197.841ZM192.806 142.685C193.418 144.609 194.642 148.669 195.619 153.289C196.795 158.845 197.121 167.067 197.2 169.262C196.765 168.817 196.626 168.65 195.992 168.053C195.408 167.496 194.796 166.969 194.158 166.475C193.953 166.319 193.739 166.174 193.517 166.042L193.969 153.593C193.972 153.513 193.959 153.433 193.931 153.359C193.904 153.284 193.862 153.215 193.807 153.157C193.753 153.098 193.688 153.051 193.616 153.018C193.543 152.985 193.465 152.966 193.385 152.963H193.33C193.178 152.971 193.036 153.035 192.929 153.143C192.823 153.251 192.761 153.395 192.756 153.546L192.309 165.815C191.718 166.027 191.15 166.299 190.614 166.627C190.452 166.72 190.339 166.792 190.202 166.873C190.175 166.66 190.147 166.442 190.124 166.225C190.01 165.183 189.952 164.231 189.95 164.185V164.16C189.96 162.829 190.043 161.5 190.2 160.178C190.385 158.326 190.663 156.072 190.945 153.824C191.536 149.333 192.242 144.796 192.566 143.5C192.634 143.22 192.717 142.944 192.816 142.674L192.806 142.685ZM164.043 154.095C165.161 155.062 165.989 155.752 166.471 156.042C166.856 156.278 167.225 156.539 167.577 156.822C166.728 157.09 165.344 157.539 163.813 158.069L164.043 154.095ZM150.723 165.669C150.717 166.173 150.746 166.676 150.811 167.176C150.941 168.176 151.244 169.363 151.969 170.338C150.411 170.771 146.876 171.921 143.344 173.241C141.348 173.984 139.369 174.775 137.788 175.519C137.085 175.84 136.4 176.199 135.735 176.593C135.245 176.851 134.812 177.203 134.459 177.63C133.978 178.292 133.596 179.345 133.133 180.697C132.67 182.049 132.161 183.669 131.596 185.303C131.11 186.743 130.55 188.156 129.918 189.537C129.879 189.475 129.843 189.411 129.811 189.345C129.6 188.921 129.376 188.167 129.448 186.889C129.517 185.676 130.186 182.773 130.837 180.264C131.487 177.755 132.124 175.586 132.124 175.586C135.561 174.056 138.767 172.06 142.325 170.227C144.871 168.917 147.862 167.257 150.725 165.676L150.723 165.669ZM192.647 166.977C192.697 166.985 192.745 167.001 192.79 167.023C193.011 167.145 193.222 167.284 193.422 167.437C194.023 167.904 194.599 168.402 195.149 168.928C195.7 169.444 196.216 169.958 196.626 170.375C196.475 170.398 196.334 170.419 196.163 170.451C195.327 170.595 193.938 170.238 192.762 169.727C192.232 169.497 191.717 169.232 191.221 168.935C190.979 168.785 190.747 168.621 190.526 168.442C190.5 168.387 190.477 168.331 190.459 168.273C190.459 168.241 190.438 168.194 190.427 168.155C190.591 168.051 190.848 167.889 191.216 167.678C191.678 167.41 192.159 167.178 192.656 166.984L192.647 166.977ZM171.647 168.072C171.087 169.461 167.355 178.72 166.82 180.153C166.684 180.521 166.242 181.88 165.663 183.66H165.649C163.452 184.604 161.191 183.296 160.556 182.88C161.619 176.697 162.751 170.352 162.871 169.669L163.452 169.572C166.172 169.123 169.033 168.609 171.656 168.079L171.647 168.072ZM130.675 176.174C130.443 177.009 130.084 178.257 129.647 179.947C128.989 182.475 128.309 185.292 128.223 186.808C128.14 188.257 128.394 189.241 128.705 189.87C128.826 190.122 128.982 190.356 129.168 190.565C129.213 190.615 129.262 190.662 129.313 190.706C128.746 191.75 128.156 192.59 127.577 193.067C126.795 193.706 126.237 193.87 125.957 193.843C125.677 193.815 125.494 193.667 125.311 193.164C124.925 192.162 124.945 189.995 125.475 187.593C126.006 185.19 127.191 182.38 128.269 180.15C128.809 179.037 129.318 178.067 129.698 177.387C129.888 177.042 130.047 176.769 130.161 176.583C130.216 176.493 130.26 176.421 130.288 176.382H130.327C130.346 176.362 130.362 176.34 130.376 176.317L130.693 176.194L130.675 176.174ZM160.35 184.187C161.325 184.748 163.186 185.562 165.225 185.093C164.478 187.435 163.568 190.317 162.656 193.252C161.691 196.347 160.737 199.454 160.006 201.907C159.64 203.134 159.33 204.197 159.103 205.016C158.932 205.571 158.793 206.136 158.684 206.706C158.612 207.345 158.776 207.988 159.147 208.514C159.575 209.115 160.1 209.64 160.702 210.067C161.803 210.863 162.964 211.572 164.175 212.187C164.21 212.258 164.26 212.321 164.32 212.373C164.601 212.655 164.861 212.957 165.1 213.275C164.779 213.329 164.451 213.316 164.135 213.236C162.559 212.968 160.496 211.569 158.897 210.211C157.978 209.428 157.105 208.594 156.281 207.713C156.385 207.292 156.496 206.775 156.628 206.153C156.876 204.968 157.165 203.47 157.459 201.861C158.045 198.646 158.651 194.993 158.994 192.528C159.221 190.891 159.753 187.681 160.35 184.187ZM155.883 209.051C156.394 209.574 157.158 210.326 158.11 211.134C159.776 212.551 161.881 214.081 163.931 214.431C164.892 214.595 165.482 214.639 166.001 214.306C166.129 214.216 166.236 214.1 166.314 213.964C166.392 213.828 166.438 213.677 166.45 213.521C166.455 213.465 166.455 213.408 166.45 213.352C168.533 214.431 170.017 215.648 170.848 216.639C171.182 217.01 171.445 217.438 171.626 217.903C171.654 217.985 171.668 218.071 171.665 218.157C171.42 218.345 170.651 218.604 169.614 218.653C168.357 218.693 167.1 218.553 165.883 218.236C165.304 218.088 164.262 217.586 163.133 216.919C162.003 216.252 160.732 215.419 159.554 214.604C157.455 213.16 155.716 211.847 155.344 211.565C155.529 210.553 155.728 209.623 155.883 209.051Z" fill="#272727"/>
<path d="M176.479 82.0001C176.383 82.0015 176.29 82.0311 176.211 82.0854C176.132 82.1396 176.071 82.216 176.035 82.3049C175.999 82.3939 175.991 82.4914 176.01 82.5852C176.03 82.6791 176.077 82.765 176.145 82.8323C176.213 82.8996 176.3 82.9452 176.394 82.9634C176.488 82.9816 176.585 82.9716 176.674 82.9346C176.762 82.8976 176.838 82.8353 176.891 82.7555C176.944 82.6757 176.972 82.582 176.972 82.4862C176.973 82.4217 176.96 82.3578 176.935 82.2982C176.91 82.2386 176.874 82.1846 176.828 82.1393C176.782 82.094 176.728 82.0583 176.668 82.0344C176.608 82.0105 176.544 81.9989 176.479 82.0001ZM163.097 87.5556C163.001 87.557 162.908 87.5867 162.829 87.6411C162.75 87.6954 162.689 87.772 162.653 87.861C162.617 87.9501 162.609 88.0477 162.628 88.1416C162.648 88.2355 162.695 88.3215 162.764 88.3887C162.832 88.4559 162.919 88.5013 163.013 88.5192C163.108 88.5372 163.205 88.5268 163.293 88.4895C163.382 88.4521 163.457 88.3895 163.51 88.3094C163.563 88.2293 163.591 88.1354 163.59 88.0394C163.59 87.9753 163.576 87.9119 163.551 87.8529C163.526 87.7939 163.49 87.7403 163.444 87.6954C163.398 87.6505 163.344 87.615 163.284 87.591C163.225 87.5671 163.161 87.555 163.097 87.5556ZM169.363 90.4144C169.214 90.414 169.067 90.458 168.942 90.541C168.817 90.624 168.72 90.7422 168.662 90.8806C168.605 91.0191 168.589 91.1714 168.619 91.3185C168.648 91.4655 168.72 91.6006 168.826 91.7066C168.932 91.8126 169.067 91.8848 169.214 91.9139C169.361 91.943 169.513 91.9278 169.652 91.8703C169.79 91.8127 169.908 91.7153 169.991 91.5905C170.074 91.4656 170.119 91.319 170.118 91.1691C170.118 90.9689 170.039 90.777 169.897 90.6355C169.756 90.4939 169.564 90.4144 169.363 90.4144ZM176.162 90.5765C176.012 90.576 175.865 90.6201 175.741 90.7031C175.616 90.7861 175.518 90.9043 175.461 91.0427C175.403 91.1811 175.388 91.3335 175.417 91.4805C175.446 91.6276 175.518 91.7627 175.624 91.8687C175.73 91.9747 175.866 92.0468 176.013 92.0759C176.16 92.1051 176.312 92.0899 176.45 92.0323C176.589 91.9747 176.707 91.8773 176.79 91.7525C176.873 91.6277 176.917 91.481 176.917 91.3311C176.916 91.1312 176.836 90.9396 176.695 90.7982C176.554 90.6568 176.362 90.5771 176.162 90.5765ZM163.266 94.3543C163.117 94.3543 162.971 94.3985 162.847 94.4814C162.723 94.5644 162.626 94.6822 162.569 94.8201C162.512 94.958 162.497 95.1097 162.526 95.2561C162.555 95.4025 162.627 95.537 162.733 95.6425C162.838 95.748 162.973 95.8199 163.119 95.849C163.265 95.8781 163.417 95.8632 163.555 95.8061C163.693 95.749 163.811 95.6522 163.894 95.5281C163.977 95.404 164.021 95.2581 164.021 95.1089C164.021 95.0098 164.001 94.9117 163.963 94.8201C163.925 94.7285 163.87 94.6454 163.8 94.5753C163.73 94.5052 163.647 94.4496 163.555 94.4117C163.463 94.3738 163.365 94.3543 163.266 94.3543ZM172.007 98.6668C171.857 98.6663 171.711 98.7103 171.586 98.7932C171.461 98.8761 171.364 98.9942 171.306 99.1324C171.248 99.2707 171.233 99.423 171.262 99.5699C171.291 99.7169 171.363 99.852 171.469 99.9581C171.574 100.064 171.709 100.137 171.856 100.166C172.003 100.195 172.155 100.18 172.294 100.123C172.432 100.066 172.551 99.969 172.634 99.8445C172.717 99.7199 172.762 99.5735 172.762 99.4237C172.762 99.3244 172.743 99.226 172.705 99.1342C172.667 99.0424 172.611 98.9589 172.541 98.8886C172.471 98.8183 172.388 98.7625 172.296 98.7244C172.205 98.6864 172.106 98.6668 172.007 98.6668ZM176.174 98.6668C176.024 98.6663 175.877 98.7103 175.752 98.7932C175.628 98.8761 175.53 98.9942 175.473 99.1324C175.415 99.2707 175.4 99.423 175.429 99.5699C175.458 99.7169 175.529 99.852 175.635 99.9581C175.741 100.064 175.876 100.137 176.023 100.166C176.17 100.195 176.322 100.18 176.46 100.123C176.599 100.066 176.717 99.969 176.801 99.8445C176.884 99.7199 176.928 99.5735 176.928 99.4237C176.928 99.3235 176.908 99.2243 176.87 99.1319C176.831 99.0394 176.775 98.9556 176.703 98.8852C176.632 98.8148 176.547 98.7592 176.455 98.7217C176.362 98.6842 176.262 98.6655 176.162 98.6668H176.174ZM166.683 100.502C166.534 100.503 166.388 100.548 166.264 100.631C166.14 100.714 166.044 100.832 165.987 100.97C165.931 101.108 165.916 101.259 165.945 101.406C165.975 101.552 166.047 101.686 166.152 101.791C166.258 101.897 166.392 101.968 166.539 101.997C166.685 102.026 166.837 102.011 166.975 101.954C167.112 101.897 167.23 101.8 167.313 101.676C167.396 101.552 167.44 101.406 167.44 101.257C167.44 101.156 167.419 101.057 167.38 100.964C167.34 100.871 167.283 100.788 167.211 100.717C167.138 100.647 167.053 100.592 166.959 100.556C166.865 100.519 166.765 100.502 166.664 100.505L166.683 100.502ZM177.1 103.308C177.004 103.309 176.91 103.339 176.831 103.393C176.752 103.447 176.691 103.524 176.655 103.613C176.62 103.702 176.611 103.799 176.631 103.893C176.65 103.987 176.697 104.073 176.765 104.14C176.833 104.207 176.92 104.253 177.014 104.271C177.108 104.289 177.206 104.279 177.294 104.242C177.383 104.205 177.458 104.143 177.511 104.063C177.564 103.984 177.593 103.89 177.593 103.794C177.592 103.73 177.579 103.666 177.554 103.607C177.529 103.548 177.493 103.494 177.447 103.449C177.401 103.403 177.347 103.368 177.287 103.344C177.228 103.319 177.164 103.307 177.1 103.308ZM166.935 107.896C166.839 107.897 166.746 107.927 166.667 107.981C166.588 108.035 166.527 108.112 166.491 108.201C166.455 108.29 166.447 108.387 166.466 108.481C166.486 108.575 166.533 108.661 166.601 108.728C166.669 108.795 166.756 108.841 166.85 108.859C166.944 108.877 167.041 108.867 167.13 108.83C167.218 108.793 167.294 108.731 167.347 108.651C167.4 108.572 167.428 108.478 167.428 108.382C167.429 108.318 167.416 108.254 167.391 108.194C167.366 108.134 167.33 108.08 167.284 108.035C167.238 107.99 167.184 107.954 167.124 107.93C167.064 107.906 167 107.895 166.935 107.896ZM174.065 109.19C173.915 109.189 173.768 109.233 173.644 109.316C173.519 109.399 173.421 109.517 173.364 109.656C173.306 109.794 173.291 109.946 173.32 110.093C173.349 110.24 173.421 110.375 173.526 110.481C173.632 110.587 173.767 110.66 173.914 110.689C174.061 110.718 174.213 110.704 174.352 110.646C174.49 110.589 174.608 110.492 174.692 110.368C174.775 110.243 174.819 110.097 174.819 109.947C174.819 109.847 174.799 109.748 174.761 109.656C174.722 109.564 174.666 109.481 174.595 109.411C174.525 109.34 174.441 109.285 174.349 109.247C174.256 109.209 174.158 109.19 174.058 109.19H174.065ZM159.759 113.616C159.609 113.615 159.463 113.659 159.338 113.742C159.213 113.825 159.116 113.944 159.058 114.082C159 114.22 158.985 114.373 159.014 114.52C159.044 114.667 159.116 114.802 159.222 114.908C159.328 115.014 159.463 115.086 159.61 115.115C159.757 115.144 159.909 115.129 160.048 115.072C160.186 115.014 160.304 114.917 160.387 114.792C160.47 114.667 160.514 114.52 160.514 114.37C160.514 114.17 160.434 113.978 160.293 113.837C160.151 113.695 159.959 113.616 159.759 113.616ZM179.884 115.826C179.734 115.826 179.588 115.87 179.463 115.953C179.338 116.036 179.241 116.154 179.183 116.292C179.126 116.43 179.11 116.583 179.139 116.73C179.168 116.877 179.24 117.012 179.346 117.118C179.452 117.224 179.587 117.296 179.733 117.326C179.88 117.355 180.033 117.34 180.171 117.283C180.31 117.226 180.428 117.129 180.511 117.004C180.594 116.88 180.639 116.733 180.639 116.583C180.639 116.383 180.559 116.191 180.418 116.049C180.277 115.907 180.085 115.827 179.884 115.826ZM166.935 116.206C166.786 116.206 166.64 116.25 166.516 116.333C166.392 116.416 166.295 116.534 166.238 116.672C166.181 116.81 166.166 116.962 166.195 117.108C166.224 117.254 166.296 117.389 166.402 117.494C166.507 117.6 166.642 117.672 166.788 117.701C166.934 117.73 167.086 117.715 167.224 117.658C167.362 117.601 167.48 117.504 167.563 117.38C167.646 117.256 167.69 117.11 167.69 116.961C167.69 116.761 167.61 116.569 167.469 116.427C167.327 116.286 167.135 116.206 166.935 116.206Z" fill="#FFC800"/>
<path d="M205.679 149.208C205.919 149.09 206.179 149.02 206.445 149L206.45 149.005C206.724 148.985 206.997 149.042 207.239 149.171C207.744 149.444 208.033 150.009 208.126 150.704C208.309 152.074 207.874 153.701 207.411 155.044C207.136 155.856 206.82 156.652 206.462 157.431C206.448 157.458 206.432 157.486 206.415 157.514C206.324 157.647 206.184 157.738 206.025 157.767C205.867 157.797 205.704 157.762 205.571 157.671C204.541 156.956 203.552 156.184 202.61 155.356C201.897 154.747 201.252 154.064 200.684 153.317C200.438 152.99 200.243 152.627 200.108 152.241C199.964 151.857 199.964 151.435 200.108 151.051C200.223 150.767 200.418 150.521 200.668 150.343C200.917 150.164 201.213 150.061 201.52 150.044C202.044 150.055 202.556 150.205 203.003 150.479C203.358 150.666 203.685 150.9 203.978 151.174C204.378 150.303 204.948 149.56 205.679 149.208Z" fill="#E10054"/>
<g clip-path="url(#clip0_2077_36052)">
<path d="M86.5476 115.205C86.2806 117.163 85.7466 119.106 84.8566 120.857C84.1595 122.221 82.6762 124.268 81.801 125.054C80.3474 126.375 77.6181 127.65 75.4376 128.051C74.1175 128.288 74.1323 128.288 71.6552 128.021C69.0445 127.739 67.4574 127.339 65.8406 126.553C60.8715 124.15 57.9048 119.151 57.89 113.203C57.89 112.15 57.979 110.993 58.1125 110.384C58.8245 107.195 60.8566 103.635 62.9629 101.915C63.3931 101.559 63.7936 101.277 63.8529 101.277C63.9123 101.292 63.9568 105.638 63.9568 110.948V120.619C63.9568 122.132 65.5587 123.052 66.8641 123.215C68.021 123.363 75.0371 123.378 77.3214 123.215C79.2349 123.082 79.7837 122.844 80.3029 121.939C80.8072 121.049 80.9704 119.996 81.0742 116.985L81.1484 114.953H81.1632C81.1632 114.923 81.1632 114.834 81.1484 114.671L81.1632 114.449H81.1484C81.1039 112.417 80.9555 105 80.8665 100.684C83.0767 101.663 84.6045 103.621 85.5538 105.786C86.4735 107.892 86.8591 110.132 86.785 112.402C86.7553 113.336 86.6811 114.271 86.5476 115.205Z" fill="#FAF1CC"/>
<path d="M71.7886 120.575C72.3523 120.916 72.6489 120.931 73.2126 120.649C73.9988 120.249 74.3251 119.032 73.8949 118.187C73.6131 117.638 73.2571 117.445 72.5006 117.445C71.3585 117.445 71.1508 118.632 71.1063 118.854C70.958 119.448 71.225 120.234 71.7886 120.575ZM72.2188 118.662C72.3374 118.543 72.4709 118.484 72.6044 118.469C72.9753 118.454 73.2719 118.884 73.0346 119.374C72.8566 119.73 72.3523 119.922 72.1446 119.715C71.9666 119.566 72.0259 118.854 72.2188 118.662Z" fill="#EFCA87"/>
<path d="M65.4104 122.34C65.4104 122.34 63.9864 123.141 65.9592 124.684C66.9827 125.485 72.6193 125.603 76.4314 125.307C80.2435 125.01 82.2163 123.542 82.4981 121.495C82.7948 119.448 82.7503 110.815 82.7948 107.759C82.8393 105.015 82.4536 100.758 82.4536 100.758L80.3918 99.9717L80.555 121.539L69.9641 123.423L65.4104 122.34Z" fill="#FAF1CC" style="mix-blend-mode:multiply"/>
<path d="M64.8616 95.3288C64.8616 95.3288 65.3214 98.2954 67.7985 98.2657C69.9938 98.2212 74.9926 97.9097 76.6391 99.3486C80.3622 102.612 78.1521 113.381 77.8109 118.32C77.7367 119.477 77.4697 123.141 77.4697 123.141L79.5167 122.548L80.3919 118.572L79.7985 94.7355L78.0334 93.8158H68.8813L65.8257 93.7861L64.8616 95.3288Z" fill="#FAF1CC"/>
<path d="M87.3931 109.346C87.2299 108.1 86.9481 106.869 86.4734 105.712C85.9543 104.451 85.2423 103.294 84.3671 102.256C83.4178 101.144 82.2608 100.268 80.8962 99.7196C80.8813 99.7196 80.8665 99.7196 80.8517 99.7048C80.822 98.5033 80.8072 97.6875 80.8072 97.4946C80.6737 94.5873 80.5105 94.1423 79.3239 93.5342C78.8937 93.3117 78.1817 93.0892 77.7367 93.0299C77.5142 93.0002 76.9802 92.9854 76.2534 92.9854C73.1236 92.9854 66.4635 93.2375 66.0334 93.4007C65.4401 93.6232 64.8171 94.2313 64.4314 94.9582C64.1496 95.4773 64.1051 95.8481 64.0606 97.8654L64.0012 100.179L63.3782 100.476C62.5476 100.862 60.6934 102.731 59.8035 104.095C58.7651 105.683 57.8455 107.729 57.4005 109.391C57.0593 110.666 57 111.141 57 113.144C57 115.665 57.2373 117.015 58.1273 119.477C59.136 122.281 61.7318 125.322 64.5056 126.953C66.7454 128.273 69 128.822 72.6341 128.971C75.4969 129.074 76.6094 128.896 78.7602 127.977C81.4895 126.805 82.8393 125.678 84.4265 123.26C84.9753 122.429 85.4351 121.747 85.4499 121.747C85.4499 121.747 86.0284 120.471 86.1768 120.1C86.2954 119.818 86.5773 118.928 86.8146 118.113C87.5859 115.413 87.7491 112.135 87.3931 109.346ZM64.8764 108.219C64.8912 101.47 64.9802 95.7888 65.0544 95.596C65.2917 94.9582 65.9592 94.3055 66.5229 94.1572C66.8195 94.083 69.5785 93.994 72.6341 93.9792C73.9839 93.9792 75.0074 93.9643 75.7936 93.9643C78.152 93.9643 78.3597 94.0237 78.8047 94.261C79.131 94.439 79.487 94.7653 79.5909 94.9878C79.754 95.3587 80.2138 111.052 80.2138 114.36H80.199V115.621C80.199 117.95 79.932 120.545 79.6502 121.124C79.131 122.162 78.9679 122.207 75.3634 122.34C73.5834 122.414 71.1805 122.459 70.0383 122.459C66.419 122.429 65.7367 122.236 65.1434 121.064C64.8467 120.501 64.8467 120.234 64.8764 108.219ZM86.5476 115.205C86.2806 117.163 85.7466 119.106 84.8566 120.857C84.1595 122.221 82.6761 124.268 81.801 125.055C80.3473 126.375 77.618 127.65 75.4376 128.051C74.1174 128.288 74.1323 128.288 71.6551 128.021C69.0445 127.739 67.4574 127.339 65.8405 126.553C60.8714 124.15 57.9048 119.151 57.89 113.203C57.89 112.15 57.979 110.993 58.1125 110.385C58.8245 107.195 60.8566 103.636 62.9629 101.915C63.3931 101.559 63.7936 101.277 63.8529 101.277C63.9122 101.292 63.9567 105.638 63.9567 110.948V120.619C63.9567 122.132 65.5587 123.052 66.864 123.215C68.021 123.364 75.0371 123.378 77.3214 123.215C79.2349 123.082 79.7837 122.844 80.3028 121.94C80.8072 121.05 80.9703 119.996 81.0742 116.985L81.1483 114.953H81.1632C81.1632 114.924 81.1632 114.835 81.1483 114.671L81.1632 114.449H81.1483C81.1038 112.417 80.9555 105 80.8665 100.684C83.0766 101.663 84.6045 103.621 85.5538 105.786C86.4734 107.893 86.8591 110.132 86.7849 112.402C86.7553 113.336 86.6811 114.271 86.5476 115.205Z" fill="#EFCA87"/>
<path d="M70.6316 96.4118C70.869 96.4711 72.1446 96.5008 73.4499 96.486C75.5117 96.4711 75.8232 96.4266 75.8677 96.219C75.8974 96.0855 75.7936 95.9371 75.6452 95.8778C75.2447 95.7295 72.5599 95.5515 71.2843 95.5663C70.9876 95.5663 70.78 95.5811 70.6761 95.6108C70.0235 95.774 69.9938 96.2635 70.6316 96.4118Z" fill="#EFCA87"/>
</g>
<defs>
<clipPath id="clip0_2077_36052">
<rect width="30.5711" height="36" fill="white" transform="translate(57 93)"/>
</clipPath>
</defs>
</svg>