<svg xmlns="http://www.w3.org/2000/svg" width="121" height="111" viewBox="0 0 121 111" fill="none" >
<g clip-path="url(#clip0_851_23926)">
<path opacity="0.1" d="M61.7499 22.0798C61.7499 22.3618 61.6343 22.6309 61.4416 22.8232C61.2489 23.0154 60.9791 23.1308 60.6965 23.1308C60.4909 23.1308 60.2854 23.0667 60.1055 22.9513C59.9257 22.836 59.7972 22.6694 59.7201 22.4771C59.643 22.2849 59.6173 22.0798 59.6559 21.8747C59.6944 21.6697 59.7972 21.4774 59.9385 21.3365C60.0798 21.1955 60.2725 21.0929 60.4781 21.0545C60.6836 21.016 60.8892 21.0289 61.0819 21.1186C61.2746 21.1955 61.4416 21.3365 61.5572 21.5031C61.6857 21.6697 61.7499 21.8747 61.7499 22.0798Z" fill="#E10054"/>
<path opacity="0.2" d="M36.3005 71.7563C36.3005 71.7563 14.384 70.7822 13.0864 71.987C11.7889 73.2045 9.57927 76.6521 13.7416 79.7153C17.9168 82.7784 21.7323 82.804 25.5863 81.6634C29.4532 80.5227 33.8082 77.1007 35.0544 75.6268C36.2876 74.1401 36.8529 72.7303 36.3005 71.7563Z" fill="#FCE500"/>
<path opacity="0.2" d="M30.0312 53.4416C29.5045 52.8393 28.8622 52.3523 28.1556 52.0062C27.4362 51.6602 26.6525 51.4679 25.856 51.4423C23.4023 51.3654 23.8263 52.788 23.9804 55.8768C24.1346 58.9655 24.1603 69.3084 24.1603 69.3084H30.6093L30.0312 53.4416Z" fill="#FCE500"/>
<path opacity="0.2" d="M51.6523 16.9789C51.6523 16.9789 30.0312 22.695 26.9352 23.6947C23.8391 24.6944 21.0642 25.5659 21.0642 25.5659L20.6917 27.1679L25.0724 26.0016C25.0724 26.0016 45.9483 20.7982 48.5305 20.3624C51.1127 19.9267 52.1276 19.8369 52.1276 19.8369L51.6523 16.9789Z" fill="#FCE500"/>
<path opacity="0.2" d="M68.2889 13.1083L90.0899 7.45626L97.8621 5.36719C97.8621 5.36719 98.3503 6.90516 97.6437 7.37937C96.9372 7.86639 69.0983 14.2746 69.0983 14.2746L68.2889 13.1083Z" fill="#FCE500"/>
<path opacity="0.2" d="M117.8 60.2472C117.8 60.2472 95.3698 59.0296 92.5178 61.3622C89.6658 63.6948 91.6185 69.4366 96.7444 70.7567C101.87 72.0639 108.281 69.8595 112.764 67.2706C117.273 64.6817 117.415 62.8233 117.8 60.2472Z" fill="#FCE500"/>
<path opacity="0.2" d="M106.457 57.6326C106.457 57.6326 105.313 45.0469 106.431 42.1247C107.549 39.2026 111.608 41.4711 111.608 41.4711L111.788 48.0716V57.7223L106.457 57.6326Z" fill="#FCE500"/>
<path opacity="0.2" d="M62.6748 90.8143C62.6748 90.8143 57.1764 95.0693 55.7504 95.2488C54.3244 95.441 55.1466 93.0059 55.1466 93.0059L55.6476 84.688L61.5057 70.59C61.5057 70.59 61.8269 79.6512 61.8269 79.8178C61.8526 79.9844 62.6748 90.8143 62.6748 90.8143Z" fill="#FCE500"/>
<path d="M63.2273 8.19959C62.1739 7.91762 61.0691 7.94326 60.0413 8.27648C58.3841 8.81477 55.6349 9.32743 55.1853 11.5447C54.7356 13.7619 55.211 15.2743 54.4273 15.223C53.9263 15.1974 53.4381 15.2614 52.9628 15.4281C52.9628 15.4281 52.4489 16.825 53.0398 18.222C53.6308 19.619 54.1704 20.67 54.0676 21.8491C53.9648 23.0154 55.7377 23.951 55.3394 24.7328C54.9283 25.5274 54.2988 26.2964 54.8641 26.745C55.4293 27.1935 57.1508 26.8988 57.305 26.3348C57.4591 25.7709 57.7674 22.759 57.5234 22.272C57.2921 21.785 56.5727 21.503 55.7891 21.6825C55.0054 21.8491 54.029 21.1442 54.3888 20.2598C54.7485 19.3755 55.8533 18.8757 56.3286 19.5037C56.8039 20.1317 57.3949 22.8616 57.9987 22.1439C58.6025 21.4261 58.9879 18.3117 58.9879 18.3117C58.9879 18.3117 57.8445 17.876 57.5491 16.8635C57.2407 15.851 57.6775 13.9413 57.9602 14.595C58.2428 15.2486 58.2556 17.4146 60.1569 17.3505C62.0583 17.2864 62.5464 15.082 62.5336 14.941C62.5079 14.8 62.9961 13.0826 64.0495 13.057C65.1029 13.0314 66.2206 14.9538 66.439 15.851C66.6574 16.7481 66.3748 17.7735 67.3768 17.248C68.3789 16.7097 69.5479 14.5694 68.2504 13.1083C66.94 11.6472 66.8373 11.9163 67.0428 11.1986C67.2355 10.4809 67.3768 9.57094 66.7473 9.75037C66.1307 9.91699 65.7324 11.0705 65.2057 10.5065C64.6918 9.94262 64.2165 8.43028 63.1759 8.19959H63.2273Z" fill="#9A702D"/>
<path d="M56.6626 31.0642C56.6626 31.0642 53.7978 31.4615 52.3461 31.1924C50.8944 30.936 49.7639 32.9995 47.4643 34.8194C45.1519 36.6265 43.1478 38.5746 43.1478 38.5746C43.1478 38.5746 45.897 39.6384 46.9762 40.5355C48.0553 41.4327 49.7639 42.5862 49.8924 43.2911C50.0208 43.996 50.6118 43.1117 51.3697 43.0091C52.1277 42.9066 53.2968 40.9969 54.2089 40.6253C55.121 40.2536 54.1318 42.317 54.0419 42.7272C53.9519 43.1373 55.8147 45.8031 56.6626 47.8794C57.5105 49.9556 57.4848 51.4423 57.4591 52.2754C57.4334 53.1085 57.639 55.7615 57.6646 55.9153C57.6903 56.0691 57.2664 57.7352 59.6816 58.4529C62.0839 59.1706 65.9379 58.7733 69.1882 58.0556C72.4384 57.3379 73.3377 57.2354 73.4533 56.5817C73.5689 55.9281 72.5412 56.0819 72.3228 54.2491C72.0915 52.4164 72.0915 48.8406 72.2328 46.9438C72.3613 45.0469 72.5155 42.7143 72.5155 42.2273C72.5155 41.7403 73.2991 42.3427 74.648 42.5477C75.9969 42.7528 75.4574 42.0607 74.8536 40.7919C74.2498 39.523 74.0314 37.8441 73.9415 37.6006C73.8515 37.3571 71.3978 34.8451 71.0381 34.1914C70.6784 33.5378 70.0232 33.0508 69.8947 32.6534C69.7663 32.2561 69.2396 31.8716 68.9184 31.7435C68.5972 31.6153 67.2355 31.3462 67.2355 31.3462C67.2355 31.3462 68.4688 33.8454 67.7622 35.3321C67.0556 36.8188 66.7344 36.4343 66.0793 36.3189C65.4241 36.2036 64.6276 35.7038 64.0623 35.3705C63.4971 35.0373 62.829 34.9476 61.9426 36.6265C61.069 38.3055 61.1975 39.0873 59.8486 39.4462C58.4997 39.805 57.639 38.5106 57.1251 37.434C56.5855 36.3189 56.213 32.6919 56.6626 31.0642Z" fill="#FFC800"/>
<path d="M71.1664 59.5423C71.1664 59.5423 70.4984 60.6189 66.6444 60.5933C62.7904 60.5676 59.0905 59.9525 57.8187 59.5423C56.5469 59.1322 55.1209 59.6192 54.5685 62.08C54.0032 64.5407 54.3758 66.1043 53.3352 69.2444C52.2817 72.3844 47.9909 91.4168 47.3486 92.5959C46.7191 93.7878 44.3168 96.5818 45.9226 97.684C47.5284 98.7734 48.9159 99.2476 50.0721 98.9913C51.2283 98.735 51.7936 97.9147 51.7165 96.3511C51.6394 94.7875 53.1425 91.5578 53.1425 91.5578L61.5442 70.5901C61.5442 70.5901 61.7883 68.9624 62.5334 68.7958C63.2785 68.6292 65.9507 68.219 66.4388 68.155C66.927 68.0909 67.261 68.6804 66.6829 69.3853C66.1048 70.0774 65.5267 70.2953 65.8864 71.436C66.2461 72.5766 67.8263 88.1486 68.0704 89.8147C68.3016 91.4809 68.7256 95.6206 68.4172 96.6459C68.0961 97.6712 67.7107 98.5171 68.3916 98.9657C69.0853 99.4142 70.1387 100.234 72.2584 100.158C74.3781 100.081 74.6094 99.363 74.3524 97.4918C74.1983 96.2998 74.1726 95.0951 74.2754 93.9032L73.299 80.0486L72.9265 68.4497L72.0786 59.8115L71.1664 59.5423Z" fill="#4074C1"/>
<path d="M72.2971 28.7828C72.2971 28.7828 72.5797 30.5131 72.0273 31.3205C71.4878 32.1279 71.2822 32.1279 71.2822 32.1279C71.2822 32.1279 71.7062 33.4096 72.3742 33.0379C73.0551 32.6662 74.1214 31.0257 73.98 30.6028C73.8516 30.167 72.2971 28.7828 72.2971 28.7828Z" fill="#FCE5EE"/>
<path d="M59.6302 26.1426C59.6302 26.1426 59.2705 28.9494 60.4267 29.8978C61.5829 30.8462 62.3023 30.4745 62.3023 30.4745C62.3023 30.4745 61.4801 28.4111 61.3902 27.6421C61.3003 26.8731 59.6302 26.1426 59.6302 26.1426Z" fill="#FCE5EE"/>
<path d="M58.4869 0.689209C55.6221 0.689209 54.1447 1.54791 53.8878 3.36784C53.785 4.09838 54.0933 5.07243 54.5301 5.46974C54.787 5.70043 54.787 5.72606 54.1704 6.22591C53.4895 6.77701 52.8986 7.50755 52.693 8.03302C52.359 8.86609 52.6031 10.0196 53.2711 10.7629C53.5409 11.0321 53.6822 11.3909 53.6951 11.7754C53.7721 11.4037 53.8878 11.0449 54.0291 10.6988L53.6051 9.92985C52.8986 8.63539 53.6308 7.49473 55.5707 6.32844C56.9453 5.50819 58.3713 5.12369 60.3368 5.03398C62.1354 4.95708 63.0989 5.09806 64.0495 5.57227C64.8589 5.98239 65.1415 6.35407 65.1415 7.03334C65.1415 7.50755 64.8075 8.57131 64.6405 8.86609C64.4863 9.16087 64.5634 9.2634 64.4735 9.17368L65.2571 9.86577C65.2443 9.67352 65.3471 9.40438 65.5911 8.91735C66.1307 7.82796 66.2335 6.98207 65.9252 6.16182C65.6425 5.41847 65.0644 4.94426 64.011 4.57259C63.2659 4.30344 63.2659 4.30344 63.3173 3.77797C63.4843 1.75297 62.1996 0.817373 59.0778 0.702025C58.8851 0.689209 58.6796 0.689209 58.4869 0.689209ZM96.6546 0.945538C95.4084 0.945538 95.0744 2.0093 96.0122 2.97053L96.4362 3.41911L94.9973 3.8036C94.2137 4.00866 91.5159 4.76483 89.0236 5.48255C81.6496 7.59726 67.8393 11.1987 67.3897 11.1346C67.3255 11.3909 67.3255 11.6729 67.4154 11.9292C67.4154 11.9292 67.531 12.0317 67.5567 12.0446C67.5567 12.0061 67.8265 11.9164 67.9806 11.8908C72.9909 10.7245 74.995 10.2374 79.2344 9.1096C82.0221 8.37906 86.4799 7.14869 89.1521 6.39252C91.8113 5.63635 94.8046 4.79047 95.8067 4.53414L97.6181 4.05993L97.6309 5.48255L97.6438 6.90518L95.9608 7.34093C91.002 8.63539 83.5894 10.481 81.1357 11.0449C79.5941 11.3909 76.3696 12.1471 73.9415 12.7238C71.5263 13.3006 69.2396 13.8517 69.1625 13.8773C69.1368 13.8901 69.0726 13.8517 69.0084 13.8004C69.0855 14.0696 69.1368 14.3387 69.1625 14.6078L71.4236 14.0952C79.4271 12.2624 86.8011 10.545 92.9804 8.93017C94.8946 8.43033 96.4747 8.05865 96.5133 8.0971C96.5518 8.13555 96.4362 8.43033 96.2692 8.76356C95.8966 9.50691 92.3638 18.6963 91.4131 21.439C91.0277 22.5412 90.0256 25.3865 89.1778 27.7575C85.7091 37.5493 83.5509 45.0981 82.8058 50.0837C82.3048 53.4416 82.7158 56.069 83.962 57.4019L84.3217 57.7864L83.8849 58.235C83.3196 58.8758 82.9214 59.632 82.7159 60.465C82.4975 61.3237 82.9471 63.0668 83.7179 64.374C84.3988 65.5275 85.9661 67.1936 87.1351 68.0267C90.3468 70.3209 96.2049 71.7307 101.626 71.5256C105.93 71.359 109.167 70.2055 113.227 67.3987C116.13 65.3865 117.852 63.6179 118.391 62.0927C118.635 61.4006 118.674 60.2343 118.455 59.6191C118.327 59.2346 118.353 59.1321 118.661 58.722C118.944 58.3247 119.188 57.8889 119.38 57.4532C120.048 56.0049 120.1 52.5701 119.496 50.5451C119.368 50.1222 118.635 48.0844 117.877 46.0209C116.002 40.9584 115.244 38.7924 112.328 30.1414C110.953 26.0785 109.167 20.8751 108.345 18.5809C107.523 16.2868 106.148 12.3522 105.3 9.85295L103.759 5.30312L104.26 4.75202C105.583 3.29094 105.467 1.36848 104.054 1.36848C103.566 1.36848 102.654 1.91959 102.423 2.34253C102.281 2.62449 102.269 2.62449 101.678 2.26563C101.035 1.89395 99.9819 1.79142 99.301 2.04775C99.0184 2.15028 98.9156 2.13747 98.8128 1.9324C98.5816 1.49664 97.3611 0.932721 96.6546 0.945538ZM58.5126 1.58636C59.4376 1.58636 60.4396 1.66326 60.7608 1.75297C62.0326 2.12465 62.6749 2.93208 62.3538 3.7267C62.2124 4.05993 62.1611 4.07275 60.7865 4.09838C59.2705 4.12401 57.7932 4.38034 56.6883 4.8161C56.3158 4.95708 55.9175 5.12369 55.8019 5.16214C55.3523 5.34157 54.8256 4.5854 54.8256 3.75233C54.8256 2.84237 55.121 2.40661 56.046 1.95804C56.7911 1.59918 56.9581 1.57354 58.5126 1.58636ZM96.6417 1.80424C96.8473 1.80424 97.1813 1.90677 97.6566 2.12465C98.3118 2.43224 98.5687 2.76547 98.2861 2.9449C98.0934 3.0218 97.8879 3.07306 97.6823 3.0987C97.2198 3.18841 97.1427 3.14996 96.8087 2.7142C96.3334 2.12465 96.2949 1.81705 96.6417 1.80424ZM104.067 2.20155C104.363 2.17591 104.414 2.54759 104.183 3.26531C104.067 3.61135 103.913 3.94458 103.707 4.25218L103.463 4.57259L103.129 3.85487L102.795 3.13715L103.309 2.66294C103.63 2.36816 103.9 2.21436 104.067 2.20155ZM100.033 2.76547C100.342 2.76547 100.637 2.82955 100.933 2.9449C101.536 3.20123 102.243 4.02148 102.41 4.67512C102.718 5.8286 101.947 7.35375 100.843 7.76388C100.29 7.96894 100.046 7.94331 99.5194 7.6229C98.3118 6.89236 98.1191 4.16246 99.1725 2.99617C99.3267 2.82955 99.6607 2.75265 100.033 2.76547ZM103.258 6.52068C103.258 6.67448 106.444 15.9408 108.204 20.9263C109.18 23.6819 110.709 28.1292 111.595 30.8206C113.548 36.729 115.347 41.8812 117.119 46.6361C119.008 51.6986 118.957 51.5063 118.957 53.8774C118.944 56.0818 118.841 56.6073 118.16 57.671C117.736 58.3375 117.582 58.4528 117.428 58.1965C117.376 58.1196 117.042 57.9017 116.683 57.7223C116.143 57.4403 115.719 57.3763 114.178 57.2865L112.328 57.184L112.302 54.2362C112.289 52.6214 112.302 49.2891 112.328 46.8412C112.379 41.7018 112.276 40.7277 111.595 39.7024C111.261 39.2026 110.927 38.9334 110.169 38.5489C109.257 38.0875 109.039 38.0363 107.099 37.8568C105.763 37.7287 103.283 37.6646 100.187 37.6646C92.7492 37.6774 90.6037 38.0491 89.8073 39.4461C89.6017 39.8178 89.4604 40.2023 89.3833 40.6124C89.3319 40.9328 89.3576 43.8806 89.4475 47.1616C89.5375 50.4426 89.5503 54.0055 89.4989 55.0949L89.409 57.0687L88.407 56.9918C87.7518 56.9533 87.0837 56.979 86.4286 57.0687L85.1953 57.2609C84.5529 57.3634 83.5894 55.2231 83.461 53.4416C83.2811 50.9296 84.4373 45.4185 86.7112 37.7928C87.8802 33.8581 92.261 21.4646 94.8689 14.6719C97.2198 8.54568 97.9906 7.00771 98.3118 7.84077C98.3503 7.95612 98.6587 8.21245 98.9798 8.39188C100.354 9.19932 102.114 8.54568 103.001 6.89236C103.078 6.7642 103.155 6.63603 103.258 6.52068ZM53.5537 13.9158L52.1535 14.3387C50.4834 14.8514 47.6442 15.7485 45.5888 16.3252C44.6253 16.6072 42.4285 17.2352 40.707 17.7351C38.9855 18.2349 34.926 19.2987 31.7014 20.0933C28.4769 20.8879 24.9954 21.785 23.9549 22.1055C22.9143 22.4131 22.0407 22.6694 21.9893 22.6694C21.9379 22.6694 22.0021 22.3874 22.1178 22.0542C22.3875 21.3108 22.2591 20.8238 21.6938 20.4009C20.9487 19.8498 19.6769 20.4906 19.1373 21.6825C18.8932 22.208 18.8418 22.2464 18.3023 22.2464C16.8634 22.2464 15.1291 23.1436 14.7694 24.0664C14.5896 24.5406 14.4996 24.6175 14.2556 24.5406C13.5618 24.3227 13.3434 24.3227 12.8938 24.5278C11.4935 25.1942 11.7119 27.3346 13.2407 28.0779C13.4976 28.2189 13.7802 28.3086 14.0629 28.3727C14.3969 28.3727 13.7032 30.1798 12.1615 33.3839C10.1061 37.639 6.20065 46.3413 5.33992 48.5714C3.72123 52.8136 1.53729 59.696 0.907795 62.5797C0.316845 65.2968 0.522393 68.1292 1.43451 69.9364L1.78137 70.6284L1.49875 71.2693C1.03626 72.3587 1.01057 72.7303 1.33174 73.9607C1.70429 75.4218 2.4751 76.7291 3.75977 78.0748C6.00795 80.433 8.82139 81.8044 13.048 82.6246C17.9426 83.573 22.1049 83.4449 25.6763 82.2658C29.1963 81.0995 34.3479 77.6262 36.0308 75.2552C36.3648 74.7938 36.6474 74.3068 36.8658 73.7941C37.2898 72.615 37.0585 71.1027 36.3648 70.3593L36.0822 70.0645L36.9172 68.7957C38.1377 66.9501 38.2661 66.4887 38.2533 64.0536C38.2404 61.6185 38.1377 61.2725 36.2363 56.8123C35.0544 53.9671 33.6927 51.1987 32.1896 48.5201C31.5601 47.3666 29.8001 44.0215 28.2842 41.0738C25.5222 35.6781 23.184 31.3077 21.7966 28.9238C21.3855 28.2189 21.0643 27.6165 21.0772 27.6037C21.09 27.5909 22.2334 27.2961 23.608 26.9501C24.9826 26.604 27.8988 25.8479 30.0956 25.2711C33.7312 24.2971 36.0693 23.7075 44.2912 21.721C45.8329 21.3493 48.0682 20.8751 49.2501 20.67C50.432 20.465 51.5625 20.2727 51.768 20.2343C51.9736 20.1958 52.4232 20.1445 52.3718 20.0548L51.8708 19.2602C51.8708 19.2602 49.1859 19.7985 48.0553 19.9779C46.5137 20.2214 34.6819 23.1564 29.4918 24.579C27.4235 25.1429 24.7385 25.8607 23.5309 26.1683C22.3233 26.4759 21.3084 26.7322 21.2699 26.7322C21.2313 26.7322 21.2699 26.5271 21.3341 26.2836C21.5011 25.6941 21.5011 24.6175 21.3341 24.1817C21.2056 23.8485 21.2313 23.8229 22.349 23.4896C24.3403 22.8744 27.3335 22.067 29.5689 21.5287C37.0842 19.7216 39.2296 19.1577 43.6746 17.8248C45.1777 17.3762 46.8991 16.8892 47.5158 16.7354C48.1324 16.5816 49.173 16.274 49.8153 16.0561C50.7788 15.7229 52.9499 15.0949 53.2197 15.0821C53.8492 14.3003 53.5794 13.9542 53.5794 13.9542L53.5537 13.9158ZM20.9616 21.0289C20.9873 21.0289 21.0258 21.0289 21.0515 21.0289C21.4883 21.093 21.5268 21.5031 21.1414 22.2464C20.9616 22.5925 20.756 22.8744 20.6789 22.9001C20.4477 22.9513 19.6255 22.4899 19.6255 22.3105C19.6255 22.208 19.8696 21.8748 20.1779 21.5544C20.5248 21.1955 20.756 21.0289 20.9616 21.0289ZM18.3151 23.2718C18.6363 23.2589 18.9703 23.3102 19.2786 23.3999C21.1671 24.0407 20.756 27.027 18.6106 28.2573C17.4929 28.8982 16.5166 28.8084 15.8229 27.9882C14.6923 26.6553 15.1034 24.3355 16.5937 23.605C17.1461 23.3743 17.7242 23.2589 18.3151 23.2718ZM13.6389 25.3865C14.1271 25.3865 14.1271 25.3865 14.2042 26.1554C14.2427 26.5399 14.3069 26.9244 14.3969 27.3089C14.4483 27.5268 14.4483 27.6934 14.384 27.6934C14.0372 27.6806 13.1893 27.027 12.9837 26.604C12.7782 26.1811 12.7782 26.0657 12.9452 25.7581C13.0994 25.4634 13.2535 25.3865 13.6389 25.3865ZM20.4605 28.1035L21.5397 30.167C22.1306 31.2948 22.7087 32.3714 22.8243 32.5508C22.94 32.7303 24.5201 35.8062 26.3443 39.382C28.1686 42.9578 30.3397 47.0975 31.149 48.597C33.1274 52.2112 34.1937 54.4029 35.6325 57.8377C37.0842 61.2981 37.3797 62.3875 37.3797 64.1946C37.3797 65.9505 37.1485 66.681 36.1079 68.219C35.26 69.475 35.2471 69.475 34.8874 69.2827C34.669 69.1674 33.7569 69.052 32.6778 68.9879L30.8279 68.8854L30.8022 65.9505C30.7893 64.3356 30.8022 61.0033 30.8279 58.5554C30.8792 53.416 30.7765 52.4419 30.0956 51.4166C29.7616 50.9168 29.4276 50.6476 28.6696 50.2503C27.7575 49.7889 27.5391 49.7377 25.5992 49.5582C24.2632 49.4301 21.7838 49.366 18.6877 49.366C11.2494 49.3788 9.10402 49.7505 8.30752 51.1475C8.11482 51.5192 7.9735 51.9165 7.88358 52.3266C7.83219 52.647 7.85788 55.5948 7.94781 58.8758C8.03774 62.1568 8.06343 65.7069 8.01204 66.7835L7.92212 68.7316L6.22635 68.7444C4.33788 68.7572 3.68269 68.911 2.89904 69.5134C2.71919 69.6672 2.52649 69.7954 2.32094 69.9107C2.20532 69.9107 1.66575 68.3087 1.52444 67.5525C1.24181 66.0145 1.43451 63.8101 2.07685 61.3878C3.06605 57.6454 4.99306 51.7883 6.43189 48.1869C7.26693 46.1106 12.2258 35.191 13.382 32.8841C13.8316 31.9869 14.3969 30.7309 14.641 30.0773C14.8851 29.4236 15.1034 28.8725 15.1163 28.8469C15.142 28.8213 15.3989 28.9622 15.6687 29.1545C16.8891 29.9876 18.4051 29.7825 19.8824 28.5906L20.4605 28.1035ZM98.9028 38.3823L99.969 38.4464C101.857 38.5617 102.513 39.3051 102.924 41.689C103.309 43.9703 103.425 46.226 103.425 51.7499V57.2225L100.945 57.1968C99.5836 57.184 96.616 57.1456 94.3678 57.1199L90.2697 57.0815L90.3725 54.7489C90.4239 53.4673 90.3982 49.7761 90.3083 46.5592C90.1284 40.1766 90.1156 40.292 90.8864 39.5871C91.2846 39.2282 92.1711 38.8437 92.6335 38.8437C92.9547 38.8437 92.9676 38.8822 92.9676 39.9203C92.9804 42.1247 93.3658 42.4579 95.8709 42.4579C97.7594 42.4579 98.5944 42.2785 98.9927 41.7787C99.2496 41.4454 99.2753 41.2916 99.1982 40.2279C99.1725 39.7152 99.1083 39.2154 99.0184 38.7155L98.9028 38.3823ZM96.7702 38.5617H98.0549L98.1448 39.4205C98.299 40.8559 98.2604 41.3045 97.9906 41.4198C97.6438 41.5608 94.7404 41.6377 94.3293 41.5095C93.9182 41.3814 93.8026 41.0225 93.7769 39.728L93.7641 38.7412L94.6248 38.6515C95.1001 38.6002 96.0636 38.5617 96.7702 38.5617ZM103.001 38.5746C103.977 38.5617 107.69 38.8309 108.563 38.9975C110.375 39.3307 111.094 40.1125 111.287 41.9709C111.338 42.4323 111.39 46.0465 111.428 50.0068L111.48 57.2096H104.388L104.298 56.838C104.247 56.6329 104.247 54.9283 104.286 53.0443C104.414 47.5845 104.054 41.9197 103.463 40.151C103.335 39.7665 103.168 39.4076 102.962 39.0616C102.808 38.8437 102.731 38.6386 102.77 38.5874C102.834 38.5746 102.924 38.5617 103.001 38.5746ZM17.3645 50.0837L18.4308 50.1478C20.3064 50.2631 20.9744 51.0065 21.3727 53.3904C21.7581 55.6717 21.8737 57.9274 21.8737 63.4512V68.9239L19.3943 68.8854C18.0325 68.8726 15.0649 68.8341 12.8167 68.8085L8.71862 68.7701L8.82139 66.4375C8.87277 65.1558 8.84708 61.4647 8.75716 58.235C8.5773 51.8524 8.56445 51.9677 9.33526 51.2756C9.73351 50.9168 10.6199 50.5323 11.0696 50.5323C11.3907 50.5323 11.4036 50.5707 11.4164 51.6089C11.4293 53.8133 11.8147 54.1465 14.3198 54.1465C16.2083 54.1465 17.0433 53.9671 17.4416 53.4673C17.6985 53.134 17.7242 52.9802 17.6471 51.9165C17.6214 51.4038 17.5572 50.904 17.4672 50.4041L17.3645 50.0837ZM15.2319 50.2503H16.5166L16.6065 51.109C16.7607 52.5445 16.7221 52.993 16.4524 53.1084C16.1055 53.2494 13.2021 53.3263 12.791 53.1981C12.3799 53.0699 12.2643 52.7111 12.2386 51.4166L12.2258 50.4298L13.0865 50.34C13.5618 50.3016 14.5253 50.2503 15.2319 50.2503ZM21.4626 50.276C22.4518 50.2631 26.1516 50.5323 27.0252 50.6989C28.8366 51.0321 29.556 51.8139 29.7487 53.6723C29.8001 54.1337 29.8515 57.7479 29.8772 61.7082L29.9286 68.911H22.85L22.7601 68.5394C22.7087 68.3343 22.7087 66.6297 22.7473 64.7457C22.8757 59.2859 22.516 53.6211 21.9251 51.8524C21.7966 51.4679 21.6296 51.109 21.424 50.763C21.2699 50.5451 21.1928 50.34 21.2313 50.2888C21.2956 50.276 21.3855 50.2631 21.4626 50.276ZM92.4922 52.4932C92.094 52.4932 91.9655 52.5445 91.9398 52.6598C91.7985 53.0187 92.0554 53.2109 92.8262 53.3263C93.5328 53.4032 94.2394 53.4416 94.9459 53.4544C96.1792 53.4673 96.3077 53.4544 96.2692 53.2237C96.1921 52.8521 95.28 52.6214 93.5585 52.5317C93.0703 52.4932 92.7363 52.4804 92.4922 52.4932ZM92.9676 54.8642C92.6978 54.8642 92.6207 54.9283 92.5822 55.0437C92.4665 55.3513 92.5693 55.441 93.263 55.5563C94.4578 55.7486 95.1772 55.6589 95.1772 55.3256C95.1772 55.0949 94.9203 55.018 93.6741 54.9027C93.3401 54.8771 93.1217 54.8642 92.9676 54.8642ZM88.0729 57.9658C88.8951 57.9658 89.9871 57.9786 91.4259 58.0043C94.2908 58.0427 100.933 58.1324 106.2 58.1837C115.604 58.2862 115.771 58.299 116.349 58.5938C117.209 59.0296 117.556 59.6191 117.633 60.6701C117.723 62.003 117.415 62.6438 116.066 63.9767C113.008 67.0142 108.795 69.3468 104.851 70.1799C103.528 70.4618 99.7506 70.6541 98.5302 70.5131C95.0744 70.0902 93.4429 69.7826 91.6443 69.1802C90.1927 68.7188 88.8181 68.0395 87.5591 67.1808C85.9275 66.0273 84.1804 63.8742 83.7179 62.4644C83.3325 61.2853 83.7693 59.7089 84.7199 58.7989C85.4137 58.1324 85.5935 57.9658 88.0729 57.9658ZM10.9411 64.1946C10.5429 64.1946 10.4144 64.2459 10.3887 64.3612C10.2474 64.7201 10.5043 64.9123 11.2751 65.0277C11.9817 65.1046 12.6883 65.143 13.3948 65.1558C14.6281 65.1686 14.7566 65.143 14.718 64.9251C14.641 64.5535 13.7288 64.3228 12.0074 64.233C11.5321 64.1946 11.198 64.1818 10.9411 64.1946ZM11.4164 66.5656C11.1466 66.5656 11.0696 66.6297 11.031 66.7451C10.9154 67.0527 11.0182 67.1424 11.7119 67.2577C12.9067 67.45 13.6261 67.3731 13.6261 67.0398C13.6261 66.8092 13.3691 66.7323 12.123 66.6169C11.8018 66.5785 11.5834 66.5656 11.4164 66.5656ZM61.3132 71.5128L61.4031 75.268C61.4545 77.1776 61.5958 80.1767 61.7243 81.9454C61.8527 83.714 62.0711 86.9053 62.2253 89.0457C62.3795 91.186 62.5979 94.4157 62.7263 96.2229L62.9576 99.491L63.4714 100.222C64.1523 101.196 64.6148 102.067 64.6148 102.4C64.6148 102.657 64.5249 102.657 62.6235 102.567C61.5187 102.516 59.5789 102.541 58.2557 102.618C56.9453 102.695 55.2881 102.81 54.5686 102.862L53.2583 102.951L53.361 102.618C53.6437 101.734 54.0162 100.875 54.3374 100.375L54.6971 99.8243L57.6904 99.8627C59.6816 99.8883 60.7351 99.8499 60.8378 99.7474C61.2618 99.3244 59.0522 98.9527 56.6627 99.0553C55.4808 99.0937 54.954 99.0681 54.954 98.9656C54.954 98.863 55.1467 96.5304 55.378 93.7236C55.6092 90.9297 55.8533 87.8153 55.9304 86.79L56.0846 84.9444L55.0954 86.8412L55.0311 88.0075C55.0054 88.1998 54.7742 90.7631 54.5301 93.7236C54.1575 98.2478 54.0548 99.1578 53.8364 99.5039C53.284 100.375 52.7316 101.606 52.5774 102.298L52.4104 103.028L51.691 103.118C51.2927 103.169 50.3934 103.246 50.2264 103.285C50.0594 103.323 50.5219 103.72 50.7788 104.156C50.7788 104.143 50.766 104.131 50.766 104.118C50.766 103.887 57.138 103.477 60.8892 103.477C62.9319 103.477 66.9786 103.772 67.1584 103.938C67.1584 103.938 67.1584 103.964 67.1584 103.951L67.1713 103.938L67.3768 102.926C67.4154 102.734 66.863 103.067 66.606 102.977C66.529 102.951 66.2335 102.887 65.938 102.836C65.4884 102.759 65.4113 102.695 65.4113 102.375C65.4113 101.849 64.9488 100.888 64.2936 100.042C63.8183 99.427 63.7412 99.2347 63.7412 98.6195C63.7412 98.235 63.6384 96.7355 63.5228 95.2872C63.4072 93.8518 63.1888 90.9425 63.0346 88.8278C62.8805 86.7259 62.6749 83.6756 62.5593 82.0735C62.1354 76.3446 61.9427 69.9492 62.1482 69.4109L61.3003 71.5128H61.3132ZM6.53467 69.6672C7.35686 69.6672 8.44883 69.68 9.88767 69.7057C12.7525 69.7441 19.3943 69.8338 24.6614 69.8851C34.0652 69.9876 34.2322 70.0004 34.8103 70.2952C35.6711 70.731 36.0179 71.3205 36.095 72.3715C36.185 73.7044 35.8766 74.3452 34.5277 75.6781C31.4702 78.7156 27.2565 81.0482 23.3125 81.8685C21.9893 82.1504 18.2124 82.3427 16.9919 82.2017C13.5361 81.7787 11.9046 81.4711 10.1061 80.8688C8.65438 80.4074 7.27978 79.7281 6.0208 78.8694C4.38926 77.7159 2.64211 75.5628 2.17962 74.153C1.80707 72.9739 2.23101 71.3974 3.18167 70.4875C3.87539 69.8338 4.05525 69.6672 6.53467 69.6672ZM43.0323 104.246L41.7219 104.477C41.1181 104.579 40.2831 104.771 39.8591 104.848C38.7286 105.066 37.6752 105.745 37.0842 106.63L36.5704 107.578L37.6366 107.476C37.6109 107.463 37.5981 107.463 37.5981 107.45C37.5981 107.207 38.8571 106.002 39.3196 105.848C39.9876 105.63 42.5055 105.246 42.6982 105.31L43.0323 104.246Z" fill="#FFC800"/>
<path d="M53.2711 107.54H66.3106" stroke="#FFC800" stroke-miterlimit="10"/>
<path d="M36.7373 107.54H42.0302" stroke="#FFC800" stroke-miterlimit="10"/>
<path d="M83.7307 36.934C83.0498 35.537 81.7651 33.9221 79.8381 32.0125C77.0504 29.2313 74.738 27.6677 73.7102 27.8343C73.3891 27.8984 73.0807 28.0266 72.811 28.206C72.4384 28.4752 72.387 28.4752 72.387 28.2701C72.387 27.8728 71.4621 26.0913 70.9353 25.4761C70.3444 24.784 69.4323 24.3098 68.7 24.3098C68.0834 24.3098 66.8115 24.6559 66.0793 25.0275C65.8994 25.1301 65.7067 25.2198 65.5012 25.2839C65.4755 25.2839 65.5654 24.7968 65.7067 24.2073C66.0022 22.9769 66.2463 20.6187 66.2463 18.9141C66.2463 17.7734 66.2463 17.7606 66.5803 17.8503C67.0042 17.9529 67.8778 17.594 68.3917 17.107C68.9312 16.62 69.2653 15.9407 69.3166 15.2102C69.368 14.5181 69.2139 13.826 68.8542 13.2364C68.6358 12.9032 67.3383 11.7369 67.3383 11.4678C67.3383 11.1473 67.6209 10.6347 67.6594 10.4809C67.775 10.058 67.7622 9.89134 67.5823 9.62219C67.2483 9.10954 66.6574 9.17362 65.9765 9.77599C65.4626 10.2374 65.4241 10.2502 65.2828 10.0067C65.2571 9.95542 65.2442 9.89134 65.2442 9.84007L64.4606 8.69941C64.345 8.59688 64.178 8.43027 64.0109 8.23802C63.6127 7.78945 63.1117 7.41777 62.5593 7.18707C62.0069 6.94356 61.4031 6.82821 60.7993 6.85385C59.1292 6.85385 56.5084 7.78945 55.2495 8.81476C54.8769 9.13517 54.53 9.49403 54.2217 9.87852C53.7336 10.7116 53.4252 11.6856 53.4252 12.4803L53.3353 14.3899C53.3353 14.3899 52.3461 14.6847 51.5881 15.992C51.267 16.5431 51.2156 17.5812 51.5111 18.5424C51.6267 18.9141 52.1406 20.2598 52.1406 20.2598C52.2305 20.4136 52.2433 20.6443 52.0121 20.9391C51.6524 21.4005 51.6395 22.3489 51.9992 23.0538C52.4232 23.8228 53.1169 24.3995 53.9519 24.6943L54.6328 24.9378L54.363 25.3736C53.4895 26.809 54.9026 28.0394 56.4956 27.232L57.1379 26.8987L57.2279 27.5139C57.4334 28.9622 57.4206 28.9878 56.4185 29.2441C55.879 29.3851 54.6714 29.5261 53.3867 29.5774C51.4597 29.6671 51.1899 29.7055 50.5861 30.0259C49.6997 30.513 45.6144 34.0888 42.1329 37.4338C40.2959 39.2025 40.283 39.2153 40.283 39.8433C40.283 40.2278 40.3729 40.5995 40.5143 40.9584C40.7326 41.4069 40.7327 41.4582 40.4757 41.8299C39.615 43.0859 39.7049 45.2647 40.6813 46.7129C42.0816 48.7892 45.4602 52.365 47.0019 53.3903C47.2588 53.5697 47.4643 53.826 47.5928 54.108C47.8754 55.0436 48.5692 56.0817 49.006 56.3509C49.507 56.6585 50.2007 56.7226 50.6118 56.5047C50.8173 56.3893 50.9073 56.4534 51.1257 56.8892C51.2156 57.0942 51.3441 57.2865 51.4725 57.4787C51.5239 57.5172 51.601 57.8504 51.6524 58.2349C51.7937 59.1449 52.3333 59.7088 53.0655 59.7088C53.5023 59.7088 53.5665 59.7472 53.4895 59.9523C53.1041 60.9263 52.5773 63.5025 52.5003 64.7328C52.4103 66.1939 51.6267 69.4493 49.2886 78.0875C48.8903 79.5743 48.2608 82.0606 47.9011 83.5858C47.2074 86.5208 46.3467 89.4044 45.3061 92.2369C44.8693 93.4032 44.6638 93.762 44.0728 94.3388C42.5055 95.9024 42.4027 97.0559 43.6874 98.2606C44.2784 98.8117 44.2783 98.6579 43.5461 101.337C43.2892 102.298 43.0065 103.336 42.9294 103.643C42.9294 103.643 42.4284 105.797 42.2871 106.309L42.0173 107.232C42.0173 107.232 41.709 108.36 42.21 108.373C45.987 108.373 49.7639 108.45 53.5408 108.386C53.6051 108.386 53.695 107.988 53.695 107.924C53.695 107.412 53.361 106.809 53.0141 106.45C52.6801 106.117 52.3204 105.784 51.9093 105.54C51.5368 105.322 51.2284 105.015 51.0229 104.643C50.8944 104.387 50.1236 102.554 49.9823 102.106L49.6097 100.926L49.9695 100.401C50.2906 99.9267 50.3934 99.632 50.342 99.3244C50.3292 99.2731 50.3934 99.2218 50.4833 99.2218C50.8687 99.2218 51.6138 98.7348 51.8836 98.2862C52.1406 97.8633 52.1662 97.671 52.102 96.8252C52.0249 95.8767 52.0506 95.7486 53.1169 92.6214C53.7207 90.8527 54.3373 89.1481 54.4787 88.8405C54.62 88.5329 56.0588 84.8674 56.0588 84.8674L57.6004 80.9969C58.4483 78.8693 59.6174 75.9088 60.2083 74.422L61.2874 71.7178L62.2509 69.2186C62.3666 69.1545 62.585 69.116 62.9447 69.116H63.6641L64.2679 72.7687C65.2185 78.613 66.3876 87.9946 66.7473 92.647C66.8629 94.2106 66.9785 95.5948 66.9914 95.7101C67.0042 95.8255 66.7473 96.4535 66.439 97.1071C66.1178 97.7608 65.848 98.4272 65.848 98.6066C65.848 99.2475 66.2206 99.7089 67.0299 100.055C67.9292 100.439 67.9292 100.478 67.5053 101.939C67.4025 102.323 65.8737 106.63 65.5782 107.963C65.5269 108.206 65.7324 108.36 65.7709 108.36C66.272 108.386 75.9584 108.36 80.352 108.36C80.6989 108.334 80.8402 107.629 80.5319 107.117C80.5062 107.104 80.2364 106.578 79.9152 106.258C79.4656 105.809 78.9003 105.502 77.5386 104.925C75.5345 104.092 74.3911 103.387 73.5432 102.477C73.0294 101.926 72.9651 101.785 72.9651 101.183V100.516L73.7359 100.132C74.3269 99.8498 74.5581 99.632 74.7123 99.2731C74.9564 98.6964 74.9564 98.5041 74.7637 97.9915C74.6737 97.7608 74.5838 96.1587 74.5581 94.044C74.5067 90.6092 74.2241 85.2263 73.9415 82.2016C73.8644 81.3942 73.7102 78.267 73.5946 75.2423C73.479 72.2176 73.2863 68.6418 73.1707 67.2961C72.9394 64.6431 72.4513 60.1958 72.3356 59.6191C72.3099 59.3499 72.3613 59.0936 72.4769 58.8501C72.6054 58.6066 72.6697 58.3502 72.6953 58.0811C72.6953 57.8248 72.8367 57.6325 73.2221 57.389C74.0314 56.8635 74.0186 56.1971 73.1964 55.1205L72.721 54.4925L72.554 52.0702C72.387 49.3659 72.4384 46.6488 72.7082 43.9446C72.7981 43.0987 72.8752 42.3938 72.888 42.381C73.2863 42.4579 73.6717 42.5604 74.0699 42.6886C74.7123 42.8808 75.3675 43.0218 76.0355 43.1115C76.7549 43.1884 76.8834 43.1628 77.1532 42.9065C77.333 42.7014 77.4743 42.4579 77.5386 42.1887C77.5899 41.958 77.6413 41.7658 77.6799 41.7658C77.7056 41.7658 78.3222 42.0478 79.0416 42.3938C79.9666 42.8296 80.5318 43.0218 80.9429 43.0218C82.1248 43.0218 83.3067 42.1375 83.9105 40.8046C84.1289 40.3304 84.206 39.8818 84.206 38.9846C84.1932 37.9978 84.1546 37.7927 83.7307 36.934ZM72.978 29.0391C73.2477 28.8468 73.5432 28.7187 73.8644 28.6674C74.0956 28.6674 74.147 29.0519 73.9929 29.603C73.9415 29.7696 73.8644 29.9106 73.813 29.9106C73.6717 29.9234 72.9009 29.1032 72.978 29.0391ZM67.9677 25.2454C68.1091 25.2326 68.2375 25.2198 68.3788 25.2198C69.6507 25.207 70.4343 25.9375 71.5006 28.0138C71.8603 28.7443 72.3228 29.4108 72.8623 30.0131C73.5432 30.7052 73.5561 30.7437 73.3891 31.1538C73.2092 31.5127 72.9651 31.8459 72.6953 32.1407C72.3999 32.4482 72.1172 32.6918 72.0402 32.6918C71.9631 32.6918 71.6805 32.3201 71.385 31.8715C71.051 31.3332 70.5885 30.8846 70.0618 30.5386C69.1625 29.949 67.3382 28.1547 67.0299 27.5652C66.8501 27.232 66.7088 27.1551 66.015 27.0782C65.7067 27.0525 65.3984 27.0013 65.1029 26.9116C64.6404 26.6168 66.7601 25.3864 67.9677 25.2454ZM71.295 32.884C71.295 33.0506 70.8197 32.9994 70.627 32.8199C70.4472 32.6405 70.3829 32.0125 70.5371 32.0125C70.6399 32.0125 71.2822 32.7558 71.295 32.884ZM63.3172 29.8209C63.7669 29.8081 64.3321 30.0388 64.7561 30.4361C65.5526 31.2051 66.2977 32.8968 66.3747 34.2169C66.4261 34.909 66.3876 35.4088 66.2848 35.6139C66.0536 36.0497 65.6939 35.9856 64.8717 35.3704L64.1394 34.8193L64.1266 33.5248C64.1137 32.4098 64.0623 32.115 63.7155 31.4358C63.4971 31 63.1631 30.513 62.9832 30.3592C62.6363 30.09 62.6363 30.0772 62.919 29.9362C63.0346 29.8593 63.1759 29.8337 63.3172 29.8209ZM62.4822 29.2313C62.1996 29.3851 62.1482 29.321 61.8784 28.4239C61.7885 28.1419 61.827 28.1163 62.3152 28.1035C62.8676 28.1035 63.9339 27.6934 64.088 27.4242C64.1009 27.4114 64.1137 27.3858 64.1266 27.3729C64.1394 27.3601 64.1651 27.3601 64.1908 27.3473C64.3064 27.3601 64.422 27.4114 64.5248 27.4883C64.7175 27.6165 65.1543 27.7062 65.5397 27.7062C66.1307 27.7062 66.2463 27.7446 66.439 28.0778C66.9143 28.8597 67.9806 29.9234 68.9184 30.5386C69.458 30.8975 69.9333 31.2435 69.9718 31.3204C70.0232 31.3973 70.0361 31.4742 70.0104 31.4998C69.8948 31.5895 68.7514 31.3076 68.3403 31.0769C67.8264 30.8462 67.2997 30.6411 66.7601 30.4617C66.0793 30.231 65.4241 29.9234 64.8074 29.5774C63.9339 29.0647 63.0474 28.9237 62.4822 29.2313ZM56.9324 25.2326L56.9838 26.0785L56.4314 26.3989C56.1359 26.5783 55.8019 26.668 55.455 26.6809C55.1082 26.6552 55.0311 26.5783 54.9925 26.2579C54.954 25.9631 55.0696 25.7453 55.455 25.3736C55.9303 24.8994 55.9432 24.8481 55.7505 24.5533C55.6092 24.3483 55.3394 24.2073 54.9411 24.156C53.0912 23.8741 52.0378 22.2592 52.9756 21.1442C53.3353 20.7212 53.3353 20.6956 53.1041 20.5162C52.8728 20.3367 52.3076 18.709 52.1277 17.5812C51.9864 16.7866 52.3076 16.1073 53.0141 15.6331C53.3225 15.428 53.7079 15.2486 53.8877 15.2358C54.1832 15.223 54.1832 15.1589 54.196 13.4799C54.2089 11.9163 54.2474 11.66 54.5686 10.9679C55.2623 9.50685 56.6369 8.5328 58.7952 7.98169C59.7073 7.751 60.4524 7.5972 61.0947 7.5972C62.5079 7.58438 63.42 8.23802 64.4734 10.0708C65.1672 11.2883 65.7966 10.9936 66.1564 10.686C66.3876 10.4809 66.6317 10.2886 66.9015 10.1349C67.1199 10.1349 66.9272 10.4937 66.4904 10.9167C66.0536 11.3396 66.015 11.4165 66.1435 11.7369C66.2206 11.942 66.3876 12.0958 66.5418 12.0958C66.8886 12.0958 67.8778 13.057 68.2375 13.7619C68.9569 15.1717 68.2247 16.8378 66.7858 17.0685C66.439 17.1198 66.2848 17.0942 66.2463 16.9532C65.9893 16.0817 65.6553 15.3768 65.3085 14.941C64.7047 14.1848 63.8953 13.3005 63.3943 13.3005C62.7263 13.3005 62.495 14.0182 62.4179 15.1973C62.3409 16.4662 62.1867 16.8635 61.5958 17.389C59.8743 18.8885 57.4591 17.5556 57.6647 15.2102C57.6903 14.9026 57.7417 14.595 57.8317 14.2874C57.9216 14.0951 57.8702 14.0439 57.639 14.0439C57.0352 14.0439 56.7397 15.5306 57.0994 16.7481C57.2664 17.1967 57.5362 17.594 57.8831 17.9272L58.4868 18.5296L58.3455 19.6703C58.1657 21.0673 57.9216 21.926 57.7674 21.7594C57.7032 21.6953 57.549 21.2339 57.4206 20.734C57.1251 19.6062 56.881 19.1192 56.4442 18.8372C56.0331 18.5681 55.3394 18.645 54.787 18.991C54.286 19.3242 53.8106 20.3367 53.9263 20.8622C54.119 21.7337 55.3394 22.3105 56.3928 22.0285C56.881 21.9003 56.9324 21.9131 57.2022 22.2848C57.5747 22.7847 58.0886 22.8103 58.3969 22.3361C58.7052 21.8619 58.9879 20.7469 59.0906 19.6062C59.1806 18.7219 59.1934 18.6834 59.5146 18.7475C60.6066 18.9526 62.1096 18.2092 62.7263 17.1583C63.0217 16.6456 63.086 16.3508 63.1117 15.4409C63.1502 13.6466 63.4457 13.6466 64.7432 15.5049L65.4241 16.4662V18.0939C65.4241 20.106 65.2057 22.9256 64.9359 24.3098C64.5377 26.4117 62.9061 27.7959 61.6086 27.1166C61.2617 26.9116 60.9149 26.668 60.5937 26.4245C60.2083 26.1298 59.8101 25.8862 59.7201 25.8862C59.3219 25.8862 59.6045 26.5142 60.3111 27.1935C60.8763 27.7446 61.0819 28.0522 61.159 28.4752C61.3517 29.5261 61.7114 30.372 62.1096 30.6668C62.7134 31.0897 63.2144 32.2304 63.2915 33.3198C63.3558 34.1785 63.3301 34.281 62.9961 34.6142C62.5079 35.1013 61.9041 35.0756 60.992 34.563C60.1698 34.0888 59.6431 33.4864 58.9493 32.1919C58.2556 30.8975 58.1657 30.5258 58.1014 28.5008C58.0501 26.6552 57.716 24.7584 57.382 24.4124C57.0609 24.0279 56.881 24.3355 56.9324 25.2326ZM56.5341 21.2082C56.2644 21.298 55.9817 21.298 55.7248 21.2211C55.6477 21.1954 55.4165 21.1313 55.2109 21.0929C54.7356 20.9904 54.6071 20.5802 54.8769 20.0419C54.954 19.8753 55.0825 19.7472 55.2366 19.6446C55.3908 19.5421 55.5706 19.4908 55.7505 19.478C55.8533 19.478 55.956 19.5037 56.046 19.5677C56.1616 19.6446 56.3671 20.0163 56.4956 20.4136C56.714 21.0416 56.7268 21.1313 56.5341 21.2082ZM57.2022 31.4614L57.3563 30.7052L57.7032 31.5127C58.2299 32.743 59.0778 34.0247 59.8743 34.7296L60.5937 35.3704L60.1312 36.2547C59.8871 36.7418 59.566 37.1775 59.1934 37.562C58.6282 38.0618 58.5896 38.0618 58.1271 37.703C57.0866 36.8955 56.6626 34.0247 57.2022 31.4614ZM42.1329 38.9205C42.21 38.9077 42.3 38.8949 42.377 38.8949C42.7624 38.8949 43.2249 39.0615 43.2249 39.2281C43.2249 39.2922 42.8138 39.6639 42.3256 40.0612C42.0173 40.3175 41.6962 40.561 41.3621 40.7789C41.2722 40.7789 41.1437 40.1894 41.1309 39.7664C41.1309 39.3563 41.4778 39.0743 42.1329 38.9205ZM50.6246 55.1077C50.6246 55.6972 50.5861 55.7998 50.3163 55.8767C49.8667 55.992 49.8667 55.992 49.4556 55.6716C49.25 55.505 48.9032 54.9923 48.6848 54.5181C48.3636 53.826 47.8626 53.2365 45.9356 51.2884C43.4433 48.7892 41.6576 46.6873 41.1309 45.6492C40.7327 44.8674 40.617 43.5473 40.8868 42.7911C41.0281 42.381 41.4264 41.9324 42.4027 41.0737C43.5846 40.0228 43.9829 39.6254 44.3683 39.6254C44.6381 39.6254 44.9078 39.7921 45.4217 40.074C46.5394 40.6764 48.5306 42.0221 48.5306 42.1887C48.4407 42.4194 48.3122 42.6373 48.1709 42.8424L47.8112 43.3935L47.1689 43.0474C46.5394 42.7142 45.82 42.6501 45.82 42.9193C45.82 42.9962 46.3724 43.4191 47.0404 43.8549C48.0553 44.5213 48.5049 44.9571 49.7254 46.431C50.5347 47.405 51.7038 48.943 52.3204 49.8658L53.4509 51.5319L52.7444 51.8651C51.5111 52.4803 50.6246 53.826 50.6246 55.1077ZM49.173 42.8167C49.2243 42.8167 49.2757 42.868 49.3271 42.9577C49.6354 43.3807 49.5455 43.8164 49.0959 44.0599C48.582 44.3291 48.5435 44.3291 48.4407 44.0599C48.4022 43.9446 48.5306 43.5985 48.749 43.2781C48.9803 42.9705 49.083 42.8167 49.173 42.8167ZM49.9309 44.7008C50.2007 44.4957 50.8045 44.0087 51.267 43.6242L52.1277 42.8936L52.7572 43.8933C53.1041 44.4444 53.9134 45.9311 54.5429 47.1871L55.3137 48.7123C55.5064 49.1865 55.7376 49.6351 55.7376 50.3528L55.7762 51.3781L55.8404 53.2749L55.3908 53.3647C54.5943 53.5185 54.5429 53.4672 54.453 52.506C54.3887 51.7626 54.0804 51.1346 52.9756 49.4813C51.9222 47.9049 51.1257 46.8795 50.2007 45.8542L49.4684 45.0596L49.9309 44.7008ZM51.9607 55.9664L51.6395 56.5944L51.4597 55.7998C51.2284 54.736 51.4211 54.0567 52.2433 53.2109L52.86 52.5572L53.4895 53.198L54.119 53.8389L53.6693 54.1721C53.4252 54.3515 53.0141 54.6976 52.7572 54.9283C52.436 55.223 52.1662 55.5819 51.9607 55.9664ZM52.8343 58.8885C52.1534 58.4912 52.2433 57.0302 53.027 55.7357C53.3867 55.1333 53.6051 54.9539 54.3117 54.6335C54.8127 54.4156 55.3522 54.2618 55.8918 54.1849C56.0717 54.1721 56.213 54.1593 56.3157 54.1593C56.6369 54.1593 56.6755 54.249 56.8168 54.595C56.9838 55.0949 57.1122 55.6075 57.1893 56.133C57.3949 57.389 57.2921 57.6453 56.5213 57.6453C56.213 57.6453 55.7376 57.8248 55.2238 58.1324C54.7741 58.4015 54.3117 58.6322 53.8235 58.8245C53.1554 59.068 53.1426 59.068 52.8343 58.8885ZM51.2284 106.156C51.6524 106.361 52.0378 106.63 52.3718 106.937L52.7829 107.36H45.9613L46.5008 107.001C47.49 106.322 48.5435 105.938 49.5455 105.861C49.7511 105.848 49.9181 105.835 50.0722 105.835C50.4962 105.848 50.7403 105.925 51.2284 106.156ZM50.1622 104.823C50.2135 104.951 50.0722 105.002 49.6997 105.002C48.3379 105.015 46.822 105.643 45.6915 106.681L44.9335 107.373H43.9315C43.0322 107.373 42.9294 107.347 43.0194 107.13C43.0964 106.912 44.4967 101.003 44.4967 100.875C44.4967 100.875 44.4967 100.875 44.5096 100.875V100.862C44.6638 100.939 44.8179 101.029 44.9592 101.144C45.8457 101.824 47.4258 101.952 48.6077 101.452L49.0702 101.26L49.2243 102.067C49.3271 102.746 49.6354 103.631 50.1622 104.823ZM44.8693 99.1706L45.4731 99.4013C45.9227 99.5679 46.5522 99.632 47.8497 99.632C49.0702 99.632 49.5969 99.6832 49.5455 99.7858C49.4427 100.042 48.6848 100.542 48.081 100.76C46.6165 101.272 45.1776 100.747 44.9464 99.6063L44.8693 99.1706ZM77.8983 106.258C78.2708 106.258 78.4892 106.335 78.8875 106.566C79.2343 106.771 79.5427 107.027 79.5812 107.142C79.6583 107.322 79.3628 107.347 77.333 107.347C75.2005 107.347 75.0206 107.322 75.2775 107.13C75.907 106.655 76.665 106.361 77.4615 106.271C77.6285 106.271 77.7698 106.258 77.8983 106.258ZM76.0098 105.233L76.6393 105.476L75.9584 105.758C75.4317 106.015 74.9307 106.335 74.481 106.707L73.6845 107.36H70.2416C67.0299 107.36 66.8115 107.347 66.9015 107.117C67.0171 106.822 68.1604 102.862 68.2889 102.311L68.3788 101.939L68.8285 102.221C69.3809 102.567 70.794 102.593 71.552 102.285L72.0659 102.067L72.4127 102.528C73.2221 103.605 74.7765 104.771 76.0098 105.233ZM68.6743 100.747C68.7257 100.734 68.7771 100.734 68.8285 100.747C69.0983 100.747 69.6892 100.76 70.3701 100.785C71.7832 100.837 71.9888 100.888 71.8475 101.055C71.6804 101.221 71.5006 101.349 71.295 101.452C70.4985 101.862 68.9698 101.593 68.7385 101.003C68.6743 100.888 68.6486 100.773 68.6743 100.747ZM72.7082 74.358C72.7853 76.8444 72.9908 80.4458 73.1321 82.3682C73.2734 84.2779 73.4661 88.0459 73.5432 90.7245C73.6974 96.2741 73.7745 97.7223 73.9929 98.3247C74.1856 98.8758 73.8387 99.3884 73.0551 99.6704C71.886 100.081 69.5094 100.004 67.698 99.491C66.5674 99.1706 66.5032 98.9142 67.2226 97.4916C67.5695 96.838 67.7493 96.1074 67.7365 95.3641L67.7237 94.3388C67.7108 93.1853 67.5952 91.532 67.4796 90.6476C67.3639 89.7633 67.0428 87.0206 66.7858 84.5598C66.0793 78.0747 65.0901 71.2308 64.6276 69.5262C64.512 69.1032 64.5248 69.0776 65.0901 68.9366C65.8352 68.7444 66.6188 68.2702 66.5418 68.0395C66.4647 67.8216 66.0022 67.8472 64.9744 68.142C64.3321 68.3086 63.6769 68.3983 63.0217 68.4368C62.1353 68.4752 61.8655 68.5393 61.7371 68.7316C61.5058 69.0904 53.1683 89.9556 52.4103 92.1087C51.5111 94.6464 51.177 96.0049 51.2927 96.7483C51.4982 98.1196 50.6375 98.7476 48.415 98.8373C46.8605 98.9014 45.8842 98.6707 44.7794 98.0043C43.4562 97.1968 43.4433 96.4791 44.7151 94.9283C45.6401 93.7877 46.2311 92.6342 46.8734 90.7245C47.7084 88.2253 47.9654 87.3026 48.4407 85.1109C48.6848 84.0087 49.1601 82.0735 49.4941 80.7918C50.766 76.0497 52.359 69.9363 52.6287 68.7956C52.7315 68.2958 52.86 67.8088 53.0141 67.3346C53.0784 67.1808 53.2068 66.2452 53.2968 65.2455C53.4638 63.2333 53.8106 61.6184 54.3502 60.2855C54.6714 59.4781 54.787 59.3499 55.5578 58.8757C56.1102 58.5297 56.5727 58.3502 56.881 58.3502C57.1379 58.3502 57.3949 58.299 57.6261 58.1836C57.6903 58.1324 57.7674 58.1067 57.8445 58.1067C57.9601 58.1067 58.0886 58.158 58.2941 58.299C59.4504 59.1064 61.3003 59.4653 64.178 59.4525C65.4626 59.4525 67.1712 59.5037 67.9806 59.5806C68.7899 59.6575 69.9333 59.7216 70.5242 59.7344C71.1152 59.7472 71.6034 59.7601 71.6034 59.7857C71.6034 59.8113 71.7318 60.952 71.886 62.3233C72.3356 66.7066 72.554 69.7184 72.7082 74.358ZM71.6804 58.7219C71.4877 58.9142 69.2524 58.9526 69.1368 58.7604C69.0983 58.6963 69.3166 58.5938 69.6378 58.5553C70.1003 58.4656 70.5499 58.3374 70.9867 58.1836C71.4107 58.0298 71.7832 57.9017 71.8089 57.9017C71.9374 57.9145 71.8218 58.5809 71.6804 58.7219ZM73.0037 41.7017C72.9908 41.6889 72.9137 40.8686 72.8495 39.8946C72.7339 38.2028 72.6054 37.7286 72.3099 37.908C72.2329 37.9465 72.1429 39.5101 72.0787 41.3685C72.0273 43.2269 71.9245 45.2903 71.8603 45.9311C71.6933 47.5332 71.6933 51.5063 71.8603 53.4031C71.9888 54.8385 72.0402 55.0052 72.4898 55.6844C72.7596 56.0817 72.978 56.4662 72.978 56.5303C72.978 56.6969 72.22 57.0814 71.886 57.0814C71.6291 57.1071 71.3721 57.1711 71.1409 57.2865C70.8711 57.4018 69.4965 57.7094 68.0834 57.9914C64.8588 58.6194 63.0988 58.7091 61.2489 58.3502C60.0541 58.1195 58.6282 57.671 58.2299 57.4018C58.14 57.3506 58.0372 56.7482 57.9987 56.0817C57.9087 54.7104 57.5105 53.6723 56.9709 53.4287C56.6498 53.2878 56.6369 53.2109 56.6369 51.8651C56.6369 50.3656 56.3928 49.1096 55.9432 48.3534C55.8019 48.1099 55.3009 47.0462 54.8255 45.9824C54.2603 44.6879 53.7464 43.778 53.2839 43.214L52.603 42.3682L53.4252 41.5479C53.8749 41.0993 54.2474 40.6508 54.2474 40.5482C54.2474 40.1125 53.6436 40.4713 52.0892 41.8299C50.4319 43.2781 50.4191 43.2781 50.2007 42.9705C49.0188 41.2019 45.4859 38.8052 43.1992 38.2285C42.5183 38.049 42.5055 38.0362 42.7753 37.844C42.9294 37.7286 44.4582 36.3573 46.1668 34.7937C51.2027 30.1669 50.9073 30.3464 53.3738 30.3464C54.3117 30.3464 55.4036 30.2695 55.789 30.1926C56.0203 30.1413 56.2515 30.1028 56.4828 30.0772V30.0644C56.5213 30.0644 56.547 30.0644 56.5598 30.0772C56.5855 30.1028 56.4828 30.6027 56.3414 31.1666C55.9817 32.5123 55.956 34.768 56.2772 36.0368C56.714 37.7158 57.472 38.677 58.474 38.7796C58.9622 38.8308 59.1677 38.7796 59.5531 38.4848C60.1055 38.0747 60.7864 37.1519 61.1718 36.3316C61.4031 35.8062 61.4673 35.7549 61.9683 35.7549C62.328 35.7421 62.6749 35.678 63.0089 35.5498C63.5099 35.3448 63.5228 35.3448 64.0495 35.819C65.0258 36.7033 66.105 37.0237 66.6317 36.588C67.4924 35.8831 67.4539 33.1532 66.5674 31.6536C66.4133 31.3845 66.3362 31.1666 66.3876 31.1666C66.5546 31.1666 67.8521 31.6152 68.0191 31.7177C68.3018 31.8587 68.5972 31.974 68.8927 32.0638C69.5093 32.2688 69.625 32.3585 69.625 32.6533C69.625 32.8584 69.8048 33.166 70.0875 33.4479C70.3829 33.7299 70.6527 34.0503 70.8839 34.3835C71.0638 34.6527 71.7318 35.5114 72.3742 36.306C73.0165 37.1006 73.5304 37.8568 73.5304 37.9978C73.5304 38.4848 74.4682 41.125 75.0334 42.2144C75.072 42.2913 73.1193 41.7914 73.0037 41.7017ZM74.905 40.0228C74.7637 39.6383 74.6609 39.2666 74.6737 39.1897C74.6737 39.1769 74.6737 39.1769 74.6866 39.1769V39.1897C74.7508 39.1641 75.1491 39.5101 75.6115 39.9971C76.0997 40.5098 76.4851 40.9327 76.4466 40.9199C76.4209 40.9071 76.1126 40.8558 75.7786 40.8174C75.2005 40.7277 75.1619 40.6892 74.905 40.0228ZM76.8063 42.1759C76.6907 42.4066 76.5494 42.5989 76.5108 42.5989C76.3695 42.5989 75.6244 41.7786 75.6244 41.6248C75.6244 41.5607 75.6886 41.5351 75.8299 41.5351C75.9327 41.5351 76.0483 41.5479 76.1511 41.5607C77.0504 41.7017 77.0504 41.7145 76.8063 42.1759ZM81.7009 42.1887C80.9943 42.522 80.9044 42.5091 79.8124 42.0478C77.757 41.1891 76.0227 39.5614 72.3742 35.0884L71.3079 33.7812L72.0016 33.5505C72.4384 33.3838 72.8367 33.1532 73.1964 32.8456C73.7745 32.2945 74.4296 30.9744 74.648 29.9619C74.738 29.5646 74.8536 29.2185 74.905 29.1801C74.9307 29.1672 74.9435 29.1672 74.9692 29.1672C75.7143 29.1672 80.4419 33.5889 82.3047 36.0625C83.3967 37.5107 83.4738 37.703 83.4738 38.9462C83.4738 40.497 82.8443 41.6633 81.7009 42.1887Z" fill="#272727"/>
</g>
<defs>
<clipPath id="clip0_851_23926">
<rect width="120" height="109.524" fill="white" transform="translate(0.475098 0.689209)"/>
</clipPath>
</defs>
</svg>
