<svg xmlns="http://www.w3.org/2000/svg" width="201" height="49" viewBox="0 0 201 49" fill="none" >
<path d="M56 32.9H61.6V21.4L67.1 32.9H71.1L76.6 21.4V32.9H82.3V14.9H74.8L69.3 26.1L63.9 14.9H56V32.9Z" fill="black"/>
<path d="M100.5 14.9H92.8L84.5 32.9H90.3L91.7 29.8H101.3L102.7 32.9H108.9L100.5 14.9ZM93.6 25.8L96.6 19.1L99.7 25.8H93.6Z" fill="black"/>
<path d="M132.6 31.1V28.8C132.6 26.1 130.9 24.8 128.5 24.3C130.7 23.8 132.5 22.4 132.5 20V19.8C132.5 17.6 131.6 14.9 124.8 14.9H111.3V32.9H117.1V27H123.2C125.8 27 126.6 27.8 126.6 30.2V31.7C126.6 32.5 126.7 32.8 126.7 32.9H132.7V32.8C132.7 32.6 132.6 32.2 132.6 31.1ZM126.4 20.9C126.4 21.8 125.9 22.6 124 22.6H117.1V19.2H124C125.9 19.2 126.4 20 126.4 20.9Z" fill="black"/>
<path d="M150.7 32.9H158.2L148.4 23.1L157.7 14.9H150.6L142.6 22.1V14.9H136.7V32.9H142.6V24.7L150.7 32.9Z" fill="black"/>
<path d="M160.5 14.9V32.9H178.1V28.8H166.3V26H177.6V21.7H166.3V19.1H178V14.9H160.5Z" fill="black"/>
<path d="M180.8 19.5H188V32.9H193.8V19.5H201V14.9H180.8V19.5Z" fill="black"/>
<path d="M24 48.5C37.2548 48.5 48 37.7548 48 24.5C48 11.2452 37.2548 0.5 24 0.5C10.7452 0.5 0 11.2452 0 24.5C0 37.7548 10.7452 48.5 24 48.5Z" fill="#FFC907"/>
<path d="M14.2 14.9H28.5C33.7 14.9 35.2 17 35.2 19.2V19.5C35.2 21.9 33.1 23 31.7 23.2C33.7 23.5 36.1 24.6 36.1 27.7V27.9C36.1 30.7 34.4 33.2 28.5 33.2H14.2V14.9ZM20 19V21.9H27.1C28.6 21.9 29 21.3 29 20.5C29 19.6 28.6 19.1 27.1 19.1H20V19ZM20 25.7V28.9H27.6C29.4 28.9 29.8 28 29.8 27.3V27.2C29.8 26.4 29.4 25.7 27.6 25.7H20Z" fill="black"/>
</svg>
