<svg xmlns="http://www.w3.org/2000/svg" width="31" height="30" viewBox="0 0 31 30" fill="none">
    <path d="M15.5 30C23.7843 30 30.5 23.2843 30.5 15C30.5 6.71573 23.7843 0 15.5 0C7.21573 0 0.5 6.71573 0.5 15C0.5 23.2843 7.21573 30 15.5 30Z" fill="#FFC907"/>
    <path d="M9.37451 9H18.312C21.562 9 22.4995 10.3125 22.4995 11.6875V11.875C22.4995 13.375 21.187 14.0625 20.312 14.1875C21.562 14.375 23.062 15.0625 23.062 17V17.125C23.062 18.875 21.9995 20.4375 18.312 20.4375H9.37451V9ZM12.9995 11.5625V13.375H17.437C18.3745 13.375 18.6245 13 18.6245 12.5C18.6245 11.9375 18.3745 11.625 17.437 11.625H12.9995V11.5625ZM12.9995 15.75V17.75H17.7495C18.8745 17.75 19.1245 17.1875 19.1245 16.75V16.6875C19.1245 16.1875 18.8745 15.75 17.7495 15.75H12.9995Z" fill="black"/>
</svg>