<svg xmlns="http://www.w3.org/2000/svg" width="388" height="484" viewBox="0 0 388 484" fill="none" >
<path d="M387.56 0H0.000488281V484H387.56V0Z" fill="url(#paint0_linear_4171_43833)"/>
<path d="M0 101.838H25.7293V76.4684H51.6387V50.9189H77.548V25.5495H103.457V0H129.367V76.4684H103.457V101.838H77.548V127.387H51.6387V152.757H25.7293V178.306H0V101.838Z" fill="#FCE500"/>
<path d="M0 254.775H25.7293V229.225H51.6387V203.856H77.548V178.306H103.457V152.757H129.367V229.225H103.457V254.775H77.548V280.144H51.6387V305.694H25.7293V331.063H0V254.775Z" fill="black"/>
<path d="M0 407.532H25.7293V381.982H51.6387V356.613H77.548V331.063H103.457V305.694H129.367V381.982H103.457V407.532H77.548V433.081H51.6387V458.45H25.7293V484H0V407.532Z" fill="black"/>
<defs>
<linearGradient id="paint0_linear_4171_43833" x1="-0.121518" y1="0.0471366" x2="387.937" y2="0.0471386" gradientUnits="userSpaceOnUse">
<stop stop-color="#FFC800"/>
<stop offset="1" stop-color="#FFC800" stop-opacity="0"/>
</linearGradient>
</defs>
</svg>
